<?xml version="1.0" standalone="no"?>
<!DOCTYPE svg PUBLIC "-//W3C//DTD SVG 1.1//EN" "http://www.w3.org/Graphics/SVG/1.1/DTD/svg11.dtd" >
<svg xmlns="http://www.w3.org/2000/svg" xmlns:xlink="http://www.w3.org/1999/xlink" version="1.1">
<metadata></metadata>
<defs>
<font id="webfontregular" horiz-adv-x="1845" >
<font-face units-per-em="2048" ascent="1536" descent="-512" />
<missing-glyph horiz-adv-x="573" />
<glyph unicode="&#xfb01;" horiz-adv-x="1214" d="M78 893v131h172v346q0 131 76.5 210t201.5 79q39 0 75 -8.5t56 -22.5v-137q-23 16 -55.5 27.5t-60.5 11.5q-72 0 -116 -49t-44 -127v-330h281v-131h-281v-893h-133v893h-172zM856 1317q0 43 29.5 71.5t70.5 28.5t70.5 -28.5t29.5 -71.5q0 -39 -29.5 -68.5t-70.5 -29.5 t-70.5 28.5t-29.5 69.5zM889 0v1024h133v-1024h-133z" />
<glyph unicode="&#xfb02;" horiz-adv-x="1210" d="M78 893v131h172v346q0 131 76.5 210t201.5 79q39 0 75 -8.5t56 -22.5v-137q-23 16 -55.5 27.5t-60.5 11.5q-72 0 -116 -49t-44 -127v-330h281v-131h-281v-893h-133v893h-172zM886 0v1638h134v-1638h-134z" />
<glyph horiz-adv-x="0" />
<glyph horiz-adv-x="682" />
<glyph unicode=" "  horiz-adv-x="573" />
<glyph unicode="&#x09;" horiz-adv-x="573" />
<glyph unicode="&#xa0;" horiz-adv-x="573" />
<glyph unicode="!" horiz-adv-x="608" d="M205 80q0 41 29.5 70.5t70.5 29.5t71 -29.5t30 -70.5q0 -39 -30 -69.5t-71 -30.5t-70.5 29.5t-29.5 70.5zM238 1536h133l-13 -1114h-108z" />
<glyph unicode="&#x22;" horiz-adv-x="858" d="M205 1536h127l-13 -580h-102zM524 1536h129l-12 -580h-102z" />
<glyph unicode="#" horiz-adv-x="1593" d="M156 365l12 104h289l75 500h-290l16 102h285l53 365h102l-51 -365h400l51 365h102l-51 -365h291l-19 -102h-286l-70 -500h287l-15 -104h-286l-56 -365h-100l51 365h-401l-51 -365h-103l53 365h-288zM561 469h400l71 500h-399z" />
<glyph unicode="$" horiz-adv-x="1351" d="M168 285l111 63q45 -102 151.5 -168.5t245.5 -66.5q152 0 254 77.5t102 208.5q0 86 -48 144.5t-118.5 95.5t-195.5 86q-139 53 -226.5 100t-147.5 128t-60 204q0 172 110.5 272.5t267.5 116.5v174h134v-178q98 -14 184 -61t141 -113l-92 -78q-49 61 -129 101.5t-174 40.5 q-125 0 -217 -71t-92 -194q0 -88 49 -147t120.5 -96t196.5 -86q141 -55 226.5 -101.5t145.5 -127.5t60 -201q0 -121 -59 -210t-154.5 -140.5t-205.5 -65.5v-172h-134v170q-152 14 -272.5 97t-173.5 198z" />
<glyph unicode="%" horiz-adv-x="1505" d="M135 1245q0 84 36 156t98.5 113.5t133.5 41.5q72 0 133.5 -41.5t97.5 -113.5t36 -156t-36 -154.5t-97.5 -111.5t-133.5 -41q-71 0 -133.5 41t-98.5 111.5t-36 154.5zM154 0l1056 1536h142l-1057 -1536h-141zM244 1245q0 -82 47 -141.5t112 -59.5q66 0 113 59.5t47 141.5 q0 86 -47 145.5t-113 59.5t-112.5 -59.5t-46.5 -145.5zM838 291q0 84 35.5 154.5t96 111.5t134.5 41q72 0 133 -41t97 -111.5t36 -154.5t-36 -156t-97 -113.5t-133 -41.5q-74 0 -134.5 41.5t-96 113.5t-35.5 156zM944 291q0 -86 47 -145.5t113 -59.5q63 0 110.5 59.5 t47.5 145.5q0 82 -47.5 141.5t-110.5 59.5q-66 0 -113 -58.5t-47 -142.5z" />
<glyph unicode="&#x26;" horiz-adv-x="1396" d="M135 442q0 92 35 178.5t100 151.5l111 109l-70 69q-49 49 -76.5 116t-27.5 136q0 96 48 176t129 127t177 47t178 -47t130.5 -127t48.5 -176q0 -123 -79 -216t-198 -122q-33 -6 -66 -6l467 -465l213 209l86 -86l-213 -209l228 -225l-88 -88l-228 227l-108 -108 q-66 -68 -152 -102t-178 -34t-179 35t-153 101t-100.5 152.5t-34.5 176.5zM258 440q0 -68 26.5 -129t75.5 -110t113 -76t129 -27q68 0 131.5 26t114.5 77l106 106l-485 486l-109 -109q-49 -51 -75.5 -114.5t-26.5 -129.5zM328 1202q2 -94 70.5 -161.5t164.5 -67.5 q94 0 163 67.5t69 161.5t-69 162t-163 68q-96 0 -164.5 -68t-70.5 -162z" />
<glyph unicode="'" horiz-adv-x="536" d="M205 1536h127l-13 -580h-102z" />
<glyph unicode="(" horiz-adv-x="776" d="M164 590q0 332 68.5 566.5t186.5 359t269 139.5v-99q-117 -18 -208 -131.5t-143 -325.5t-52 -509q0 -295 52 -505t143 -322.5t208 -131.5v-98q-151 14 -269 137t-186.5 355.5t-68.5 564.5z" />
<glyph unicode=")" horiz-adv-x="776" d="M88 -369q117 18 208 131t143.5 323t52.5 505q0 297 -52.5 509t-143.5 325.5t-208 131.5v99q152 -14 270.5 -139t187 -359.5t68.5 -566.5t-68.5 -564.5t-187 -355.5t-270.5 -137v98z" />
<glyph unicode="*" horiz-adv-x="710" d="M123 1249v82l186 -14l-106 153l71 41l82 -163l80 163l74 -41l-107 -153l187 14v-82l-187 13l107 -152l-74 -43l-80 164l-82 -164l-71 43l106 152z" />
<glyph unicode="+" horiz-adv-x="1677" d="M205 580v110h581v580h109v-580h580v-110h-580v-580h-109v580h-581z" />
<glyph unicode="," horiz-adv-x="497" d="M10 -391l242 545l129 -56l-277 -530z" />
<glyph unicode="-" horiz-adv-x="968" d="M127 479v107h717v-107h-717z" />
<glyph unicode="." horiz-adv-x="401" d="M100 80q0 41 31 70.5t70 29.5q41 0 70.5 -29.5t29.5 -70.5t-29.5 -70.5t-70.5 -29.5t-71 29.5t-30 70.5z" />
<glyph unicode="/" horiz-adv-x="1204" d="M-16 -348l1077 2048h131l-1077 -2048h-131z" />
<glyph unicode="0" horiz-adv-x="1310" d="M109 768q0 221 71.5 401.5t196.5 283.5t278 103q154 0 280 -103t197.5 -284.5t71.5 -400.5t-71.5 -400.5t-197.5 -284.5t-280 -103q-153 0 -278 103t-196.5 283.5t-71.5 401.5zM248 768q0 -184 54 -332.5t148.5 -232.5t206.5 -84q113 0 206 84t147.5 232.5t54.5 332.5 t-54.5 332.5t-147.5 232.5t-206 84t-207 -84t-148 -232.5t-54 -332.5z" />
<glyph unicode="1" horiz-adv-x="641" d="M72 1397v139h379v-1536h-140v1397h-239z" />
<glyph unicode="2" horiz-adv-x="1257" d="M119 0v102l174 177q324 326 444.5 455.5t165.5 209.5t45 168q0 145 -87 226t-222 81t-223 -85t-90 -226l-150 2q0 131 62.5 233.5t169 159t237.5 56.5q127 0 230.5 -54.5t163 -155t59.5 -235.5q0 -109 -50.5 -203t-161 -216t-390.5 -402l-152 -154h807v-139h-1032z" />
<glyph unicode="3" horiz-adv-x="1222" d="M117 426l145 2q0 -86 44 -156.5t119 -112.5t161 -42q90 0 166.5 45t121 121.5t44.5 167.5q0 90 -44.5 160.5t-120 110.5t-165.5 40h-137l-2 137h131q72 0 133 36t96 96.5t35 131.5q0 106 -77 181t-185 75q-106 0 -181 -71.5t-75 -173.5l-142 4q0 104 52.5 191t143.5 137 t202 50q109 0 198.5 -50t142 -138t52.5 -199q0 -102 -46 -186t-126 -135q117 -57 186.5 -163.5t69.5 -240.5q0 -127 -63.5 -233.5t-172 -168.5t-237.5 -62q-127 0 -234.5 59t-171 162.5t-63.5 224.5z" />
<glyph unicode="4" horiz-adv-x="1230" d="M37 324v90l713 1122h170v-1073h167v-139h-167v-324h-138v324h-745zM225 463h557v901z" />
<glyph unicode="5" horiz-adv-x="1259" d="M119 358l145 17q35 -127 134.5 -191.5t222.5 -64.5q109 0 194.5 50t134.5 139t49 200q0 109 -49 196t-135 136t-188 49q-84 0 -168 -41t-137 -109l-146 13l129 782h774v-133h-663l-82 -510q57 55 143 90t180 35q138 0 250.5 -65.5t178 -182.5t65.5 -260 q0 -150 -69.5 -269.5t-191.5 -188t-274 -68.5q-117 0 -222 44t-179 129t-96 203z" />
<glyph unicode="6" horiz-adv-x="1251" d="M102 504q0 186 136 346l548 686h177l-459 -545q68 27 145 27q127 0 246 -65.5t193.5 -183.5t74.5 -267q0 -142 -71.5 -260.5t-194.5 -188t-266 -69.5q-141 0 -263 69.5t-194 189t-72 261.5zM240 504q0 -109 51 -197t141 -138t199 -50q112 0 203.5 51t142.5 138t51 194 q0 113 -52 204t-142.5 142t-198.5 51q-113 0 -203 -52t-141 -142.5t-51 -200.5z" />
<glyph unicode="7" horiz-adv-x="1128" d="M109 1403v133h1015v-86l-821 -1450h-164l809 1403h-839z" />
<glyph unicode="8" horiz-adv-x="1187" d="M115 440q0 137 73.5 246t196.5 164q-90 47 -137 133t-47 197q0 104 52 190t142 136t201 50q109 0 199 -50t141 -136t51 -190q0 -111 -47 -197t-135 -133q123 -55 196.5 -163.5t73.5 -246.5q0 -127 -63.5 -232.5t-174 -166.5t-243.5 -61q-131 0 -241.5 61t-174 166.5 t-63.5 232.5zM254 449q0 -92 46 -172t124 -127.5t170 -47.5q94 0 172 47.5t123 127t45 172.5q0 94 -45 171.5t-123 122.5t-172 45q-92 0 -171 -45t-124 -122.5t-45 -171.5zM330 1159q0 -109 76.5 -185.5t189.5 -76.5q109 0 185.5 77t76.5 185q0 111 -76.5 187.5t-185.5 76.5 q-113 0 -189.5 -76.5t-76.5 -187.5z" />
<glyph unicode="9" horiz-adv-x="1267" d="M102 1032q0 135 67 252t182.5 188.5t254.5 79.5q150 8 278 -60.5t203.5 -190t75.5 -269.5q0 -186 -133 -346l-549 -686h-176l461 547q-74 -29 -150 -29q-127 0 -245.5 64.5t-193.5 182.5t-75 267zM238 1034q0 -113 52 -204t142 -142t201 -51q112 0 202.5 52t140.5 142.5 t50 198.5q0 111 -51 199t-140.5 138t-197.5 50q-113 0 -205 -50t-143 -138t-51 -195z" />
<glyph unicode=":" horiz-adv-x="620" d="M211 80q0 41 29.5 70.5t70.5 29.5t71 -29.5t30 -70.5t-30 -70.5t-71 -29.5t-70.5 29.5t-29.5 70.5zM211 944q0 41 29.5 70.5t70.5 29.5t71 -29.5t30 -70.5t-30 -70.5t-71 -29.5t-70.5 29.5t-29.5 70.5z" />
<glyph unicode=";" horiz-adv-x="667" d="M92 -387l242 541l129 -56l-277 -526zM238 944q0 41 29.5 70.5t70.5 29.5t71.5 -29.5t30.5 -70.5t-30.5 -70.5t-71.5 -29.5t-70.5 29.5t-29.5 70.5z" />
<glyph unicode="&#x3c;" horiz-adv-x="1538" d="M205 625v125l1130 567v-117l-1018 -514l1018 -514v-119z" />
<glyph unicode="=" horiz-adv-x="1513" d="M143 303v96h1229v-96h-1229zM143 686v96h1229v-96h-1229z" />
<glyph unicode="&#x3e;" horiz-adv-x="1538" d="M205 53v119l1018 514l-1018 514v117l1130 -567v-125z" />
<glyph unicode="?" horiz-adv-x="1093" d="M92 1147q4 113 60.5 203t152.5 141t215 51q123 0 221.5 -53t153.5 -146.5t55 -209.5q0 -102 -30.5 -168t-73.5 -104t-113 -79q-78 -47 -114.5 -88t-36.5 -114v-156h-123v137q0 88 25.5 144.5t63.5 87t101 67.5q61 37 96 64.5t59.5 79t24.5 129.5q0 127 -87 208.5 t-222 81.5q-125 0 -210 -77.5t-95 -198.5h-123zM428 80q0 41 30.5 70.5t69.5 29.5q41 0 71 -29.5t30 -70.5t-30 -70.5t-71 -29.5t-70.5 29.5t-29.5 70.5z" />
<glyph unicode="@" horiz-adv-x="1263" d="M143 565q0 154 70 282t190.5 202.5t264.5 74.5q109 0 198.5 -49t142 -135t52.5 -190v-445h-92v82q-35 -45 -93.5 -74.5t-111.5 -29.5q-111 0 -187.5 74.5t-76.5 183.5q0 106 76.5 181t185.5 75q57 0 116.5 -32t90.5 -79v64q0 78 -40 142t-109.5 102t-151.5 38 q-119 0 -219.5 -62.5t-159 -170t-58.5 -234.5q0 -131 67 -240.5t180.5 -172t248.5 -62.5h334v-90h-334q-162 0 -295 75t-211 205t-78 285zM602 541q0 -76 53.5 -126t132.5 -50q66 0 115 35.5t66 93.5v92q-16 57 -65.5 93t-115.5 36q-80 0 -133 -50.5t-53 -123.5z" />
<glyph unicode="A" horiz-adv-x="1398" d="M6 0l617 1536h153l617 -1536h-152l-143 367h-797l-143 -367h-152zM354 500h690l-344 876z" />
<glyph unicode="B" horiz-adv-x="1325" d="M190 0v1536h525q115 0 210 -52t151.5 -145.5t56.5 -208.5q0 -119 -56.5 -209t-156.5 -139q131 -37 208.5 -137t77.5 -242q0 -115 -55 -207t-149.5 -144t-208.5 -52h-603zM328 139h448q80 0 146.5 37t105.5 100.5t39 141.5t-39 143.5t-105.5 102t-146.5 36.5h-448v-561z M328 836h372q80 0 147.5 37.5t106.5 102t39 144.5q0 78 -39 141.5t-106.5 99.5t-147.5 36h-372v-561z" />
<glyph unicode="C" horiz-adv-x="1595" d="M164 768q0 215 105.5 396.5t286.5 286.5t396 105q150 0 300.5 -62t256.5 -169l-100 -98q-88 90 -209 140t-248 50q-178 0 -327.5 -87t-236.5 -235.5t-87 -326.5t87 -326.5t236.5 -235.5t327.5 -87q127 0 248 50t209 140l100 -98q-106 -106 -256.5 -168.5t-300.5 -62.5 q-215 0 -396 105t-286.5 286.5t-105.5 396.5z" />
<glyph unicode="D" horiz-adv-x="1499" d="M190 0v1536h406q209 0 385 -103.5t279.5 -279.5t103.5 -385t-103.5 -385t-279.5 -279.5t-385 -103.5h-406zM328 139h266q174 0 318.5 83t228.5 226.5t84 319.5t-84 319.5t-228.5 226.5t-318.5 83h-266v-1258z" />
<glyph unicode="E" horiz-adv-x="1128" d="M203 0v1536h825v-133h-688v-567h602v-136h-602v-567h688v-133h-825z" />
<glyph unicode="F" horiz-adv-x="1079" d="M203 0v1536h825v-133h-688v-567h602v-136h-602v-700h-137z" />
<glyph unicode="G" horiz-adv-x="1671" d="M135 768q0 215 105.5 396.5t287 286.5t396.5 105q150 0 300 -62t257 -169l-101 -98q-88 92 -207.5 141t-248.5 49q-178 0 -328 -87t-237 -235.5t-87 -326.5t85 -327.5t231.5 -235.5t324.5 -86q131 0 251 46t200 130v410h-430v139h569v-844h-139v121q-201 -141 -451 -141 q-215 0 -393 105t-281.5 285.5t-103.5 397.5z" />
<glyph unicode="H" horiz-adv-x="1536" d="M190 0v1536h138v-698h878v698h140v-1536h-140v700h-878v-700h-138z" />
<glyph unicode="I" horiz-adv-x="540" d="M203 0v1536h137v-1536h-137z" />
<glyph unicode="J" horiz-adv-x="757" d="M88 0v139q61 -20 154 -20q80 0 138 57t58 137v1223h137v-1223q0 -90 -45 -166.5t-121.5 -121.5t-166.5 -45q-97 0 -154 20z" />
<glyph unicode="K" horiz-adv-x="1183" d="M190 0v1536h138v-664l657 664h193l-707 -709l733 -827h-192l-684 793v-793h-138z" />
<glyph unicode="L" horiz-adv-x="927" d="M190 0v1536h138v-1397h579v-139h-717z" />
<glyph unicode="M" horiz-adv-x="1880" d="M190 0v1536h144l606 -1036l606 1036h144v-1536h-138v1286l-614 -1053l-610 1055v-1288h-138z" />
<glyph unicode="N" horiz-adv-x="1617" d="M190 0v1536h123l977 -1296v1296h137v-1536h-122l-977 1298v-1298h-138z" />
<glyph unicode="O" d="M135 768q0 215 105.5 396.5t287 286.5t396.5 105t396 -105t286.5 -286.5t105.5 -396.5t-105.5 -396.5t-286.5 -286.5t-396 -105t-396.5 105t-287 286.5t-105.5 396.5zM272 768q0 -178 87 -326.5t236.5 -235.5t328.5 -87q178 0 326.5 87t235.5 235.5t87 326.5t-87 326.5 t-235.5 235.5t-326.5 87t-328 -87t-237 -235.5t-87 -326.5z" />
<glyph unicode="P" horiz-adv-x="1193" d="M190 0v1536h533q117 0 214 -56.5t153.5 -153.5t56.5 -214q0 -115 -56.5 -211t-153.5 -152.5t-214 -56.5h-395v-692h-138zM328 825h383q127 0 212 79t85 208q0 84 -39 150.5t-107.5 103.5t-150.5 37h-383v-578z" />
<glyph unicode="Q" d="M135 768q0 215 105.5 396.5t287 286.5t396.5 105t396 -105t286.5 -286.5t105.5 -396.5q0 -201 -93 -373t-255 -281.5t-358 -129.5q30 -99 118 -155t205 -56q135 0 262 75l70 -110q-160 -96 -330 -96t-298 92t-161 248q-205 12 -373.5 120.5t-266 284.5t-97.5 381z M272 768q0 -178 87 -326.5t236.5 -235.5t328.5 -87q178 0 326.5 87t235.5 235.5t87 326.5t-87 326.5t-235.5 235.5t-326.5 87t-328 -87t-237 -235.5t-87 -326.5z" />
<glyph unicode="R" horiz-adv-x="1296" d="M190 0v1536h533q115 0 212 -56.5t154.5 -153.5t57.5 -214q0 -102 -47 -191.5t-130 -145.5t-184 -68l455 -707h-164l-442 700h-307v-700h-138zM328 834h389q125 0 208 78.5t83 201.5t-84 203t-207 80h-389v-563z" />
<glyph unicode="S" horiz-adv-x="1120" d="M78 287l127 71q41 -109 138 -174t230 -65q141 0 235.5 72.5t94.5 199.5q0 88 -46 148.5t-114.5 98.5t-187.5 89q-133 55 -215 103.5t-139.5 129t-57.5 201.5t57.5 211t154 137t210.5 47q125 0 230.5 -53t169.5 -135l-107 -92q-47 68 -121.5 104.5t-167.5 36.5 q-121 0 -203.5 -63.5t-82.5 -182.5q0 -84 45 -141t111.5 -95t181.5 -85q137 -59 220 -107.5t141 -133.5t58 -214t-63.5 -223t-170 -143t-235.5 -49q-168 0 -301 83.5t-192 223.5z" />
<glyph unicode="T" horiz-adv-x="1048" d="M27 1399v137h997v-137h-430v-1399h-139v1399h-428z" />
<glyph unicode="U" horiz-adv-x="1499" d="M182 506v1030h137v-1010q0 -115 56.5 -208t155 -146t219.5 -53t218 53t153.5 146.5t56.5 207.5v1010h139v-1030q0 -150 -74 -269.5t-204 -188t-289 -68.5q-160 0 -290 68.5t-204 188t-74 269.5z" />
<glyph unicode="V" horiz-adv-x="1398" d="M6 1536h154l540 -1376l539 1376h154l-617 -1536h-153z" />
<glyph unicode="W" horiz-adv-x="2080" d="M-10 1536h147l414 -1305l393 1305h193l395 -1307l416 1307h143l-485 -1536h-148l-418 1382l-415 -1382h-146z" />
<glyph unicode="X" horiz-adv-x="1206" d="M6 0l522 776l-512 760h166l420 -645l422 645h166l-510 -760l522 -776h-170l-428 662l-430 -662h-168z" />
<glyph unicode="Y" horiz-adv-x="1220" d="M6 1536h172l432 -666l434 666h170l-534 -809v-727h-139v727z" />
<glyph unicode="Z" horiz-adv-x="1392" d="M115 0v70l909 1327h-887v139h1102v-70l-909 -1327h944v-139h-1159z" />
<glyph unicode="[" horiz-adv-x="671" d="M190 -512v2185h383v-106h-264v-1973h264v-106h-383z" />
<glyph unicode="\" horiz-adv-x="1204" d="M-16 1700h131l1077 -2048h-131z" />
<glyph unicode="]" horiz-adv-x="671" d="M100 -406h265v1973h-265v106h383v-2185h-383v106z" />
<glyph unicode="^" horiz-adv-x="1427" d="M82 406l569 1130h125l570 -1130h-119l-512 1017l-514 -1017h-119z" />
<glyph unicode="_" horiz-adv-x="1431" d="M205 0h1024v-98h-1024v98z" />
<glyph unicode="`" horiz-adv-x="110" d="M64 1436l78 88l311 -316l-53 -61z" />
<glyph unicode="a" horiz-adv-x="1370" d="M115 512q0 145 70.5 267t190.5 193.5t257 71.5q131 0 237.5 -53t176.5 -149v182h133v-1024h-133v182q-70 -96 -176.5 -149t-237.5 -53q-137 0 -257 71.5t-190.5 193.5t-70.5 267zM250 512q0 -109 53 -201t144.5 -145t199.5 -53q109 0 201 53t145.5 145t53.5 201 t-53.5 201t-145.5 145t-201 53t-200 -53t-144 -145t-53 -201z" />
<glyph unicode="b" horiz-adv-x="1361" d="M190 0v1638h134v-786q70 90 174 141t231 51q139 0 258 -71.5t189.5 -193.5t70.5 -267t-70.5 -267t-189.5 -193.5t-258 -71.5q-127 0 -231.5 51t-173.5 141v-172h-134zM315 512q0 -109 53.5 -201t145.5 -145t201 -53q108 0 199.5 53t145.5 145t54 201t-54 201t-145.5 145 t-199.5 53q-109 0 -201 -53t-145.5 -145t-53.5 -201z" />
<glyph unicode="c" horiz-adv-x="1204" d="M115 512q0 145 71.5 267t194.5 193.5t266 71.5q158 0 288 -82.5t195 -220.5l-124 -57q-49 102 -144.5 164.5t-214.5 62.5q-111 0 -202 -53t-143 -144t-52 -202t52 -202t143.5 -144t201.5 -53q119 0 214 62.5t145 164.5l124 -57q-66 -137 -195.5 -220t-287.5 -83 q-143 0 -266 71.5t-194.5 193.5t-71.5 267z" />
<glyph unicode="d" horiz-adv-x="1361" d="M115 512q0 145 70.5 267t190.5 193.5t257 71.5q127 0 230.5 -50t174.5 -140v784h136v-1638h-136v170q-72 -90 -175 -140t-230 -50q-137 0 -257 71.5t-190.5 193.5t-70.5 267zM250 512q0 -109 53 -201t144.5 -145t199.5 -53q109 0 201 53t145.5 145t53.5 201t-53.5 201 t-145.5 145t-201 53t-200 -53t-144 -145t-53 -201z" />
<glyph unicode="e" horiz-adv-x="1294" d="M115 512q0 145 71.5 267t194.5 193.5t266 71.5t263 -68.5t193 -187t77 -264.5l-2 -28h-928q4 -106 58 -193.5t144.5 -138.5t194.5 -51q100 0 187.5 47t142.5 131l123 -53q-70 -119 -189.5 -188.5t-263.5 -69.5q-143 0 -266 71.5t-194.5 193.5t-71.5 267zM264 618h764 q-35 127 -139.5 210t-241.5 83q-135 0 -241.5 -81.5t-141.5 -211.5z" />
<glyph unicode="f" horiz-adv-x="696" d="M78 893v131h172v346q0 131 76.5 210t201.5 79q39 0 75 -8.5t56 -22.5v-137q-23 16 -55.5 27.5t-60.5 11.5q-72 0 -116 -49t-44 -127v-330h281v-131h-281v-893h-133v893h-172z" />
<glyph unicode="g" horiz-adv-x="1370" d="M115 512q0 145 71.5 268t194.5 193.5t266 70.5q117 0 219.5 -46t177.5 -130v156h136v-1018q0 -145 -72 -267t-193.5 -193.5t-267.5 -71.5q-154 0 -280.5 80.5t-194.5 214.5l113 71q49 -104 146 -168.5t216 -64.5q109 0 200 54t144 145.5t53 199.5v152q-76 -84 -178 -131 t-219 -47q-143 0 -266 71.5t-194.5 193.5t-71.5 267zM250 512q0 -109 53 -200t144.5 -145t199.5 -54q109 0 201 54t145.5 145t53.5 200t-53.5 201t-145.5 145t-201 53t-200 -53t-144 -145t-53 -201z" />
<glyph unicode="h" horiz-adv-x="1126" d="M190 0v1638h134v-708q51 53 120.5 83.5t145.5 30.5q100 0 184 -50t133 -136t49 -186v-672h-133v666q0 106 -72.5 179t-177.5 73q-102 0 -174.5 -71t-74.5 -173v-674h-134z" />
<glyph unicode="i" horiz-adv-x="518" d="M160 1317q0 43 29.5 71.5t70.5 28.5t70.5 -28.5t29.5 -71.5q0 -39 -29.5 -68.5t-70.5 -29.5t-70.5 28.5t-29.5 69.5zM193 0v1024h133v-1024h-133z" />
<glyph unicode="j" horiz-adv-x="518" d="M160 1317q0 43 29.5 71.5t70.5 28.5t70.5 -28.5t29.5 -71.5q0 -39 -29.5 -68.5t-70.5 -29.5t-70.5 28.5t-29.5 69.5zM193 -512v1536h133v-1536h-133z" />
<glyph unicode="k" horiz-adv-x="1005" d="M190 0v1638h134v-1032l444 418h182l-485 -455l528 -569h-186l-483 535v-535h-134z" />
<glyph unicode="l" horiz-adv-x="514" d="M190 0v1638h134v-1638h-134z" />
<glyph unicode="m" horiz-adv-x="1712" d="M190 0v1024h134v-109q47 61 112.5 95t138.5 34q84 0 162 -44t129 -119q51 76 132 119.5t173 43.5q101 0 186 -51t135 -139t50 -192v-662h-133v662q0 104 -69.5 176.5t-168.5 72.5q-98 0 -167.5 -72.5t-69.5 -176.5v-662h-135v662q0 104 -70 176.5t-168 72.5 q-100 0 -168.5 -71.5t-68.5 -177.5v-662h-134z" />
<glyph unicode="n" horiz-adv-x="1136" d="M190 0v1024h134v-96q51 55 121.5 85.5t148.5 30.5q102 0 187 -50t135.5 -136t50.5 -186v-672h-136v666q0 106 -73.5 179t-177.5 73q-106 0 -180 -71t-76 -173v-674h-134z" />
<glyph unicode="o" horiz-adv-x="1296" d="M115 512q0 145 71.5 267t194.5 193.5t266 71.5q145 0 267 -71.5t194 -193.5t72 -267t-72 -267t-193.5 -193.5t-267.5 -71.5q-143 0 -266 71.5t-194.5 193.5t-71.5 267zM250 512q0 -109 53 -201t144.5 -145t199.5 -53q109 0 201 53t145.5 145t53.5 201t-53.5 201 t-145.5 145t-201 53t-200 -53t-144 -145t-53 -201z" />
<glyph unicode="p" horiz-adv-x="1361" d="M190 -512v1536h134v-172q70 90 174 141t231 51q139 0 258 -71.5t189.5 -193.5t70.5 -267t-70.5 -267t-189.5 -193.5t-258 -71.5q-127 0 -231.5 51t-173.5 141v-684h-134zM315 512q0 -109 53.5 -201t145.5 -145t201 -53q108 0 199.5 53t145.5 145t54 201t-54 201 t-145.5 145t-199.5 53q-109 0 -201 -53t-145.5 -145t-53.5 -201z" />
<glyph unicode="q" horiz-adv-x="1361" d="M115 512q0 145 70.5 267t190.5 193.5t257 71.5q127 0 230.5 -50t174.5 -140v170h136v-1536h-136v682q-72 -90 -175 -140t-230 -50q-137 0 -257 71.5t-190.5 193.5t-70.5 267zM250 512q0 -109 53 -201t144.5 -145t199.5 -53q109 0 201 53t145.5 145t53.5 201t-53.5 201 t-145.5 145t-201 53t-200 -53t-144 -145t-53 -201z" />
<glyph unicode="r" horiz-adv-x="745" d="M190 0v1024h134v-176q43 94 114.5 145t169.5 51q56 0 107 -20v-137q-53 24 -101 24h-4q-80 0 -145.5 -45t-103 -121.5t-37.5 -171.5v-573h-134z" />
<glyph unicode="s" horiz-adv-x="841" d="M88 197l129 41q29 -66 85 -101t130 -35q88 0 140.5 46.5t52.5 121.5q0 66 -46.5 102t-154.5 79q-145 57 -217 124.5t-72 184.5q0 90 43 154.5t111.5 97t148.5 32.5q94 0 170 -45t109 -114l-119 -62q-23 45 -66 71t-96 26q-72 0 -119 -40t-47 -116q0 -49 23.5 -81 t62.5 -53.5t117 -51.5q90 -39 147.5 -73t98.5 -92.5t41 -144.5q0 -84 -43 -149.5t-117 -102t-162 -36.5q-119 0 -220 63t-130 154z" />
<glyph unicode="t" horiz-adv-x="690" d="M53 897v127h226v369h135v-369h223v-127h-223v-897h-135v897h-226z" />
<glyph unicode="u" horiz-adv-x="1075" d="M154 365v659h135v-645q0 -119 70.5 -192.5t179.5 -73.5q111 0 180 73.5t69 192.5v645h134v-659q0 -113 -48.5 -201t-136.5 -136t-198 -48q-113 0 -200 48t-136 136t-49 201z" />
<glyph unicode="v" horiz-adv-x="1003" d="M27 1024h143l332 -864l332 864h143l-412 -1024h-129z" />
<glyph unicode="w" horiz-adv-x="1624" d="M27 1024h149l283 -860l289 860h129l290 -866l285 866h145l-350 -1024h-149l-285 840l-285 -840h-149z" />
<glyph unicode="x" horiz-adv-x="1067" d="M27 0l426 512l-426 512h161l344 -414l345 414h163l-426 -512l426 -512h-163l-345 414l-342 -414h-163z" />
<glyph unicode="y" horiz-adv-x="1024" d="M27 1024h147l342 -868l332 868h151l-436 -1085l-180 -451h-143l202 504z" />
<glyph unicode="z" horiz-adv-x="1042" d="M72 0l620 891h-583v133h841l-622 -891h626v-133h-882z" />
<glyph unicode="{" horiz-adv-x="636" d="M123 461v98q68 35 101.5 82t42.5 106.5t9 159.5v479q0 111 56.5 187t142.5 76h78v-101q-94 0 -131 -39t-37 -139v-493q0 -131 -28.5 -217.5t-120.5 -149.5q92 -63 120.5 -149.5t28.5 -217.5v-499q0 -90 38 -131t130 -41v-105h-78q-86 0 -142.5 75t-56.5 185v486 q0 102 -10 163.5t-43 105.5t-100 79z" />
<glyph unicode="|" horiz-adv-x="602" d="M254 -307v1843h92v-1843h-92z" />
<glyph unicode="}" horiz-adv-x="636" d="M84 -401q92 0 130 41t38 131v436q0 129 28.5 216t118.5 150q-90 63 -118.5 150.5t-28.5 216.5v430q0 100 -37 139t-131 39v105h82q84 0 139 -75t55 -187v-420q0 -100 9.5 -159.5t43 -107t101.5 -81.5v-99q-68 -35 -100.5 -79t-43 -105t-10.5 -164v-422q0 -111 -56 -185.5 t-138 -74.5h-82v105z" />
<glyph unicode="~" horiz-adv-x="1206" d="M106 391q-2 96 33 172t100.5 118t149.5 42q78 0 136.5 -38t117.5 -114q45 -53 82 -79.5t90 -26.5q82 0 133 63.5t49 165.5h99q4 -92 -30 -166.5t-98.5 -117.5t-144.5 -43q-86 0 -145.5 41t-118.5 112q-45 53 -83 78t-87 25q-82 0 -133 -65.5t-49 -166.5h-101z" />
<glyph unicode="&#xa1;" horiz-adv-x="608" d="M205 924q0 41 29.5 70.5t70.5 29.5t71 -29.5t30 -70.5t-30 -71t-71 -30t-70.5 30t-29.5 71zM238 -512l12 1114h108l13 -1114h-133z" />
<glyph unicode="&#xa2;" horiz-adv-x="1136" d="M135 717q0 133 63.5 248.5t172 189.5t241.5 90v191h90v-187q147 -6 271 -90v-139q-59 53 -135 80.5t-158 27.5q-113 0 -207 -55t-149.5 -149.5t-55.5 -206.5q0 -113 55.5 -207t149.5 -149.5t207 -55.5q84 0 161 27.5t132 79.5v-138q-119 -84 -271 -90v-186h-90v190 q-133 16 -241.5 90t-172 190t-63.5 249z" />
<glyph unicode="&#xa3;" horiz-adv-x="1253" d="M94 707v96h164v299q0 131 56.5 234.5t156.5 161.5t229 58q135 0 252 -83.5t158 -212.5l-102 -46q-27 100 -115 167t-193 67q-152 0 -243.5 -95.5t-91.5 -250.5v-299h380v-96h-380v-607h778v-100h-885v707h-164z" />
<glyph unicode="&#xa4;" horiz-adv-x="1232" d="M170 377l102 100q-45 55 -68.5 124t-23.5 140q0 154 94 269l-102 98l76 80l102 -105q57 47 127 72t141 25q152 0 265 -95l102 103l76 -76l-100 -100q94 -115 94 -269q0 -72 -23.5 -141.5t-70.5 -126.5l100 -98l-74 -80l-104 104q-55 -47 -125 -70.5t-142 -23.5t-141 23.5 t-127 70.5l-102 -104zM287 741q0 -63 24.5 -123.5t69.5 -105.5q49 -49 110.5 -73.5t124.5 -24.5q66 0 126.5 25.5t107.5 72.5t70.5 106.5t23.5 124.5q0 66 -24.5 125.5t-71.5 106.5t-107.5 71.5t-124.5 24.5q-63 0 -123.5 -24.5t-109.5 -73.5q-47 -47 -71.5 -107.5 t-24.5 -124.5z" />
<glyph unicode="&#xa5;" horiz-adv-x="1384" d="M102 1536h131l457 -700l459 700h131l-528 -801v-28h436v-91h-436v-217h436v-90h-436v-309h-121v309h-426v90h426v217h-428v91h428v30z" />
<glyph unicode="&#xa6;" horiz-adv-x="602" d="M254 -307v737h92v-737h-92zM254 799v737h92v-737h-92z" />
<glyph unicode="&#xa7;" horiz-adv-x="1200" d="M129 240l125 73q37 -76 133 -124t229 -48t223.5 49.5t90.5 139.5q0 57 -41 95t-101.5 61.5t-171.5 56.5q-135 39 -220 74.5t-144 100t-59 167.5q0 106 75 182q-76 72 -75 178q0 98 58 169t152.5 106.5t200.5 35.5q117 0 221.5 -39.5t167.5 -107.5l-100 -84 q-47 47 -121 74.5t-160 27.5q-113 0 -193.5 -46t-80.5 -128q0 -57 41 -95t101.5 -61.5t170.5 -56.5q135 -39 221 -74.5t145.5 -101t59.5 -168.5q0 -100 -78 -182q78 -73 78 -184q0 -96 -64.5 -170t-172 -115t-230.5 -41q-164 0 -295 66.5t-186 169.5zM338 889 q0 -58 42 -96.5t103.5 -63t173.5 -59.5q150 -43 228 -80q45 49 45 108q0 57 -42 95t-103.5 62t-172.5 56q-12 4 -89 27t-138 51q-47 -41 -47 -100z" />
<glyph unicode="&#xa8;" horiz-adv-x="110" d="M147 1317q0 43 30 71.5t71 28.5t70.5 -28.5t29.5 -71.5q0 -39 -29.5 -68.5t-70.5 -29.5t-71 28.5t-30 69.5zM506 1317q0 43 29.5 71.5t70.5 28.5t71 -28.5t30 -71.5q0 -41 -30 -69.5t-71 -28.5t-70.5 28.5t-29.5 69.5z" />
<glyph unicode="&#xa9;" d="M135 768q0 213 106.5 394t288 287.5t394.5 106.5t394 -106.5t287.5 -287.5t106.5 -394t-106.5 -394t-287.5 -287.5t-394 -106.5t-394.5 106.5t-288 287.5t-106.5 394zM219 768q0 -193 94.5 -354.5t256 -256t354.5 -94.5q192 0 354 94.5t256 256t94 354.5t-94 354.5 t-256 256t-354 94.5q-193 0 -354.5 -94.5t-256 -256t-94.5 -354.5zM516 760q0 115 57.5 212t154.5 153.5t214 56.5q131 0 238 -76v-96l-11 -4q-45 41 -104 63.5t-121 22.5q-90 0 -166 -43t-121 -119t-45 -170q0 -92 45 -167t121 -118t166 -43q61 0 120.5 21.5t104.5 58.5h11 v-94q-100 -76 -238 -76q-117 0 -214 56.5t-154.5 152.5t-57.5 209z" />
<glyph unicode="&#xaa;" horiz-adv-x="870" d="M82 1229q0 86 42 159.5t113.5 116.5t155.5 43q82 0 147.5 -39t104.5 -104v131h96v-614h-96v131q-39 -66 -104.5 -105t-147.5 -39q-84 0 -155.5 43t-113.5 116t-42 161zM178 1229q0 -98 67.5 -167t166.5 -69q96 0 164.5 68.5t68.5 167.5q0 96 -68.5 163.5t-164.5 67.5 q-98 0 -166 -67.5t-68 -163.5z" />
<glyph unicode="&#xab;" horiz-adv-x="1277" d="M248 571l311 377h119l-311 -377l311 -376h-119zM600 571l311 377h123l-311 -377l311 -376h-123z" />
<glyph unicode="&#xac;" horiz-adv-x="1622" d="M205 772v102h1214v-626h-102v524h-1112z" />
<glyph unicode="&#xad;" horiz-adv-x="1280" d="M127 475v113h717v-113h-717z" />
<glyph unicode="&#xae;" d="M135 768q0 213 106.5 394t288 287.5t394.5 106.5t394 -106.5t287.5 -287.5t106.5 -394t-106.5 -394t-287.5 -287.5t-394 -106.5t-394.5 106.5t-288 287.5t-106.5 394zM219 768q0 -193 94.5 -354.5t256 -256t354.5 -94.5q192 0 354 94.5t256 256t94 354.5t-94 354.5 t-256 256t-354 94.5q-193 0 -354.5 -94.5t-256 -256t-94.5 -354.5zM717 367v802h258q94 0 160.5 -65.5t66.5 -159.5q0 -78 -47 -138.5t-121 -78.5l197 -360h-88l-197 352h-151v-352h-78zM795 799h180q61 0 104 42t43 103t-43 103.5t-104 42.5h-180v-291z" />
<glyph unicode="&#xaf;" horiz-adv-x="161" d="M82 1243v94h635v-94h-635z" />
<glyph unicode="&#xb0;" horiz-adv-x="1038" d="M246 1282q0 74 36.5 137.5t100 100t137.5 36.5t137.5 -36.5t100.5 -100t37 -137.5t-37 -137.5t-100.5 -100t-137.5 -36.5t-137.5 36.5t-100 100t-36.5 137.5zM324 1282q0 -82 57 -139.5t139 -57.5t138.5 57.5t56.5 139.5t-56.5 139.5t-138.5 57.5t-139 -57.5t-57 -139.5z " />
<glyph unicode="&#xb1;" horiz-adv-x="1650" d="M123 0v88h1405v-88h-1405zM123 764v96h655v369h96v-369h654v-96h-654v-369h-96v369h-655z" />
<glyph unicode="&#xb2;" horiz-adv-x="741" d="M119 778v51l92 95q158 160 217 224t81.5 103t22.5 82q0 72 -43 113t-110 43q-68 0 -113 -43t-45 -113h-76q2 100 70 161.5t168 61.5q98 0 161.5 -59t63.5 -158q0 -57 -26.5 -106t-87 -115.5t-207.5 -214.5l-58 -57h406v-68h-516z" />
<glyph unicode="&#xb3;" horiz-adv-x="755" d="M117 991l78 2q0 -63 47 -107t112 -44q66 0 113 47t47 115q0 70 -46 115.5t-114 45.5h-61v64h55q55 0 92 38t37 93q0 53 -37 88t-92 35q-51 0 -87 -34t-36 -85l-75 2q0 80 57 135t141 55t142.5 -55t58.5 -135q0 -51 -26.5 -93t-71.5 -65q63 -26 101 -80.5t38 -123.5 q0 -98 -67.5 -167t-168.5 -69q-98 0 -167.5 64.5t-69.5 158.5z" />
<glyph unicode="&#xb4;" horiz-adv-x="110" d="M68 1208l311 318l78 -88l-334 -291z" />
<glyph unicode="&#xb5;" horiz-adv-x="1206" d="M184 -512v1536h133v-627q0 -80 40 -148.5t109 -108.5t150 -40q82 0 151 40t110 108.5t41 148.5v627h135v-1024h-135v162q-55 -84 -144.5 -133t-191.5 -49q-86 0 -162 34.5t-131 96.5v-623h-105z" />
<glyph unicode="&#xb6;" horiz-adv-x="1280" d="M225 1194q0 166 96.5 254t268.5 88h151v-1843h-79v1157h-72q-172 0 -268.5 89t-96.5 255zM934 -307v1843h80v-1843h-80z" />
<glyph unicode="&#xb7;" horiz-adv-x="577" d="M205 737q0 35 25.5 59.5t58.5 24.5q35 0 59.5 -24.5t24.5 -59.5q0 -37 -24.5 -60.5t-59.5 -23.5t-59.5 23.5t-24.5 60.5z" />
<glyph unicode="&#xb8;" horiz-adv-x="139" d="M82 -406l76 33q25 -33 70.5 -54.5t88.5 -21.5q51 0 86 36t35 89q0 55 -35 86t-92 31q-35 0 -84 -16l-69 45l88 178h86l-66 -141q31 6 57 6q86 0 142.5 -53.5t56.5 -135.5q0 -88 -58.5 -148t-146.5 -60q-67 0 -136 36.5t-99 89.5z" />
<glyph unicode="&#xb9;" horiz-adv-x="456" d="M72 1468v68h194v-768h-76v700h-118z" />
<glyph unicode="&#xba;" horiz-adv-x="823" d="M82 1229q0 86 44 159.5t120 116.5t166 43t165.5 -43t119.5 -116.5t44 -159.5q0 -88 -44 -161t-119.5 -116t-165.5 -43t-166 43t-120 116t-44 161zM178 1229q0 -98 67.5 -167t166.5 -69q96 0 164.5 68.5t68.5 167.5q0 96 -68.5 163.5t-164.5 67.5q-98 0 -166 -67.5 t-68 -163.5z" />
<glyph unicode="&#xbb;" horiz-adv-x="1277" d="M246 195l311 376l-311 377h119l311 -377l-311 -376h-119zM598 195l311 376l-311 377h123l311 -377l-311 -376h-123z" />
<glyph unicode="&#xbf;" horiz-adv-x="1091" d="M143 -100q0 100 30 166.5t74 103.5t111 78q55 35 84 58.5t48.5 59t19.5 87.5v153h123v-135q0 -88 -25.5 -144.5t-63.5 -88t-102 -68.5q-59 -35 -95 -63.5t-59.5 -79t-23.5 -127.5q0 -129 86 -211t221 -82q125 0 211 77.5t97 200.5h120q-4 -113 -60 -204t-152.5 -142 t-215.5 -51q-122 0 -219.5 53t-153 146.5t-55.5 212.5zM463 952q0 41 29.5 70t70.5 29t72 -29t31 -70t-31 -70.5t-72 -29.5t-70.5 29.5t-29.5 70.5z" />
<glyph unicode="&#xc0;" horiz-adv-x="1398" d="M6 0l617 1536h153l617 -1536h-152l-143 367h-797l-143 -367h-152zM354 500h690l-344 876zM385 1948l78 88l311 -316l-53 -61z" />
<glyph unicode="&#xc1;" horiz-adv-x="1398" d="M6 0l617 1536h153l617 -1536h-152l-143 367h-797l-143 -367h-152zM354 500h690l-344 876zM604 1720l311 318l78 -88l-334 -291z" />
<glyph unicode="&#xc2;" horiz-adv-x="1398" d="M6 0l617 1536h153l617 -1536h-152l-143 367h-797l-143 -367h-152zM354 500h690l-344 876zM430 1741l200 307h138l200 -307l-73 -41l-195 256l-199 -256z" />
<glyph unicode="&#xc3;" horiz-adv-x="1398" d="M6 0l617 1536h153l617 -1536h-152l-143 367h-797l-143 -367h-152zM350 1731q0 115 56.5 188.5t150.5 73.5q109 0 184 -110q39 -61 98 -62q51 0 80 41t29 119h100q0 -115 -56 -188.5t-153 -73.5q-112 -1 -182 110q-41 63 -96 64q-51 0 -80 -46t-29 -116h-102zM354 500h690 l-344 876z" />
<glyph unicode="&#xc4;" horiz-adv-x="1398" d="M6 0l617 1536h153l617 -1536h-152l-143 367h-797l-143 -367h-152zM354 500h690l-344 876zM421 1829q0 43 30 71.5t71 28.5t70.5 -28.5t29.5 -71.5q0 -39 -29.5 -68.5t-70.5 -29.5t-71 28.5t-30 69.5zM780 1829q0 43 29.5 71.5t70.5 28.5t71 -28.5t30 -71.5 q0 -41 -30 -69.5t-71 -28.5t-70.5 28.5t-29.5 69.5z" />
<glyph unicode="&#xc5;" horiz-adv-x="1398" d="M6 0l596 1487q-47 27 -76.5 76t-29.5 104q0 84 60 143.5t144 59.5t143.5 -59.5t59.5 -143.5q0 -55 -29.5 -104.5t-76.5 -75.5l596 -1487h-152l-143 367h-797l-143 -367h-152zM354 500h690l-344 876zM573 1667q0 -53 37 -90t90 -37t89 37t36 90t-36.5 91t-88.5 38 q-53 0 -90 -38t-37 -91z" />
<glyph unicode="&#xc6;" horiz-adv-x="1734" d="M6 0l617 1536h1011v-139h-690v-559h604v-138h-604v-561h690v-139h-825v373h-500l-147 -373h-156zM362 506h447v909h-88z" />
<glyph unicode="&#xc7;" horiz-adv-x="1595" d="M164 768q0 215 105.5 396.5t286.5 286.5t396 105q150 0 300.5 -62t256.5 -169l-100 -98q-88 90 -209 140t-248 50q-178 0 -327.5 -87t-236.5 -235.5t-87 -326.5t87 -326.5t236.5 -235.5t327.5 -87q127 0 248 50t209 140l100 -98q-102 -102 -245.5 -164.5t-288.5 -66.5 l-55 -121q31 6 57 6q86 0 142.5 -53.5t56.5 -135.5q0 -88 -58.5 -148t-146.5 -60q-68 0 -136.5 36.5t-99.5 89.5l76 33q25 -33 71 -54.5t89 -21.5q51 0 86 36t35 89q0 55 -35 86t-92 31q-35 0 -84 -16l-70 45l80 160q-203 14 -369 122.5t-262 283.5t-96 380z" />
<glyph unicode="&#xc8;" horiz-adv-x="1128" d="M203 0v1536h825v-133h-688v-567h602v-136h-602v-567h688v-133h-825zM299 1948l78 88l311 -316l-53 -61z" />
<glyph unicode="&#xc9;" horiz-adv-x="1128" d="M203 0v1536h825v-133h-688v-567h602v-136h-602v-567h688v-133h-825zM518 1720l311 318l78 -88l-334 -291z" />
<glyph unicode="&#xca;" horiz-adv-x="1128" d="M203 0v1536h825v-133h-688v-567h602v-136h-602v-567h688v-133h-825zM344 1741l200 307h138l200 -307l-73 -41l-195 256l-199 -256z" />
<glyph unicode="&#xcb;" horiz-adv-x="1128" d="M203 0v1536h825v-133h-688v-567h602v-136h-602v-567h688v-133h-825zM335 1829q0 43 30 71.5t71 28.5t70.5 -28.5t29.5 -71.5q0 -39 -29.5 -68.5t-70.5 -29.5t-71 28.5t-30 69.5zM694 1829q0 43 29.5 71.5t70.5 28.5t71 -28.5t30 -71.5q0 -41 -30 -69.5t-71 -28.5 t-70.5 28.5t-29.5 69.5z" />
<glyph unicode="&#xcc;" horiz-adv-x="540" d="M-45 1948l78 88l311 -316l-53 -61zM203 0v1536h137v-1536h-137z" />
<glyph unicode="&#xcd;" horiz-adv-x="540" d="M174 1720l311 318l78 -88l-334 -291zM203 0v1536h137v-1536h-137z" />
<glyph unicode="&#xce;" horiz-adv-x="540" d="M0 1741l200 307h138l200 -307l-73 -41l-195 256l-199 -256zM203 0v1536h137v-1536h-137z" />
<glyph unicode="&#xcf;" horiz-adv-x="540" d="M-9 1829q0 43 30 71.5t71 28.5t70.5 -28.5t29.5 -71.5q0 -39 -29.5 -68.5t-70.5 -29.5t-71 28.5t-30 69.5zM203 0v1536h137v-1536h-137zM350 1829q0 43 29.5 71.5t70.5 28.5t71 -28.5t30 -71.5q0 -41 -30 -69.5t-71 -28.5t-70.5 28.5t-29.5 69.5z" />
<glyph unicode="&#xd0;" horiz-adv-x="1499" d="M29 712v99h577v-99h-577zM190 0v1536h406q209 0 385 -103.5t279.5 -279.5t103.5 -385t-103.5 -385t-279.5 -279.5t-385 -103.5h-406zM328 139h266q174 0 318.5 83t228.5 226.5t84 319.5t-84 319.5t-228.5 226.5t-318.5 83h-266v-1258z" />
<glyph unicode="&#xd1;" horiz-adv-x="1617" d="M190 0v1536h123l977 -1296v1296h137v-1536h-122l-977 1298v-1298h-138zM453 1731q0 115 56.5 188.5t150.5 73.5q109 0 184 -110q39 -61 98 -62q51 0 80 41t29 119h100q0 -115 -56 -188.5t-153 -73.5q-112 -1 -182 110q-41 63 -96 64q-51 0 -80 -46t-29 -116h-102z" />
<glyph unicode="&#xd2;" d="M135 768q0 215 105.5 396.5t287 286.5t396.5 105t396 -105t286.5 -286.5t105.5 -396.5t-105.5 -396.5t-286.5 -286.5t-396 -105t-396.5 105t-287 286.5t-105.5 396.5zM272 768q0 -178 87 -326.5t236.5 -235.5t328.5 -87q178 0 326.5 87t235.5 235.5t87 326.5t-87 326.5 t-235.5 235.5t-326.5 87t-328 -87t-237 -235.5t-87 -326.5zM609 1948l78 88l311 -316l-53 -61z" />
<glyph unicode="&#xd3;" d="M135 768q0 215 105.5 396.5t287 286.5t396.5 105t396 -105t286.5 -286.5t105.5 -396.5t-105.5 -396.5t-286.5 -286.5t-396 -105t-396.5 105t-287 286.5t-105.5 396.5zM272 768q0 -178 87 -326.5t236.5 -235.5t328.5 -87q178 0 326.5 87t235.5 235.5t87 326.5t-87 326.5 t-235.5 235.5t-326.5 87t-328 -87t-237 -235.5t-87 -326.5zM828 1720l311 318l78 -88l-334 -291z" />
<glyph unicode="&#xd4;" d="M135 768q0 215 105.5 396.5t287 286.5t396.5 105t396 -105t286.5 -286.5t105.5 -396.5t-105.5 -396.5t-286.5 -286.5t-396 -105t-396.5 105t-287 286.5t-105.5 396.5zM272 768q0 -178 87 -326.5t236.5 -235.5t328.5 -87q178 0 326.5 87t235.5 235.5t87 326.5t-87 326.5 t-235.5 235.5t-326.5 87t-328 -87t-237 -235.5t-87 -326.5zM654 1741l200 307h138l200 -307l-73 -41l-195 256l-199 -256z" />
<glyph unicode="&#xd5;" d="M135 768q0 215 105.5 396.5t287 286.5t396.5 105t396 -105t286.5 -286.5t105.5 -396.5t-105.5 -396.5t-286.5 -286.5t-396 -105t-396.5 105t-287 286.5t-105.5 396.5zM272 768q0 -178 87 -326.5t236.5 -235.5t328.5 -87q178 0 326.5 87t235.5 235.5t87 326.5t-87 326.5 t-235.5 235.5t-326.5 87t-328 -87t-237 -235.5t-87 -326.5zM574 1731q0 115 56.5 188.5t150.5 73.5q109 0 184 -110q39 -61 98 -62q51 0 80 41t29 119h100q0 -115 -56 -188.5t-153 -73.5q-112 -1 -182 110q-41 63 -96 64q-51 0 -80 -46t-29 -116h-102z" />
<glyph unicode="&#xd6;" d="M135 768q0 215 105.5 396.5t287 286.5t396.5 105t396 -105t286.5 -286.5t105.5 -396.5t-105.5 -396.5t-286.5 -286.5t-396 -105t-396.5 105t-287 286.5t-105.5 396.5zM272 768q0 -178 87 -326.5t236.5 -235.5t328.5 -87q178 0 326.5 87t235.5 235.5t87 326.5t-87 326.5 t-235.5 235.5t-326.5 87t-328 -87t-237 -235.5t-87 -326.5zM645 1829q0 43 30 71.5t71 28.5t70.5 -28.5t29.5 -71.5q0 -39 -29.5 -68.5t-70.5 -29.5t-71 28.5t-30 69.5zM1004 1829q0 43 29.5 71.5t70.5 28.5t71 -28.5t30 -71.5q0 -41 -30 -69.5t-71 -28.5t-70.5 28.5 t-29.5 69.5z" />
<glyph unicode="&#xd7;" horiz-adv-x="1521" d="M303 225l410 410l-410 409l74 78l411 -411l412 411l76 -78l-410 -409l410 -410l-76 -78l-412 412l-411 -412z" />
<glyph unicode="&#xd8;" d="M135 768q0 215 105.5 396.5t287 286.5t396.5 105q219 0 401 -108l113 160l102 -64l-117 -166q136 -110 212.5 -270t76.5 -340q0 -215 -105.5 -396.5t-286.5 -286.5t-396 -105q-217 0 -400 108l-112 -162l-105 64l117 168q-135 109 -212 268.5t-77 341.5zM272 768 q0 -147 61.5 -277.5t170.5 -220.5l741 1063q-150 84 -321 84q-178 0 -328 -87t-237 -235.5t-87 -326.5zM604 203q150 -84 320 -84q178 0 326.5 87t235.5 235.5t87 326.5q0 147 -60.5 276.5t-169.5 219.5z" />
<glyph unicode="&#xd9;" horiz-adv-x="1499" d="M182 506v1030h137v-1010q0 -115 56.5 -208t155 -146t219.5 -53t218 53t153.5 146.5t56.5 207.5v1010h139v-1030q0 -150 -74 -269.5t-204 -188t-289 -68.5q-160 0 -290 68.5t-204 188t-74 269.5zM434 1948l78 88l311 -316l-53 -61z" />
<glyph unicode="&#xda;" horiz-adv-x="1499" d="M182 506v1030h137v-1010q0 -115 56.5 -208t155 -146t219.5 -53t218 53t153.5 146.5t56.5 207.5v1010h139v-1030q0 -150 -74 -269.5t-204 -188t-289 -68.5q-160 0 -290 68.5t-204 188t-74 269.5zM654 1720l311 318l78 -88l-334 -291z" />
<glyph unicode="&#xdb;" horiz-adv-x="1499" d="M182 506v1030h137v-1010q0 -115 56.5 -208t155 -146t219.5 -53t218 53t153.5 146.5t56.5 207.5v1010h139v-1030q0 -150 -74 -269.5t-204 -188t-289 -68.5q-160 0 -290 68.5t-204 188t-74 269.5zM479 1741l200 307h138l200 -307l-73 -41l-195 256l-199 -256z" />
<glyph unicode="&#xdc;" horiz-adv-x="1499" d="M182 506v1030h137v-1010q0 -115 56.5 -208t155 -146t219.5 -53t218 53t153.5 146.5t56.5 207.5v1010h139v-1030q0 -150 -74 -269.5t-204 -188t-289 -68.5q-160 0 -290 68.5t-204 188t-74 269.5zM471 1829q0 43 30 71.5t71 28.5t70.5 -28.5t29.5 -71.5q0 -39 -29.5 -68.5 t-70.5 -29.5t-71 28.5t-30 69.5zM830 1829q0 43 29.5 71.5t70.5 28.5t71 -28.5t30 -71.5q0 -41 -30 -69.5t-71 -28.5t-70.5 28.5t-29.5 69.5z" />
<glyph unicode="&#xdd;" horiz-adv-x="1220" d="M6 1536h172l432 -666l434 666h170l-534 -809v-727h-139v727zM516 1720l311 318l78 -88l-334 -291z" />
<glyph unicode="&#xde;" horiz-adv-x="1243" d="M205 0v1526h133v-201h399q115 0 211 -56.5t153.5 -154.5t57.5 -213t-57.5 -211t-153.5 -152.5t-211 -56.5h-399v-481h-133zM338 616h387q127 0 211 81t84 206t-84 207t-211 82h-387v-576z" />
<glyph unicode="&#xdf;" horiz-adv-x="1376" d="M205 0v1108q0 123 61.5 220t168 152.5t239.5 55.5q129 0 232.5 -53t161.5 -148.5t58 -212.5q0 -104 -47 -194t-129 -148q119 -49 191.5 -153.5t72.5 -233.5q0 -115 -53 -204t-144 -139t-200 -50h-303v139h281q119 0 200.5 71t81.5 189q0 82 -41 152t-111.5 109.5 t-154.5 39.5h-127v115h53q82 0 152 40t109.5 110.5t39.5 154.5q0 127 -90 211t-231 84q-94 0 -172 -40t-122 -110.5t-44 -156.5v-1108h-133z" />
<glyph unicode="&#xe0;" horiz-adv-x="1370" d="M115 512q0 145 70.5 267t190.5 193.5t257 71.5q131 0 237.5 -53t176.5 -149v182h133v-1024h-133v182q-70 -96 -176.5 -149t-237.5 -53q-137 0 -257 71.5t-190.5 193.5t-70.5 267zM250 512q0 -109 53 -201t144.5 -145t199.5 -53q109 0 201 53t145.5 145t53.5 201 t-53.5 201t-145.5 145t-201 53t-200 -53t-144 -145t-53 -201zM332 1436l78 88l311 -316l-53 -61z" />
<glyph unicode="&#xe1;" horiz-adv-x="1370" d="M115 512q0 145 70.5 267t190.5 193.5t257 71.5q131 0 237.5 -53t176.5 -149v182h133v-1024h-133v182q-70 -96 -176.5 -149t-237.5 -53q-137 0 -257 71.5t-190.5 193.5t-70.5 267zM250 512q0 -109 53 -201t144.5 -145t199.5 -53q109 0 201 53t145.5 145t53.5 201 t-53.5 201t-145.5 145t-201 53t-200 -53t-144 -145t-53 -201zM551 1208l311 318l78 -88l-334 -291z" />
<glyph unicode="&#xe2;" horiz-adv-x="1370" d="M115 512q0 145 70.5 267t190.5 193.5t257 71.5q131 0 237.5 -53t176.5 -149v182h133v-1024h-133v182q-70 -96 -176.5 -149t-237.5 -53q-137 0 -257 71.5t-190.5 193.5t-70.5 267zM250 512q0 -109 53 -201t144.5 -145t199.5 -53q109 0 201 53t145.5 145t53.5 201 t-53.5 201t-145.5 145t-201 53t-200 -53t-144 -145t-53 -201zM377 1229l200 307h138l200 -307l-73 -41l-195 256l-199 -256z" />
<glyph unicode="&#xe3;" horiz-adv-x="1370" d="M115 512q0 145 70.5 267t190.5 193.5t257 71.5q131 0 237.5 -53t176.5 -149v182h133v-1024h-133v182q-70 -96 -176.5 -149t-237.5 -53q-137 0 -257 71.5t-190.5 193.5t-70.5 267zM250 512q0 -109 53 -201t144.5 -145t199.5 -53q109 0 201 53t145.5 145t53.5 201 t-53.5 201t-145.5 145t-201 53t-200 -53t-144 -145t-53 -201zM297 1219q0 115 56.5 188.5t150.5 73.5q109 0 184 -110q39 -61 98 -62q51 0 80 41t29 119h100q0 -115 -56 -188.5t-153 -73.5q-112 -1 -182 110q-41 63 -96 64q-51 0 -80 -46t-29 -116h-102z" />
<glyph unicode="&#xe4;" horiz-adv-x="1370" d="M115 512q0 145 70.5 267t190.5 193.5t257 71.5q131 0 237.5 -53t176.5 -149v182h133v-1024h-133v182q-70 -96 -176.5 -149t-237.5 -53q-137 0 -257 71.5t-190.5 193.5t-70.5 267zM250 512q0 -109 53 -201t144.5 -145t199.5 -53q109 0 201 53t145.5 145t53.5 201 t-53.5 201t-145.5 145t-201 53t-200 -53t-144 -145t-53 -201zM368 1317q0 43 30 71.5t71 28.5t70.5 -28.5t29.5 -71.5q0 -39 -29.5 -68.5t-70.5 -29.5t-71 28.5t-30 69.5zM727 1317q0 43 29.5 71.5t70.5 28.5t71 -28.5t30 -71.5q0 -41 -30 -69.5t-71 -28.5t-70.5 28.5 t-29.5 69.5z" />
<glyph unicode="&#xe5;" horiz-adv-x="1370" d="M115 512q0 145 70.5 267t190.5 193.5t257 71.5q131 0 237.5 -53t176.5 -149v182h133v-1024h-133v182q-70 -96 -176.5 -149t-237.5 -53q-137 0 -257 71.5t-190.5 193.5t-70.5 267zM250 512q0 -109 53 -201t144.5 -145t199.5 -53q109 0 201 53t145.5 145t53.5 201 t-53.5 201t-145.5 145t-201 53t-200 -53t-144 -145t-53 -201zM443 1329q0 84 60 143.5t144 59.5t143.5 -59.5t59.5 -143.5t-60.5 -144.5t-142.5 -60.5q-84 0 -144 60.5t-60 144.5zM520 1329q0 -53 37 -90t90 -37q54 0 89.5 37t35.5 90t-36.5 91t-88.5 38q-53 0 -90 -38 t-37 -91z" />
<glyph unicode="&#xe6;" horiz-adv-x="2017" d="M115 303q0 147 106.5 234.5t282.5 87.5h330v47q0 113 -77 187.5t-196 74.5q-92 0 -169 -48t-103 -120l-133 43q39 104 151.5 169.5t255.5 65.5q131 0 231.5 -59t143.5 -162q76 102 188.5 161.5t243.5 59.5q143 0 263 -68.5t192.5 -187t77.5 -264.5l-2 -28h-928 q4 -106 58 -193.5t144.5 -138.5t194.5 -51q100 0 187.5 47t142.5 131l123 -53q-70 -119 -190 -188.5t-263 -69.5q-133 0 -247.5 61t-188.5 166q-102 -104 -222 -165.5t-225 -61.5q-106 0 -191 40.5t-133 114.5t-48 168zM250 299q0 -88 64.5 -142.5t172.5 -54.5 q88 0 193.5 60.5t191.5 161.5q-33 86 -34 176h-334q-119 0 -186.5 -53.5t-67.5 -147.5zM987 618h764q-35 127 -139.5 210t-241.5 83q-135 0 -241.5 -81.5t-141.5 -211.5z" />
<glyph unicode="&#xe7;" horiz-adv-x="1204" d="M115 512q0 145 71.5 267t194.5 193.5t266 71.5q158 0 288 -82.5t195 -220.5l-124 -57q-49 102 -144.5 164.5t-214.5 62.5q-111 0 -202 -53t-143 -144t-52 -202t52 -202t143.5 -144t201.5 -53q119 0 214 62.5t145 164.5l124 -57q-61 -127 -178.5 -209t-263.5 -92l-57 -123 q31 6 57 6q86 0 142.5 -53.5t56.5 -135.5q0 -88 -58.5 -148t-146.5 -60q-68 0 -136.5 36.5t-99.5 89.5l76 33q25 -33 71 -54.5t89 -21.5q51 0 86 36t35 89q0 55 -35 86t-92 31q-35 0 -84 -16l-70 45l80 160q-135 10 -246.5 83.5t-176 191.5t-64.5 255z" />
<glyph unicode="&#xe8;" horiz-adv-x="1294" d="M115 512q0 145 71.5 267t194.5 193.5t266 71.5t263 -68.5t193 -187t77 -264.5l-2 -28h-928q4 -106 58 -193.5t144.5 -138.5t194.5 -51q100 0 187.5 47t142.5 131l123 -53q-70 -119 -189.5 -188.5t-263.5 -69.5q-143 0 -266 71.5t-194.5 193.5t-71.5 267zM264 618h764 q-35 127 -139.5 210t-241.5 83q-135 0 -241.5 -81.5t-141.5 -211.5zM340 1448l78 88l311 -316l-53 -61z" />
<glyph unicode="&#xe9;" horiz-adv-x="1294" d="M115 512q0 145 71.5 267t194.5 193.5t266 71.5t263 -68.5t193 -187t77 -264.5l-2 -28h-928q4 -106 58 -193.5t144.5 -138.5t194.5 -51q100 0 187.5 47t142.5 131l123 -53q-70 -119 -189.5 -188.5t-263.5 -69.5q-143 0 -266 71.5t-194.5 193.5t-71.5 267zM264 618h764 q-35 127 -139.5 210t-241.5 83q-135 0 -241.5 -81.5t-141.5 -211.5zM559 1220l311 318l78 -88l-334 -291z" />
<glyph unicode="&#xea;" horiz-adv-x="1294" d="M115 512q0 145 71.5 267t194.5 193.5t266 71.5t263 -68.5t193 -187t77 -264.5l-2 -28h-928q4 -106 58 -193.5t144.5 -138.5t194.5 -51q100 0 187.5 47t142.5 131l123 -53q-70 -119 -189.5 -188.5t-263.5 -69.5q-143 0 -266 71.5t-194.5 193.5t-71.5 267zM264 618h764 q-35 127 -139.5 210t-241.5 83q-135 0 -241.5 -81.5t-141.5 -211.5zM385 1241l200 307h138l200 -307l-73 -41l-195 256l-199 -256z" />
<glyph unicode="&#xeb;" horiz-adv-x="1294" d="M115 512q0 145 71.5 267t194.5 193.5t266 71.5t263 -68.5t193 -187t77 -264.5l-2 -28h-928q4 -106 58 -193.5t144.5 -138.5t194.5 -51q100 0 187.5 47t142.5 131l123 -53q-70 -119 -189.5 -188.5t-263.5 -69.5q-143 0 -266 71.5t-194.5 193.5t-71.5 267zM264 618h764 q-35 127 -139.5 210t-241.5 83q-135 0 -241.5 -81.5t-141.5 -211.5zM376 1329q0 43 30 71.5t71 28.5t70.5 -28.5t29.5 -71.5q0 -39 -29.5 -68.5t-70.5 -29.5t-71 28.5t-30 69.5zM735 1329q0 43 29.5 71.5t70.5 28.5t71 -28.5t30 -71.5q0 -41 -30 -69.5t-71 -28.5t-70.5 28.5 t-29.5 69.5z" />
<glyph unicode="&#xec;" horiz-adv-x="540" d="M-45 1436l78 88l311 -316l-53 -61zM203 0v1024h135v-1024h-135z" />
<glyph unicode="&#xed;" horiz-adv-x="540" d="M174 1208l311 318l78 -88l-334 -291zM203 0v1024h135v-1024h-135z" />
<glyph unicode="&#xee;" horiz-adv-x="540" d="M0 1229l200 307h138l200 -307l-73 -41l-195 256l-199 -256zM203 0v1024h135v-1024h-135z" />
<glyph unicode="&#xef;" horiz-adv-x="540" d="M-9 1317q0 43 30 71.5t71 28.5t70.5 -28.5t29.5 -71.5q0 -39 -29.5 -68.5t-70.5 -29.5t-71 28.5t-30 69.5zM203 0v1024h135v-1024h-135zM350 1317q0 43 29.5 71.5t70.5 28.5t71 -28.5t30 -71.5q0 -41 -30 -69.5t-71 -28.5t-70.5 28.5t-29.5 69.5z" />
<glyph unicode="&#xf0;" horiz-adv-x="1308" d="M115 512q0 145 73.5 267t199.5 193.5t274 71.5q98 0 188 -32.5t162 -91.5q-78 242 -244 383l-115 -146l-71 55l112 144q-145 90 -321 94l22 111q199 0 373 -113l96 121l70 -53l-94 -121q170 -142 269 -374.5t99 -508.5q0 -145 -73.5 -267t-199.5 -193.5t-273 -71.5 t-273.5 71.5t-200 193.5t-73.5 267zM262 512q0 -109 53.5 -201t144.5 -145t202 -53q108 0 199 53t144.5 145t53.5 201t-53.5 201t-144.5 145t-199 53q-111 0 -202 -53t-144.5 -145t-53.5 -201z" />
<glyph unicode="&#xf1;" horiz-adv-x="1136" d="M190 0v1024h134v-96q51 55 121.5 85.5t148.5 30.5q102 0 187 -50t135.5 -136t50.5 -186v-672h-136v666q0 106 -73.5 179t-177.5 73q-106 0 -180 -71t-76 -173v-674h-134zM232 1219q0 115 56.5 188.5t150.5 73.5q109 0 184 -110q39 -61 98 -62q51 0 80 41t29 119h100 q0 -115 -56 -188.5t-153 -73.5q-112 -1 -182 110q-41 63 -96 64q-51 0 -80 -46t-29 -116h-102z" />
<glyph unicode="&#xf2;" horiz-adv-x="1296" d="M115 512q0 145 71.5 267t194.5 193.5t266 71.5q145 0 267 -71.5t194 -193.5t72 -267t-72 -267t-193.5 -193.5t-267.5 -71.5q-143 0 -266 71.5t-194.5 193.5t-71.5 267zM250 512q0 -109 53 -201t144.5 -145t199.5 -53q109 0 201 53t145.5 145t53.5 201t-53.5 201 t-145.5 145t-201 53t-200 -53t-144 -145t-53 -201zM332 1436l78 88l311 -316l-53 -61z" />
<glyph unicode="&#xf3;" horiz-adv-x="1296" d="M115 512q0 145 71.5 267t194.5 193.5t266 71.5q145 0 267 -71.5t194 -193.5t72 -267t-72 -267t-193.5 -193.5t-267.5 -71.5q-143 0 -266 71.5t-194.5 193.5t-71.5 267zM250 512q0 -109 53 -201t144.5 -145t199.5 -53q109 0 201 53t145.5 145t53.5 201t-53.5 201 t-145.5 145t-201 53t-200 -53t-144 -145t-53 -201zM551 1208l311 318l78 -88l-334 -291z" />
<glyph unicode="&#xf4;" horiz-adv-x="1296" d="M115 512q0 145 71.5 267t194.5 193.5t266 71.5q145 0 267 -71.5t194 -193.5t72 -267t-72 -267t-193.5 -193.5t-267.5 -71.5q-143 0 -266 71.5t-194.5 193.5t-71.5 267zM250 512q0 -109 53 -201t144.5 -145t199.5 -53q109 0 201 53t145.5 145t53.5 201t-53.5 201 t-145.5 145t-201 53t-200 -53t-144 -145t-53 -201zM377 1229l200 307h138l200 -307l-73 -41l-195 256l-199 -256z" />
<glyph unicode="&#xf5;" horiz-adv-x="1296" d="M115 512q0 145 71.5 267t194.5 193.5t266 71.5q145 0 267 -71.5t194 -193.5t72 -267t-72 -267t-193.5 -193.5t-267.5 -71.5q-143 0 -266 71.5t-194.5 193.5t-71.5 267zM250 512q0 -109 53 -201t144.5 -145t199.5 -53q109 0 201 53t145.5 145t53.5 201t-53.5 201 t-145.5 145t-201 53t-200 -53t-144 -145t-53 -201zM297 1219q0 115 56.5 188.5t150.5 73.5q109 0 184 -110q39 -61 98 -62q51 0 80 41t29 119h100q0 -115 -56 -188.5t-153 -73.5q-112 -1 -182 110q-41 63 -96 64q-51 0 -80 -46t-29 -116h-102z" />
<glyph unicode="&#xf6;" horiz-adv-x="1296" d="M115 512q0 145 71.5 267t194.5 193.5t266 71.5q145 0 267 -71.5t194 -193.5t72 -267t-72 -267t-193.5 -193.5t-267.5 -71.5q-143 0 -266 71.5t-194.5 193.5t-71.5 267zM250 512q0 -109 53 -201t144.5 -145t199.5 -53q109 0 201 53t145.5 145t53.5 201t-53.5 201 t-145.5 145t-201 53t-200 -53t-144 -145t-53 -201zM368 1317q0 43 30 71.5t71 28.5t70.5 -28.5t29.5 -71.5q0 -39 -29.5 -68.5t-70.5 -29.5t-71 28.5t-30 69.5zM727 1317q0 43 29.5 71.5t70.5 28.5t71 -28.5t30 -71.5q0 -41 -30 -69.5t-71 -28.5t-70.5 28.5t-29.5 69.5z" />
<glyph unicode="&#xf7;" horiz-adv-x="1513" d="M143 522v82h1229v-82h-1229zM664 215q0 37 28.5 64.5t65.5 27.5t65.5 -27.5t28.5 -64.5q0 -39 -28.5 -65.5t-65.5 -26.5t-65.5 26.5t-28.5 65.5zM664 911q0 37 28.5 65t65.5 28t65.5 -28t28.5 -65q0 -39 -28.5 -65.5t-65.5 -26.5t-65.5 26.5t-28.5 65.5z" />
<glyph unicode="&#xf8;" horiz-adv-x="1296" d="M115 512q0 145 71.5 267t194.5 193.5t266 71.5q145 0 268 -71l101 141l74 -45l-103 -147q90 -74 141.5 -180.5t51.5 -229.5q0 -145 -72 -267t-193.5 -193.5t-267.5 -71.5q-143 0 -266 71l-100 -143l-76 45l104 147q-90 76 -142 182.5t-52 229.5zM250 512q0 -90 36 -168 t99 -133l455 651q-92 49 -193 49q-109 0 -200 -53t-144 -145t-53 -201zM457 162q92 -49 190 -49q109 0 201 53t145.5 145t53.5 201q0 88 -36 166t-100 135z" />
<glyph unicode="&#xf9;" horiz-adv-x="1075" d="M154 365v659h135v-645q0 -119 70.5 -192.5t179.5 -73.5q111 0 180 73.5t69 192.5v645h134v-659q0 -113 -48.5 -201t-136.5 -136t-198 -48q-113 0 -200 48t-136 136t-49 201zM224 1436l78 88l311 -316l-53 -61z" />
<glyph unicode="&#xfa;" horiz-adv-x="1075" d="M154 365v659h135v-645q0 -119 70.5 -192.5t179.5 -73.5q111 0 180 73.5t69 192.5v645h134v-659q0 -113 -48.5 -201t-136.5 -136t-198 -48q-113 0 -200 48t-136 136t-49 201zM443 1208l311 318l78 -88l-334 -291z" />
<glyph unicode="&#xfb;" horiz-adv-x="1075" d="M154 365v659h135v-645q0 -119 70.5 -192.5t179.5 -73.5q111 0 180 73.5t69 192.5v645h134v-659q0 -113 -48.5 -201t-136.5 -136t-198 -48q-113 0 -200 48t-136 136t-49 201zM269 1229l200 307h138l200 -307l-73 -41l-195 256l-199 -256z" />
<glyph unicode="&#xfc;" horiz-adv-x="1075" d="M154 365v659h135v-645q0 -119 70.5 -192.5t179.5 -73.5q111 0 180 73.5t69 192.5v645h134v-659q0 -113 -48.5 -201t-136.5 -136t-198 -48q-113 0 -200 48t-136 136t-49 201zM260 1317q0 43 30 71.5t71 28.5t70.5 -28.5t29.5 -71.5q0 -39 -29.5 -68.5t-70.5 -29.5 t-71 28.5t-30 69.5zM619 1317q0 43 29.5 71.5t70.5 28.5t71 -28.5t30 -71.5q0 -41 -30 -69.5t-71 -28.5t-70.5 28.5t-29.5 69.5z" />
<glyph unicode="&#xfd;" horiz-adv-x="1024" d="M27 1024h147l342 -868l332 868h151l-436 -1085l-180 -451h-143l202 504zM416 1208l311 318l78 -88l-334 -291z" />
<glyph unicode="&#xfe;" horiz-adv-x="1366" d="M195 -510v2122h133v-760q70 90 174 141t231 51q139 0 258 -71.5t189.5 -193.5t70.5 -267t-70.5 -267t-189.5 -193.5t-258 -71.5q-127 0 -231.5 51t-173.5 141v-682h-133zM319 512q0 -109 53.5 -201t145.5 -145t201 -53q108 0 199.5 53t144.5 145t53 201t-53 201 t-144.5 145t-199.5 53q-109 0 -201 -53t-145.5 -145t-53.5 -201z" />
<glyph unicode="&#xff;" horiz-adv-x="1024" d="M27 1024h147l342 -868l332 868h151l-436 -1085l-180 -451h-143l202 504zM233 1317q0 43 30 71.5t71 28.5t70.5 -28.5t29.5 -71.5q0 -39 -29.5 -68.5t-70.5 -29.5t-71 28.5t-30 69.5zM592 1317q0 43 29.5 71.5t70.5 28.5t71 -28.5t30 -71.5q0 -41 -30 -69.5t-71 -28.5 t-70.5 28.5t-29.5 69.5z" />
<glyph unicode="&#x152;" horiz-adv-x="2502" d="M135 768q0 215 105.5 396.5t287 286.5t396.5 105q209 0 387 -101t284 -273v354h807v-133h-690v-567h604v-136h-604v-567h690v-133h-807v354q-106 -172 -284 -273t-387 -101q-215 0 -396.5 105t-287 286.5t-105.5 396.5zM268 768q0 -178 88 -328.5t238.5 -238.5t329.5 -88 q178 0 327.5 88t237.5 238.5t88 328.5t-88 328.5t-237.5 238.5t-327.5 88t-329 -88t-239 -238.5t-88 -328.5z" />
<glyph unicode="&#x153;" horiz-adv-x="2230" d="M115 512q0 145 71.5 267t194.5 193.5t266 71.5q150 0 275 -75.5t194 -202.5q70 127 195 202.5t272 75.5q143 0 263 -68.5t192.5 -187t77.5 -264.5l-2 -28h-928q4 -106 58 -193.5t144.5 -138.5t194.5 -51q100 0 187.5 47t142.5 131l123 -53q-70 -119 -190 -188.5 t-263 -69.5q-147 0 -272 75.5t-195 202.5q-70 -127 -194.5 -202.5t-274.5 -75.5q-143 0 -266 71.5t-194.5 193.5t-71.5 267zM242 512q0 -111 54 -204t147.5 -147.5t203.5 -54.5q107 0 196 49.5t145 135.5t63 190v31v31q-6 104 -62.5 190t-145.5 135.5t-196 49.5 q-111 0 -204 -54.5t-147 -147.5t-54 -204zM1200 618h764q-35 127 -139.5 210t-241.5 83q-135 0 -241.5 -81.5t-141.5 -211.5z" />
<glyph unicode="&#x178;" horiz-adv-x="1220" d="M6 1536h172l432 -666l434 666h170l-534 -809v-727h-139v727zM333 1829q0 43 30 71.5t71 28.5t70.5 -28.5t29.5 -71.5q0 -39 -29.5 -68.5t-70.5 -29.5t-71 28.5t-30 69.5zM692 1829q0 43 29.5 71.5t70.5 28.5t71 -28.5t30 -71.5q0 -41 -30 -69.5t-71 -28.5t-70.5 28.5 t-29.5 69.5z" />
<glyph unicode="&#x2c6;" horiz-adv-x="110" d="M113 1229l200 307h138l200 -307l-73 -41l-195 256l-199 -256z" />
<glyph unicode="&#x2dc;" horiz-adv-x="141" d="M70 1280q0 115 56.5 188.5t150.5 73.5q109 0 184 -110q39 -61 98 -62q51 0 80 41t29 119h100q0 -115 -56 -188.5t-153 -73.5q-112 -1 -182 110q-41 63 -96 64q-51 0 -80 -46t-29 -116h-102z" />
<glyph unicode="&#x2000;" horiz-adv-x="1024" />
<glyph unicode="&#x2001;" horiz-adv-x="2048" />
<glyph unicode="&#x2002;" horiz-adv-x="1024" />
<glyph unicode="&#x2003;" horiz-adv-x="2048" />
<glyph unicode="&#x2004;" horiz-adv-x="682" />
<glyph unicode="&#x2005;" horiz-adv-x="512" />
<glyph unicode="&#x2006;" horiz-adv-x="341" />
<glyph unicode="&#x2007;" horiz-adv-x="341" />
<glyph unicode="&#x2008;" horiz-adv-x="256" />
<glyph unicode="&#x2009;" horiz-adv-x="409" />
<glyph unicode="&#x200a;" horiz-adv-x="113" />
<glyph unicode="&#x2010;" horiz-adv-x="968" d="M127 479v107h717v-107h-717z" />
<glyph unicode="&#x2011;" horiz-adv-x="968" d="M127 479v107h717v-107h-717z" />
<glyph unicode="&#x2012;" horiz-adv-x="968" d="M127 479v107h717v-107h-717z" />
<glyph unicode="&#x2013;" horiz-adv-x="1275" d="M127 479v107h1024v-107h-1024z" />
<glyph unicode="&#x2014;" horiz-adv-x="2048" d="M0 479v107h2048v-107h-2048z" />
<glyph unicode="&#x2018;" horiz-adv-x="366" d="M-14 1055l225 530h108l-182 -530h-151z" />
<glyph unicode="&#x2019;" horiz-adv-x="471" d="M92 1108l182 530h152l-225 -530h-109z" />
<glyph unicode="&#x201a;" horiz-adv-x="440" d="M14 -391l242 545l129 -56l-277 -530z" />
<glyph unicode="&#x201c;" horiz-adv-x="782" d="M25 1206l225 531h108l-182 -531h-151zM352 1206l226 531h108l-182 -531h-152z" />
<glyph unicode="&#x201d;" horiz-adv-x="774" d="M94 1139l182 530h152l-225 -530h-109zM430 1139l182 530h152l-225 -530h-109z" />
<glyph unicode="&#x201e;" horiz-adv-x="749" d="M14 -391l242 545l129 -56l-277 -530zM329 -391l242 545l129 -56l-277 -530z" />
<glyph unicode="&#x2022;" horiz-adv-x="952" d="M246 662q0 94 68.5 162.5t162.5 68.5q92 0 161 -68.5t69 -162.5q0 -96 -68 -163t-162 -67t-162.5 66.5t-68.5 163.5z" />
<glyph unicode="&#x2026;" horiz-adv-x="1554" d="M100 80q0 41 31 70.5t70 29.5q41 0 70.5 -29.5t29.5 -70.5t-29.5 -70.5t-70.5 -29.5t-71 29.5t-30 70.5zM647 80q0 41 31 70.5t70 29.5q41 0 70.5 -29.5t29.5 -70.5t-29.5 -70.5t-70.5 -29.5t-71 29.5t-30 70.5zM1202 80q0 41 31 70.5t70 29.5q41 0 70.5 -29.5 t29.5 -70.5t-29.5 -70.5t-70.5 -29.5t-71 29.5t-30 70.5z" />
<glyph unicode="&#x202f;" horiz-adv-x="409" />
<glyph unicode="&#x2039;" horiz-adv-x="718" d="M125 571l311 377h119l-311 -377l311 -376h-119z" />
<glyph unicode="&#x203a;" horiz-adv-x="718" d="M164 195l311 376l-311 377h119l311 -377l-311 -376h-119z" />
<glyph unicode="&#x205f;" horiz-adv-x="512" />
<glyph unicode="&#x20ac;" horiz-adv-x="1615" d="M23 541v104h155q-10 68 -10 123q0 63 8 113h-153v102h174q47 166 157.5 296t267 203.5t334.5 73.5q117 0 236 -38.5t217 -110.5l-39 -117q-86 72 -193.5 110t-220.5 38q-147 0 -276 -58.5t-223.5 -162t-137.5 -234.5h953l-35 -102h-942q-10 -61 -10 -113q0 -57 10 -123 h866l-33 -104h-804q70 -197 242.5 -320t389.5 -123q129 0 251 49.5t214 139.5v-150q-102 -74 -223 -115.5t-242 -41.5q-176 0 -330.5 71.5t-266 199.5t-158.5 290h-178z" />
<glyph unicode="&#x2122;" horiz-adv-x="1601" d="M102 1456v80h484v-80h-199v-641h-88v641h-197zM674 815v721h96l266 -397l269 397h92v-721h-86v582l-275 -410l-274 406v-578h-88z" />
<glyph unicode="&#x25fc;" horiz-adv-x="1024" d="M0 0v1024h1024v-1024h-1024z" />
</font>
</defs>
</svg>
