<?xml version="1.0" encoding="utf-8"?>
<!-- Generator: Adobe Illustrator 23.0.6, SVG Export Plug-In . SVG Version: 6.00 Build 0)  -->
<svg version="1.1" id="Layer_1" xmlns="http://www.w3.org/2000/svg" xmlns:xlink="http://www.w3.org/1999/xlink" x="0px" y="0px"
	 viewBox="0 0 102 102" style="enable-background:new 0 0 102 102;" xml:space="preserve">
<style type="text/css">
	.st0{fill:#FFFFFF;}
</style>
<g>
	<g>
		<path class="st0" d="M95.1,3.4L8.6,9.4c-2.6,0-4.7,2.1-4.7,4.7v80.6c0,2.6,2.1,4.7,4.7,4.7h86.5c2.6,0,4.7-2.1,4.7-4.7V8.2
			C99.9,5.6,97.8,3.4,95.1,3.4z M60.1,72.3l-6.7-9.9L44.2,72L44,72.2l-15.4,0.1l0-45.5l15.6,0l0,25.7l14.2-14.8l18.7,0L63.3,52h0
			l14.2,20.2L60.1,72.3z"/>
	</g>
</g>
</svg>
