<?xml version="1.0" standalone="no"?>
<!DOCTYPE svg PUBLIC "-//W3C//DTD SVG 1.1//EN" "http://www.w3.org/Graphics/SVG/1.1/DTD/svg11.dtd" >
<svg xmlns="http://www.w3.org/2000/svg" xmlns:xlink="http://www.w3.org/1999/xlink" version="1.1">
<metadata></metadata>
<defs>
<font id="significent_regular" horiz-adv-x="722" >
<font-face units-per-em="2048" ascent="1638" descent="-410" />
<missing-glyph horiz-adv-x="569" />
<glyph horiz-adv-x="0" />
<glyph horiz-adv-x="682" />
<glyph unicode=" "  horiz-adv-x="569" />
<glyph unicode="&#x09;" horiz-adv-x="569" />
<glyph unicode="&#xa0;" horiz-adv-x="569" />
<glyph unicode="!" horiz-adv-x="391" d="M59 -70q0 26 13 62.5t34 36.5q3 0 21 -6q57 -43 57 -95q0 -37 -57 -92q-68 35 -68 94zM164 330q0 11 12 59q30 124 165 387t282.5 482t203.5 219q27 0 94.5 -41t67.5 -62q0 -8 -61 -83t-135 -162.5t-84 -100.5q-219 -285 -426 -760q1 -8 -2 -16.5t-10 -23.5t-11 -25 q-36 1 -66 45t-30 82z" />
<glyph unicode="&#x22;" horiz-adv-x="376" d="M128 846q-1 29 4.5 64.5t11.5 58.5t12 39q5 16 9.5 22.5t18.5 11.5t39 2q9 -1 16.5 -2.5t18.5 -4.5t16 -8t2 -11q-28 -38 -43 -112.5t-10 -125.5q2 -5 -4 -8t-15.5 -4t-17.5 0q-28 3 -42.5 26t-15.5 52zM264.5 821q-7.5 33 6 72.5t26.5 66t27 48.5q7 12 11 17.5 t12.5 10.5t21.5 2.5t32 -10.5q2 -1 7.5 -4t9.5 -5t10 -6t9 -7t7 -7.5t3 -7.5t-3 -8q-37 -33 -63.5 -91t-36.5 -116q2 -13 -19 -10q-11 2 -20 8q-33 14 -40.5 47z" />
<glyph unicode="#" horiz-adv-x="1103" d="M227 201q1 17 23.5 32t48.5 23t48.5 16.5t23.5 14.5q1 3 7.5 26t12 45t4.5 27q-11 -4 -63.5 -31t-63.5 -32q-7 -3 -13 4t-9.5 19.5t-5.5 24.5t-2 19q0 37 14 51q17 16 66.5 40.5t92 43.5t44.5 25q11 26 28 70t28.5 72.5t26 58t29.5 42t31 7.5q34 -13 53 -37t17 -47 q-20 -41 -29.5 -75t-24.5 -69l84 21q7 1 31.5 48.5t55 93.5t53.5 46q31 -13 52.5 -41.5t20.5 -60.5q-12 -30 -32 -60q65 19 131 19q43 0 43 -72q0 -22 -11 -55q-12 -22 -40.5 -24t-40.5 8l-173 -39l-8 -6q-6 -12 -20 -37t-24.5 -46t-14.5 -38h35q26 0 38.5 -0.5t31.5 -5 t28 -13t16 -25t7 -40.5q0 -12 -15.5 -26t-46.5 -15l-160 -8l-34 -107q-4 -11 -31.5 0.5t-42.5 26.5q-2 2 -0.5 33t-1.5 34q-74 -16 -111 -26l-10 -9q-25 -67 -27 -81l-18 -13q-24 -12 -41.5 3.5t-24.5 64.5q-34 -17 -63 -17q-12 0 -18.5 40.5t-4.5 56.5zM483 303l82 16l10 9 q11 32 37 82q-2 0 -96 -29l-4 -4z" />
<glyph unicode="$" horiz-adv-x="698" d="M0 121q0 72 99 152.5t167 80.5q38 0 66 -22q8 19 24.5 59t24.5 60q-46 17 -76 33t-58 41t-41 60t-13 83q0 73 48 145t121 126t151 92.5t146 55.5q14 17 46 86.5t61 127t41 57.5q14 0 40.5 -35.5t26.5 -50.5q-68 -117 -92 -178q82 -13 130.5 -59.5t48.5 -127.5 q0 -31 -29.5 -70t-81 -80t-97 -73.5t-101.5 -69t-72 -47.5q-6 -3 -12.5 -1.5t-11.5 5.5l-5 4l-31 -69q27 -27 42 -47.5t28.5 -62t13.5 -95.5q0 -93 -90.5 -179t-204.5 -136q-7 -21 -32.5 -87.5t-38.5 -104.5t-24.5 -93.5t-8.5 -95.5l-8 -13q-46 10 -63 35t-17 74 q0 34 28 136.5t45 131.5q-41 3 -71 10.5t-59 23t-44.5 45.5t-15.5 73zM63 98q66 -11 179 21q10 10 33 65.5t26 75.5q-62 -7 -131.5 -56t-106.5 -106zM291 639q19 -10 66.5 -34t72.5 -38l141 322q-54 -9 -158 -104t-122 -146zM391 193q115 69 135 151q-3 6 -6.5 11.5t-6 9.5 t-6.5 8.5t-6 6.5t-7 6.5t-6.5 5.5l-7.5 5l-5 4q-55 -132 -84 -208zM616 731q14 10 78 53.5t103 73.5t71 62q-96 32 -168 0q-65 -151 -84 -189z" />
<glyph unicode="%" horiz-adv-x="987" d="M-45 -76q0 66 83 196.5t206 275t259 289t246.5 250.5t163.5 148l2 7q-29 -8 -96 -28.5t-104 -29.5q-13 -9 -70.5 -87.5t-121 -161.5t-150.5 -152.5t-158 -69.5q-29 0 -50.5 26t-30.5 58t-9 62q0 69 74 183.5t175 204t167 89.5q6 0 11.5 -1.5t10 -4.5t8 -6t7 -9t5 -9 t4 -10.5l3.5 -10.5t3.5 -11.5t2.5 -9.5q3 22 22 47t39 25q9 0 21.5 -10.5t17.5 -20.5q21 6 89 24.5t100 28t85.5 26t97 33t85.5 35.5q12 6 34.5 19t39 23t18.5 10q37 0 37 -82q0 -27 -18 -45q-43 -43 -162 -157.5t-192.5 -186.5t-187.5 -188.5t-191 -202t-156.5 -185 t-128.5 -178.5q32 9 199.5 134t195.5 126q26 -13 42 -41t15 -67q-23 -41 -76.5 -108.5t-72.5 -96.5q79 25 157.5 127t98.5 190q-26 4 -76 -4q-32 23 -42.5 41.5t-10.5 40.5q0 24 30.5 35.5t61.5 11.5q50 0 79.5 -55t29.5 -109q0 -63 -56.5 -169t-140.5 -190.5t-148 -84.5 q-30 0 -52.5 18.5t-34 48t-16.5 58.5t-5 57q-28 -15 -120 -92t-173.5 -144t-93.5 -67q-32 0 -57 50.5t-25 86.5zM231 713q69 3 200 124t177 201l2 13l-12 28l-6 -16l-96 -45q-63 -39 -150.5 -139t-114.5 -166z" />
<glyph unicode="&#x26;" horiz-adv-x="1320" d="M8 49q0 62 48.5 132.5t117 127.5t137.5 104t117.5 75.5t48.5 29.5q0 138 74.5 297t187 287t255.5 213.5t270 85.5q170 0 170 -160q0 -69 -85 -180t-206 -222t-242 -213t-206 -171.5t-85 -77.5q0 -44 17.5 -108t40.5 -107q45 19 102 72t118.5 120.5t86.5 89.5 q31 -14 46 -45t15 -67q0 -29 -22.5 -73.5t-54 -87.5t-63.5 -82t-54.5 -64.5t-22.5 -26.5q46 -31 127 -31q91 0 168 41q9 4 25.5 22t30 34t14.5 16q39 -13 57 -66q-23 -118 -81.5 -176.5t-176.5 -58.5q-51 0 -101.5 21.5t-81.5 44.5t-81 67q-61 -42 -97.5 -65t-92.5 -52 t-110 -42t-110 -13q-115 0 -208 97t-93 212zM133 -14q54 -13 76 -13q74 0 187.5 41.5t183.5 87.5q-47 89 -80 207q-117 -81 -203.5 -154t-163.5 -169zM621 590q127 74 398 317.5t335 337.5q-96 8 -196 -29t-184 -104.5t-156.5 -154.5t-122.5 -182t-74 -185z" />
<glyph unicode="'" horiz-adv-x="311" d="M117.5 846q-8.5 33 5 74.5t26.5 68.5t27 51q8 13 12.5 18.5t13 11.5t21.5 5t31 -8q8 -3 16 -7t17.5 -10t13.5 -13t0 -13q-38 -37 -65 -97.5t-37 -121.5q1 -4 -3 -6.5t-10 -2.5t-13 0.5t-13 2.5q-34 14 -42.5 47z" />
<glyph unicode="(" horiz-adv-x="634" d="M68 -139q0 375 204 735.5t523 568.5q74 45 98 45q14 0 24.5 -7t16.5 -23.5t8 -24.5t6 -27q-199 -121 -374 -350t-282.5 -492.5t-125.5 -500.5q-45 -16 -71.5 8.5t-26.5 67.5z" />
<glyph unicode=")" horiz-adv-x="768" d="M-82 -156q199 121 374 350.5t282.5 493t125.5 500.5q45 16 72 -8.5t27 -67.5q0 -375 -204 -736t-523 -569q-74 -45 -99 -45q-14 0 -24.5 7t-16.5 23.5t-8 24.5t-6 27z" />
<glyph unicode="*" horiz-adv-x="765" d="M115 430q0 17 6.5 30.5t20.5 24t26 17.5t34 13.5t33.5 9.5t36 8t29.5 6q-18 62 -37 180q-2 15 2 31t17 16q18 0 33 -9t23.5 -19.5t16.5 -31.5t11 -32.5t8 -36.5t6 -29l37 38q36 37 62.5 58t43.5 21q23 0 41 -29t27 -59q-3 -25 -31 -74q11 -2 36.5 -6t39 -6.5t33.5 -10 t30.5 -17t18.5 -26t8 -38.5q0 -55 -35 -72q-65 23 -139 23l-68 -2q43 -78 107 -142q0 -26 -12 -26q-13 0 -28 6t-26 13t-28 21.5t-24.5 21.5t-24.5 24.5t-19 19.5q-44 -66 -100 -135q-21 10 -28 32t-6 38.5t9 52.5t10 47q-5 -1 -43.5 -10t-69 -15t-42.5 -6q-22 0 -33.5 27.5 t-11.5 52.5z" />
<glyph unicode="+" horiz-adv-x="753" d="M143 352q0 25 11.5 45.5t26.5 33t43 25t45 17.5t50 13.5t43 11.5q10 15 46.5 82.5t68.5 116t49 48.5q20 0 40 -37t20 -59q0 -14 -20 -63t-23 -60q231 0 231 -84q0 -29 -7.5 -48.5t-16.5 -29.5t-30 -14.5t-33 -5t-42 0.5t-41 1q-16 0 -58 -2.5t-65 -1.5q-13 -44 -41 -125 t-34 -100q-47 7 -73 42t-26 77q0 14 15 81q-12 -2 -74.5 -19t-71.5 -17q-16 0 -24.5 25t-8.5 46z" />
<glyph unicode="," horiz-adv-x="344" d="M135 172q5 14 41 41q-27 39 -22.5 65t23.5 39t45.5 12.5t43.5 -14.5q72 -60 31 -118q-40 -49 -96 -82q-11 -4 -23 2q-43 22 -43 55z" />
<glyph unicode="-" horiz-adv-x="788" d="M131 260q0 49 59 83t148.5 48.5t155 19.5t118.5 5q26 0 36 -0.5t28.5 -4t26 -10.5t14 -22t6.5 -37q0 -20 -2 -36t-12.5 -33.5t-30.5 -14.5q-111 14 -249 1t-257 -46q-18 -6 -29.5 9.5t-11.5 37.5z" />
<glyph unicode="." horiz-adv-x="288" d="M74 211q9 27 36 39.5t52 3.5q51 -27 51 -61q0 -21 -35 -56q-5 -5 -22 -2q-18 2 -39 15q-40 27 -43 61z" />
<glyph unicode="/" horiz-adv-x="569" d="M-129 -287q0 13 14.5 50.5t36 87.5t23.5 55q124 286 268 568t319.5 556t317.5 406q47 -16 55 -80q-1 -8 -8.5 -24t-20 -36t-23 -36.5t-24 -37t-16.5 -24.5q-31 -49 -114.5 -181t-127.5 -204q-101 -167 -203 -372t-211.5 -438.5t-185.5 -379.5q-100 26 -100 90z" />
<glyph unicode="0" horiz-adv-x="542" d="M31 240q0 65 37.5 176t94.5 220t137.5 189t154.5 80q38 0 63.5 -19.5t48.5 -56.5l2 2l-2 35q-4 16 -1 24t8 10l6 3q35 -21 45 -44t10 -68q0 -58 -44 -185t-108 -257.5t-145 -229.5t-145 -99q-69 0 -115.5 74t-46.5 146zM143 186l2 -45q76 18 168 136.5t155.5 247.5 t84.5 214q-12 43 -39 45q-68 -8 -138.5 -79t-120 -165t-81 -191.5t-31.5 -162.5z" />
<glyph unicode="1" horiz-adv-x="577" d="M-190 -80q0 32 25.5 66t83 72t83 53t89.5 49q12 7 18 10q116 289 282 569q-31 -28 -78 -51.5t-82 -23.5q-28 0 -43.5 24.5t-19.5 56.5q-2 10 0 16.5t5 7.5l3 1q29 -5 104 45t149.5 114t140.5 117.5t79 53.5t27 -26t16 -42q-6 -25 -114.5 -189.5t-224.5 -356t-138 -281.5 q14 2 45.5 8.5t55.5 10t46 3.5q4 0 33 0.5t42.5 0t41 -2t43 -7t33 -13.5t25.5 -21.5t8 -31.5q0 -23 -6 -41q-3 -8 -11 -14.5t-15 -9.5l-7 -3q-476 0 -699 -223q-4 -2 -16 -2t-18 22.5t-6 38.5z" />
<glyph unicode="2" horiz-adv-x="776" d="M29 -2q0 29 28.5 57t61.5 45q2 51 63.5 130.5t151.5 165t182 172.5t166.5 175.5t93.5 151.5q-76 0 -195.5 -57.5t-219.5 -145.5t-117 -162q2 -7 4 -22t2 -16q-4 -21 -33 -37q-33 31 -46 64.5t-13 80.5q0 76 65.5 164.5t158 157.5t194.5 115t172 46t101.5 -49t31.5 -123 q0 -57 -48 -138t-130 -172t-157 -166t-165.5 -159.5t-118.5 -113.5q24 6 51 6q80 -1 171 -25.5t156 -65.5t65 -83q0 -8 -10.5 -30.5t-16.5 -22.5q-3 0 -56 23.5t-139 44.5t-172 16q-94 -7 -235 -99q-1 -1 -4.5 -3.5t-5.5 -2.5q-19 0 -28 26.5t-9 51.5z" />
<glyph unicode="3" horiz-adv-x="770" d="M53 96q0 57 50 137.5t122.5 140.5t128.5 60q25 0 42 -18t22 -43l-17 -31q-12 4 -18 4q-44 0 -106 -53t-107 -122.5t-45 -113.5h18q78 0 187 65t192.5 159.5t93.5 171.5q-44 69 -98 69q-19 0 -55 -9t-53 -9q-25 0 -42.5 24.5t-17.5 51.5q0 11 74.5 88.5t159 170.5 t102.5 134l-2 4q-70 -9 -163 -63.5t-172.5 -130t-127.5 -168t-31 -166.5l-12 -15q-33 12 -49 50.5t-16 80.5q0 71 56.5 168.5t137.5 181.5t177.5 143.5t168.5 59.5q55 0 87 -46.5t32 -104.5q0 -71 -77 -179.5t-146 -156.5q69 -34 110 -98t41 -142q0 -98 -82 -207 t-198.5 -179.5t-214.5 -70.5q-65 0 -108.5 48t-43.5 114z" />
<glyph unicode="4" horiz-adv-x="753" d="M-57 330q0 29 26 55q38 40 114 119.5t121 127t107 118t111 133.5q6 8 40.5 58t64.5 93t34 43q19 0 36 -33t17 -55q0 -42 -56 -127.5t-121 -163t-143.5 -167t-98.5 -115.5q32 16 142 58.5t126 49.5q21 48 97.5 164.5t101.5 116.5q14 0 30.5 -26.5t16.5 -43.5 q0 -25 -107 -186q106 2 166.5 -27t56.5 -82v-4v-7t-0.5 -7t-1.5 -8l-2.5 -7.5t-4.5 -7.5t-7 -6.5t-9 -6t-12 -3.5q-27 32 -77 41t-93 1.5t-86 -22.5q-29 -63 -60 -190t-7 -158q2 -3 0 -10.5t-9 -16.5t-14 -12q-32 8 -49.5 44t-17.5 73q0 71 35 242q-16 -6 -121 -50.5 t-193 -80t-100 -35.5q-19 0 -36 48t-17 73z" />
<glyph unicode="5" horiz-adv-x="821" d="M-152 8q0 5 4.5 15t10.5 14q18 -7 39.5 -19t39.5 -18t48 -6q85 0 201.5 67t218.5 162.5t181.5 205t98.5 189.5q-125 0 -275 -93.5t-247 -205.5l-2 -2q-1 -2 -2.5 -4t-3.5 -4t-4 -3t-4 -1q-23 0 -60 64.5t-37 91.5q0 82 37.5 170.5t81.5 148.5t113.5 147t99.5 132 q5 -3 18.5 -10t17.5 -9t14.5 -7t16 -7t14.5 -4.5t17.5 -3t18.5 -0.5q66 0 191 25.5t179 52.5q29 -17 33 -58q-12 -42 -88 -80t-155.5 -56.5t-128.5 -18.5q-58 0 -93 26q-106 -138 -204 -317l2 -2q51 57 200.5 132t221.5 75q69 0 107 -61.5t38 -135.5q0 -87 -46.5 -191 t-124 -198.5t-170.5 -173.5t-196 -126.5t-190 -47.5q-39 0 -91.5 16.5t-96.5 51.5t-44 77z" />
<glyph unicode="6" horiz-adv-x="675" d="M-55 199q0 125 82.5 273t204 268t270 201t272.5 81q115 0 121 -119l-178 -69q-81 -34 -241 -138t-175 -153q108 55 184 55q70 0 115 -37t45 -106q0 -65 -55 -157t-133 -172t-168.5 -137t-155.5 -57q-59 0 -103.5 45.5t-64.5 105t-20 116.5zM68 78l26 -2q73 0 189 72.5 t205.5 174t89.5 173.5q-28 4 -41 4q-79 0 -171 -47.5t-159 -110.5q-79 -72 -105 -147q-1 -2 -2.5 -5.5t-2 -4.5t-2 -3.5t-2.5 -3t-3.5 -1t-5 -0.5t-6.5 1q-10 -48 -10 -84v-16z" />
<glyph unicode="7" horiz-adv-x="710" d="M16 -117q0 100 42 219.5t109.5 230.5t143.5 208t152 170q-27 -3 -76.5 -11.5t-90 -13t-77.5 -4.5q-70 0 -118 33t-48 100q0 24 10.5 50t34.5 20q42 -14 92.5 -18.5t89.5 -4t102.5 11.5t92.5 17.5t101 24.5t90 22l176 55q12 0 37 -20q24 0 39.5 -19t19.5 -39t4 -41 q-124 -60 -197 -112q-250 -173 -399 -394.5t-244 -529.5q9 -22 9 -37q0 -4 -6.5 -7t-10.5 -3l2 -2v-18h-20q-25 0 -42.5 42t-17.5 70z" />
<glyph unicode="8" horiz-adv-x="632" d="M-90 219q0 66 53.5 163.5t108.5 149.5q-2 3 -10.5 14.5t-12 17.5t-9.5 16t-8.5 19t-2.5 17q0 57 127 142.5t271 146t202 60.5q36 0 56.5 -29t31.5 -86q-16 -39 -43 -80.5t-46 -65t-62 -71t-56 -62.5q20 -27 29.5 -41t19.5 -39t10 -49q0 -50 -34 -112t-89 -119t-119 -105 t-129.5 -77t-113.5 -29q-72 0 -123 72t-51 147zM53 178q106 0 243 106t185 205q-73 25 -178 25q4 -8 4 -12q0 -3 -8.5 -7.5t-21 -9.5t-13.5 -6q-48 -26 -128 -138t-83 -163zM190 639q22 -2 72.5 -3t91 -5.5t78.5 -14.5q15 19 87 104.5t104 133.5q-208 -63 -433 -215z" />
<glyph unicode="9" horiz-adv-x="712" d="M-76 39q12 53 49 37q5 -4 12.5 -12t14.5 -13.5t14 -9.5q211 -2 461 430q7 12 32.5 51t42 69t23.5 54q-58 -49 -138 -112t-188 -138.5t-136 -75.5q-43 0 -75 55t-32 103q0 74 52 166t128 167.5t168.5 127t167.5 51.5q52 0 99.5 -25.5t78.5 -68.5q24 17 53 46t49.5 43.5 t43.5 14.5q26 0 64 -35.5t38 -56.5q0 -10 -31 -33q-69 -64 -133.5 -165.5t-110.5 -197t-124 -224t-168 -232.5q-50 -60 -117.5 -106.5t-128.5 -46.5q-44 0 -88.5 15.5t-79.5 47.5t-41 74zM168 509q2 -21 20 -34q60 39 127.5 88t177.5 133.5t123 94.5q-17 59 -131 14 q-109 -44 -214 -138q-109 -98 -103 -158z" />
<glyph unicode=":" horiz-adv-x="516" d="M170 360q0 19 14 40.5t31 21.5q26 0 48 -29.5t28 -56.5q-27 -82 -49 -82q-72 29 -72 106zM315 592q8 24 24 52t32 28q27 -11 43 -34t16 -52q0 -27 -17 -56.5t-42 -29.5q-22 0 -38 32.5t-18 59.5z" />
<glyph unicode=";" horiz-adv-x="598" d="M178 268q4 12 33 41q-38 65 -1 98q24 22 55 10q9 -4 16 -11q58 -55 24 -113q-32 -50 -76 -78q-7 -3 -18 2q-33 20 -33 51zM328 592q27 80 55 80q27 -11 43 -34t16 -52q0 -27 -17 -56.5t-42 -29.5q-22 0 -37.5 32.5t-17.5 59.5z" />
<glyph unicode="&#x3c;" horiz-adv-x="782" d="M166 440q0 22 15.5 55.5t33.5 41.5q24 13 53 22t68 17.5t55 13.5q82 23 176 68t168 96q17 0 17 -6q0 -34 -14.5 -64.5t-36 -52.5t-54.5 -44.5t-59 -35.5t-60.5 -30t-48.5 -25q183 -96 183 -183q0 -48 -34 -89.5t-73 -12.5q-40 31 -91.5 61t-84 45.5t-102 47t-91.5 41.5 q-20 9 -20 34z" />
<glyph unicode="=" horiz-adv-x="825" d="M143 308q-7 29 4 36q35 21 110 40t161.5 27t166 7t130.5 -22.5t47 -59.5q-1 -7 -3 -15.5t-7 -19.5t-11 -14t-16 0q-57 -1 -156 1.5t-161 0.5q-29 0 -114.5 -8.5t-125.5 -4.5q-18 3 -25 32zM150 571q11 22 111.5 30t192.5 5.5t130 -6.5q24 -2 34 -3.5t33.5 -5.5t35.5 -10 t26.5 -15t20 -23.5t3.5 -32.5q-4 -33 -14 -49q-284 20 -555 14q-44 44 -18 96z" />
<glyph unicode="&#x3e;" horiz-adv-x="782" d="M182 174q0 34 14.5 64.5t36 52.5t54.5 44.5t59 35.5t60.5 30t48.5 25q-183 96 -183 182q0 49 34 90.5t73 12.5q40 -31 91.5 -61t84 -45.5t102 -47t91.5 -41.5q20 -9 20 -35q0 -22 -15.5 -54.5t-33.5 -41.5q-24 -13 -53 -22t-68 -17.5t-55 -13.5q-82 -23 -176 -68 t-168 -96q-17 0 -17 6z" />
<glyph unicode="?" horiz-adv-x="559" d="M14 2q10 41 31 107q29 0 54.5 -42.5t25.5 -72.5q0 -19 -11 -42.5t-28 -23.5q-26 0 -46.5 24t-25.5 50zM66 297q0 28 30.5 91t61.5 81q75 63 186.5 144.5t199.5 146t182 143.5t171 172.5t129 198.5q-44 20 -96 20q-55 0 -167 -37.5t-214.5 -97t-116.5 -110.5l-18 -20 q-13 -11 -19 -3q-49 45 -49 98q0 62 66 129t157 115t184.5 79.5t151.5 31.5q98 0 161.5 -73t63.5 -173q0 -93 -49 -187t-121 -168.5t-176.5 -154.5t-191.5 -134t-191.5 -119t-152.5 -99q-9 -7 -53 -92t-48 -99q-40 11 -60.5 45t-20.5 72z" />
<glyph unicode="@" horiz-adv-x="1298" d="M84 248q0 116 54.5 240t147.5 229.5t206.5 190.5t241 133.5t241.5 48.5q124 0 206.5 -73t82.5 -196q0 -58 -47.5 -153.5t-115 -184t-148 -153t-138.5 -64.5q-53 0 -80.5 60t-27.5 120q-271 -233 -310 -233q-27 0 -48 40.5t-21 70.5q0 66 59.5 160t145.5 164.5t153 70.5 q55 0 102 -70q1 1 13 9.5t18.5 13t16.5 9.5t16 5q11 0 25 -23t18 -38q-4 -32 -44.5 -105t-49.5 -102l4 -2q68 29 155.5 106.5t154.5 176t67 169.5q0 32 -42 59t-110 27q-131 0 -281.5 -70.5t-273.5 -179t-205 -250.5t-82 -274q0 -87 55.5 -135.5t145.5 -48.5q356 0 721 379 q44 -13 50 -26t-13 -48q-73 -107 -188.5 -213t-260.5 -183t-264 -77q-101 0 -183.5 65.5t-124.5 160.5t-42 194zM500 426l180 139q-14 24 -61 -2t-85.5 -70.5t-33.5 -66.5z" />
<glyph unicode="A" horiz-adv-x="1939" d="M125 -84q0 20 17.5 30.5t35.5 10.5q2 0 10 4q99 62 195 127q92 63 251.5 190t211.5 166q-118 7 -186 7q-13 -1 -24 -1q-70 -2 -209 -9.5t-210 -8.5q-13 -5 -26.5 23t-21 59t-7.5 45q0 24 6 40t13.5 24.5t25 12.5t29.5 4.5t38 0.5q108 0 279.5 -16.5t308 -34t142.5 -17.5 l14 7q72 54 160 124t132.5 107t163 137.5t138.5 116.5q68 58 137 110.5t166 118.5t189 106t157 40q21 0 47.5 -15.5t38.5 -17.5q23 -4 38 -44t15 -69q0 -18 -19 -39.5t-48.5 -44.5t-34.5 -28q-72 -75 -162 -191q-226 -288 -410 -682q-2 -7 0 -10q64 -94 64 -221 q0 -147 -88.5 -304.5t-212.5 -240.5q-35 -25 -57 -25q-37 0 -77 71.5t-40 117.5q0 79 75 287t128 309q-83 30 -225.5 70t-192.5 40q-14 0 -41 -18q-36 -28 -154.5 -144.5t-232 -226.5t-230.5 -200q-116 -90 -167 -90h-1q-46 1 -97.5 77t-51.5 115zM1239 530 q198 -46 334 -112q17 25 33 57t34.5 74.5t26.5 60.5q154 322 387 570q26 26 31 32q-135 -62 -330 -233q-344 -294 -512 -444zM1464 -336q87 58 171.5 192t84.5 230q0 55 -49 111q-148 -330 -207 -533z" />
<glyph unicode="B" horiz-adv-x="1456" d="M-129 698q0 38 88 119q342 312 757.5 492t850.5 180q48 0 86.5 -1.5t87.5 -8t86 -17.5t75.5 -31.5t63 -48t40 -68.5t15.5 -93q0 -133 -94 -242q-80 -92 -236 -197t-298.5 -178t-278.5 -131q-187 -82 -264 -106q56 -39 76 -86q359 172 639 262q29 7 43 -18.5t14 -57.5 q0 -37 -33 -37q-67 0 -290 -88t-334 -145q-8 -4 -10 -12t-0.5 -23t1.5 -17q0 -101 -75.5 -204.5t-186.5 -168.5t-211 -65q-53 0 -87 38.5t-34 92.5q0 34 21.5 71.5t66 76.5t82 68t102.5 67t91.5 53t82.5 45q18 10 26 14q-40 18 -79 27q-37 9 -77 9q-2 -1 -4 -1 q-42 0 -65.5 -1.5t-68 -9.5t-53.5 -9q-20 23 -20 59q0 17 8 49q5 8 60.5 26.5t121 37.5t74.5 22q131 49 281 115t327 155t327.5 192.5t225.5 197.5q35 42 35 61q0 17 -10 27q-35 45 -113.5 73t-147.5 36t-140 8q-170 0 -354.5 -31.5t-334.5 -91.5q22 -16 34.5 -46.5 t12.5 -60.5q0 -33 -46 -119t-121 -199t-144 -213t-142.5 -202.5t-88.5 -124.5q-41 -59 -138 -206.5t-102 -166.5q-8 -28 -31 -28q-26 0 -47.5 43t-21.5 73q0 52 79.5 193.5t149.5 249.5q35 54 73 183t38 194q0 32 -11 42.5t-42 10.5q-51 0 -114.5 -30t-110 -66.5t-86 -66.5 t-48.5 -30q-19 0 -34 31t-15 53zM291 909q40 -15 64.5 -50t30.5 -76q8 -41 10 -86q1 -15 0 -29q0 -28 -3 -52q3 12 88 111q143 172 234 297q12 17 49 80.5t47 73.5q-235 -80 -520 -269zM426 -170l12 -4q7 1 20 1t24 1t20 4q75 21 151.5 66t141 113.5t84.5 140.5 q-120 -58 -254 -149t-199 -173z" />
<glyph unicode="C" horiz-adv-x="1566" d="M-20 -33q0 337 354 707q352 366 825 565q158 66 402.5 128.5t388.5 62.5q51 0 99 -50.5t74.5 -117.5t26.5 -123q0 -37 -114 -127.5t-255.5 -184t-280 -197.5t-175.5 -161q-11 -17 -13.5 -55.5t-9.5 -63.5t-30 -22q-31 0 -50.5 49t-19.5 86q0 76 33.5 146.5t90.5 128 t127 111t147.5 104t147 97t130.5 100.5t94 105h-37q-113 0 -333 -67q-263 -76 -472 -178q-116 -57 -245.5 -143t-265.5 -204t-244.5 -243.5t-178 -270.5t-69.5 -276q0 -279 313 -279q173 0 355 105q457 267 868 809q1 1 14 19.5t24 31t15 12.5q14 0 32 -28.5t15 -42.5 q-64 -110 -190 -259t-271 -290.5t-302 -261.5t-273 -170q-145 -62 -276 -62q-139 0 -248.5 73.5t-166 188.5t-56.5 248z" />
<glyph unicode="D" horiz-adv-x="1910" d="M59 553q15 87 122.5 190.5t269.5 200.5t369 188.5t416.5 159t416.5 107.5q202 39 356 39h8q65 -1 110.5 -9.5t85 -31t59.5 -66t20 -108.5q0 -109 -59.5 -233t-156 -239.5t-226 -235.5t-261 -220.5t-271 -195t-246.5 -159t-195 -112.5q-153 -81 -342 -154 q-125 -47 -127 -47q-13 0 -20 23.5t-7 40.5q0 36 14 53q11 6 23 29q4 8 9 15.5t9 12.5t11 11.5t10.5 10t12.5 11t13 10.5q169 142 191 162q11 10 21.5 21.5t25.5 30t20 24.5q27 32 104 120t117 137t99.5 126.5t101.5 148t72 140.5q58 130 70 192q3 14 23 -23q43 -78 61 -165 q6 -28 6 -47q0 -57 -70.5 -169.5t-167.5 -229t-187 -213.5t-141 -142l2 -2q119 55 212 110t217 140q69 47 171.5 125.5t235 191.5t243.5 221t188 215.5t77 174.5q0 29 -22.5 50t-58.5 30t-65.5 12.5t-56.5 3.5q-202 0 -407.5 -39t-391 -106t-376 -166t-358 -209.5 t-341.5 -245.5q-21 6 -31.5 35.5t-7.5 54.5z" />
<glyph unicode="E" horiz-adv-x="1529" d="M-254 -330q0 64 32.5 132.5t79.5 125.5t112.5 115.5t119.5 98t113 77.5q10 6 89 49.5t97 61.5q-88 10 -157.5 70t-69.5 141q0 99 50 189t133 158.5t191.5 126.5t225 98t233.5 68t216.5 41t174.5 13q49 0 101.5 -8.5t106.5 -26.5t88 -54.5t34 -84.5q0 -71 -67.5 -146.5 t-171.5 -136t-222 -110t-226.5 -76.5t-178.5 -27q-46 0 -71 47t-25 97q0 25 10.5 59.5t26.5 34.5q16 -4 25.5 -29.5t25.5 -25.5q79 0 253 49t343 121.5t221 128.5q-41 21 -119.5 32t-142.5 11q-194 0 -394 -52.5t-385 -163t-296 -260.5q-18 -24 -36 -60.5t-18 -57.5 q0 -27 57.5 -46.5t92.5 -19.5q96 0 219 35q10 3 30 9.5t32 10t28.5 6.5t30.5 3q19 0 29 -18t9 -38.5t-5 -34.5q-9 -10 -60 -40t-117 -66t-75 -41q-234 -135 -351 -228q-215 -173 -215 -313q0 -8 36 -16t50 -8q145 0 322 56t339 140t333.5 196.5t300.5 211.5t245 199 q3 3 36.5 35t62.5 57.5t33 25.5q11 0 19.5 -23.5t8.5 -37.5q0 -28 -24 -55q-289 -305 -664 -559.5t-747 -399.5q-228 -90 -375 -90q-95 0 -149 63t-54 160z" />
<glyph unicode="F" horiz-adv-x="1517" d="M231 212.5q0 13.5 1 26.5t4 23q12 40 82 99.5t154.5 112t198.5 114t179.5 94t130.5 63.5h-10q-74 0 -268 -41.5t-285 -41.5q-42 0 -56 44q-8 24 -7 47q0 20 5 40q21 76 103 145q103 85 251.5 152t319 108t339.5 68.5t353 40.5t316 17.5t270 4.5q120 0 188.5 -1.5 t172.5 -12.5t176 -33q25 -8 40 -42q10 -22 10 -43q0 -11 -3 -21q-19 -63 -65.5 -113t-84.5 -62l-18 4q-10 4 -6 13q1 1 2.5 5.5l2.5 7.5t2.5 8t2.5 8t1.5 7.5t0 7t-1.5 5.5t-3.5 4.5t-6.5 1.5q-66 6 -209 6q-240 0 -414 -4.5t-397.5 -20.5t-435 -51.5t-412.5 -91.5 q-66 -17 -177 -55t-136 -59q80 8 321 54t365 46q20 0 30 -13t8.5 -30.5t-5.5 -36.5q-6 -17 -12 -29.5t-10.5 -18.5t-8.5 -9t-6 -4h-2q-31 -15 -183.5 -88t-212.5 -103t-170.5 -89.5t-197.5 -113.5l549 150q41 44 117 119t175 168.5t186.5 159.5t121.5 67q24 -13 44 -70 q12 -35 12 -60q0 -16 -5 -28q-27 -17 -67 -52t-89 -83.5t-84 -84t-83 -86t-54 -56.5q18 -5 51 -11t48.5 -9.5t36 -14.5t27.5 -27q8 -17 8 -45q0 -27 -11 -65q-22 -76 -70 -112q-31 -24 -41 -4q-6 13 2 42q-1 10 -6 18t-15 13.5t-20.5 10t-27 8t-28.5 5.5t-31 3.5t-30 2.5 t-29 2t-24 1q-491 -593 -555 -820q-7 -27 -3 -42.5t10.5 -28.5t5.5 -17q-1 -2 -4 -6t-10 -14t-15 -23q-44 15 -70.5 55.5t-29.5 90.5q-1 9 -1 19q0 41 11 85q49 171 146 337.5t243 365.5q-79 0 -176.5 -22t-234.5 -64t-185 -54q-10 -3 -15.5 5t-5.5 21.5z" />
<glyph unicode="G" horiz-adv-x="1243" d="M-29 88q0 173 77.5 343.5t207 310t300 261t353.5 203.5t370 129t349 47q15 0 40 1t39.5 1.5t35 -1t33 -5t26.5 -11t21.5 -19.5t12.5 -30.5t5 -43.5q0 -61 -45 -109q-89 -93 -233 -228t-267.5 -258t-220.5 -241q-14 -14 -20 -14q-35 13 -53.5 49t-18.5 76q0 55 58.5 139.5 t146 170t187 170.5t182.5 146t133 91q-25 4 -76 4q-144 0 -311.5 -49t-330.5 -133t-315.5 -204t-267.5 -255t-184.5 -293.5t-69.5 -312.5q0 -117 43 -167.5t156 -50.5q74 0 144.5 28t126 72t108 106.5t90 121t71.5 125.5q-55 -5 -153.5 -63.5t-163.5 -110.5 q-7 -5 -16.5 -28.5t-20.5 -42t-24 -17.5q-22 1 -32.5 36.5t-10.5 65.5q0 59 76.5 139.5t173.5 136.5t155 56q107 0 107 -117q0 -74 -33.5 -163t-94 -173t-136.5 -154.5t-168 -113.5t-181 -43q-79 0 -151.5 38.5t-122 99.5t-78.5 136t-29 148z" />
<glyph unicode="H" horiz-adv-x="1589" d="M-279 70q5 24 135 76t280.5 107.5t180.5 74.5q24 30 60.5 95.5t52.5 88.5q56 87 207 283q-18 -6 -62 -24t-77 -27t-66 -11q-24 0 -60 38q-30 32 -30 51q0 8 5 14q8 9 28 10q66 3 254.5 87t255.5 134q16 13 112.5 103t181.5 161.5t109 73.5q32 -9 37 -74q-2 -5 -109 -130 t-226.5 -264.5t-141.5 -170.5q-130 -167 -250 -350q399 120 682 133q210 393 500 799q21 29 55 63.5t53 34.5q36 -11 77.5 -48.5t45.5 -66.5q-4 -30 -49 -80q-142 -166 -256 -331.5t-236 -374.5q54 -14 77 -39t26 -80q2 -23 -14.5 -59t-38.5 -39q-3 0 -7 0.5t-15 13.5 t-19 37q-36 2 -61.5 2.5t-41.5 -2.5q-90 -147 -252 -480t-282 -610q-107 -248 -107 -283q0 -4 2 -5q23 -19 22 -43t-24 -27q-21 -5 -49 4.5t-54.5 32t-43.5 66.5q-14 36 -14 81q0 10 1 21q6 93 97 300t193.5 395.5t200.5 362t101 179.5q-160 -26 -408 -77t-282 -81 q-90 -157 -184.5 -352.5t-102.5 -286.5q-5 -1 -10 -1q-32 0 -64 23q-36 26 -40 60v6q0 36 12 86q12 54 38 139t28 91q-32 15 -66 22q-34 6 -66 6q-10 0 -22 1q-23 0 -49 -1q-106 -7 -170 -22q-60 37 -60 84zM111 106l75 -43q5 15 17.5 41.5t17.5 38.5z" />
<glyph unicode="I" horiz-adv-x="1077" d="M-82 -233q1 25 10.5 35.5t32.5 21.5q83 -53 113 -53q54 0 112 20.5t110.5 53.5t110 85.5t105 104t102.5 122t95.5 128t89.5 133t79.5 125t72 117t59.5 96.5q17 27 54.5 81.5t66.5 100.5t45 84q-44 -12 -89 -12h-18q-65 3 -118 59q-36 38 -36 67q0 7 2 14q9 26 54 26 q72 0 217 41.5t207 78.5q21 13 75.5 58t103 76.5t83.5 31.5q47 0 47 -71q0 -42 -29 -74q-65 -74 -159.5 -142t-124.5 -98q-21 -21 -43.5 -53t-37.5 -56t-38.5 -65.5t-32.5 -56.5q-28 -47 -78.5 -141t-100 -187t-116.5 -209.5t-131 -218t-141 -201t-149.5 -170t-153 -114 t-154.5 -43.5q-52 0 -120.5 27t-122.5 76t-54 102z" />
<glyph unicode="J" horiz-adv-x="1427" d="M0 154q15 94 133 209.5t268.5 205t306.5 144.5q125 44 207 44q21 0 39 -3q51 -7 81 -54q24 -37 24 -78q0 -11 -2 -22q-5 -32 -55.5 -87.5t-120.5 -120.5t-141 -136t-125.5 -150.5t-65.5 -146.5q-3 -19 4.5 -41t7.5 -31q-2 -23 -37 12q-47 48 -67 107q-9 26 -6 45 q11 66 44 133.5t79 126t103.5 114.5t115 99.5t116.5 79.5q24 16 35 29q-11 1 -23 1q-81 0 -203 -46q-141 -52 -275 -134.5t-238 -190t-119 -197.5q-5 -31 -5 -59q0 -84 45 -141q60 -76 185 -97q39 -6 77 -6q71 0 140 21q107 31 195 97.5t176 165.5t159 207t144.5 232 t130 231t119.5 214.5t111 172.5q-30 -14 -75.5 -36.5t-79 -39t-80 -38.5t-83.5 -38t-83.5 -33.5t-86 -29.5t-85 -22.5t-86.5 -15t-84.5 -4.5t-84.5 7q-130 19 -147 156q-3 24 10.5 34.5t46.5 6.5q33 -5 74 -5q105 0 263 35q218 49 412 119.5t326 136.5q9 5 44.5 28t66 41 t37.5 17q21 -12 41.5 -47t17.5 -55q-2 -9 -35.5 -42.5t-73.5 -71.5t-49 -48q-33 -42 -79.5 -115t-71 -114.5t-84.5 -148t-61 -107.5q-28 -49 -89 -164q-65 -121 -102 -187.5t-111.5 -187t-130.5 -190t-141.5 -157t-163 -130.5t-175.5 -68q-60 -14 -121 -14q-39 0 -79 6 q-92 15 -168 73t-121.5 139t-64.5 176q-12 55 -12 109q0 38 6 75z" />
<glyph unicode="K" horiz-adv-x="2293" d="M72 416q2 16 11 24.5t24 11t29 2t33.5 -2.5t29.5 -2q143 0 303.5 29t300.5 77q18 7 26 20q45 62 131 198.5t136 203.5q7 9 81 100.5t91 120.5q-77 -52 -125 -82t-125.5 -68t-140.5 -53q-9 -2 -17 -2q-30 1 -53 29q-29 36 -29 86q0 47 56 47q75 0 316.5 104.5t311.5 159.5 q28 22 86 79t103.5 100.5t106 79.5t110.5 36q30 0 44.5 -28t14.5 -62q0 -49 -31 -88q-56 -62 -131.5 -111.5t-169.5 -100t-147 -87.5q-42 -29 -222 -283.5t-220 -328.5q123 18 389.5 162.5t455.5 271.5q8 5 61.5 43.5t99.5 70t50 31.5q28 0 43 -39.5t15 -74.5l-2 -7 q-281 -262 -548.5 -427t-604.5 -263q35 -76 101.5 -132t148.5 -86.5t165 -45t168 -14.5q100 0 205 30t186 72.5t149.5 85.5t116.5 73t66 30q27 0 49.5 -41t22.5 -70q0 -11 -27.5 -35.5t-64 -51t-41.5 -30.5q-159 -136 -290.5 -198t-311.5 -62q-155 0 -296 50t-253.5 154 t-165.5 247l-4 2l-35 -9q-45 -55 -191.5 -331.5t-177.5 -360.5q-79 39 -79 99q0 46 61 166t61 155q0 48 -26.5 81.5t-68 51t-92 30.5t-100 24t-89.5 26.5t-62 43.5q-18 23 -19 55q0 7 1 14zM479 287q29 -33 39 -45t27.5 -38t29.5 -52l97 165z" />
<glyph unicode="L" horiz-adv-x="1593" d="M-551 -584q0 55 33 76q106 70 263 149.5t278 120.5q16 91 95 242t193 317.5t254.5 337t274.5 305.5q134 134 260 218q120 80 198 80h7q24 -1 47.5 -58.5t25.5 -89.5q-141 -114 -261.5 -220t-251 -236t-237.5 -257t-208 -275t-176 -298q290 92 598 149.5t575 57.5 q39 0 63.5 -0.5t73 -4t81.5 -9.5t74 -19t66 -31t42.5 -47t17.5 -65q0 -66 -45 -119q-30 -36 -57 -36q-9 0 -18 4q-25 12 -36 59q-88 51 -366 51q-518 0 -1157 -172q1 -6 6.5 -33t6 -39.5t-1 -32.5t-12.5 -31.5t-30 -17.5q-19 -5 -35 2t-25 19.5t-21.5 23t-25.5 10.5 q-60 0 -152 -28.5t-168.5 -62.5t-143 -63t-80.5 -30q-25 11 -25 53z" />
<glyph unicode="M" horiz-adv-x="2381" d="M86 718q-5 43 0 62q8 121 55 189q63 93 219.5 182t335.5 147q178 58 355 90q131 23 225 24q33 0 61 -3q57 -5 101 -81q37 -65 38 -119q0 -9 -1 -17q0 -14 -15 -37q-34 -38 -125 -104t-110 -82q-266 -226 -457 -463q-241 -297 -379 -559q149 161 323 302t416 314 q56 40 214 141t233 160q36 28 130.5 149t137.5 161q53 53 74 53h2q35 -4 71 -72q33 -63 33 -100v-6q-1 -7 -2.5 -14t-5 -13t-6 -10.5t-8 -10l-8 -8t-10 -8t-10 -7t-11 -7t-10.5 -6.5q-85 -69 -215 -258t-127 -273q76 16 232.5 107t197.5 149q12 16 50 109.5t78 185.5 q39 93 97 167q54 70 104 69h7q99 -10 112 -156q-11 -36 -76 -114t-83 -115q-127 -266 -152 -523q-7 -71 -8 -137q0 -289 139 -489q11 -9 39 -24t43 -34q5 -12 5 -28q0 -19 -7 -45q-123 9 -244 180q-49 66 -81 144.5t-46 146.5q-13 67 -17 161q-2 55 -3 99q-1 32 1 58 q2 63 11 163q-23 -15 -111 -88q-87 -74 -162 -120q-69 -43 -116 -42h-8q-34 4 -64 42.5t-48 89.5t-28 101q-7 38 -7 64q0 8 1 16q2 25 31 123q-150 -101 -247 -168.5t-226 -163t-239 -190t-207 -192.5q-40 -41 -82.5 -91.5t-70 -85.5t-75.5 -99t-71 -93q-5 -8 -17 -8 q-56 5 -93 57q-33 45 -33 96q0 7 1 13q11 111 86 269t185.5 318t237.5 312.5t252.5 271.5t219.5 176l15 6l-3 6q-59 -8 -131 -23t-161 -42t-174.5 -61t-169.5 -82t-148 -102.5t-107 -125t-51 -147.5q-33 -13 -57 14.5t-32 71.5t-13 87z" />
<glyph unicode="N" horiz-adv-x="2144" d="M86 672q0 109 63.5 223.5t166.5 211.5t235 184t267.5 148t265.5 96.5t227 35.5q65 0 90.5 -35.5t25.5 -103.5q0 -20 -30 -62q-116 -150 -181 -235t-172 -229.5t-178.5 -252.5t-156 -243t-152.5 -265t-123 -258l-6 -20l12 10q406 388 598 551q87 74 162 137.5t208 170 t246.5 191.5t254 180.5t254.5 160t225.5 107t187.5 42.5q51 0 103 -49.5t63 -99.5q0 -16 -14.5 -46t-26.5 -30q-6 0 -22 16q-144 -91 -303 -267.5t-291.5 -380t-238.5 -416t-158 -384.5q-5 -18 -6 -36t1 -28.5t3.5 -18.5t0.5 -11.5t-10 -3.5q-118 0 -118 219q0 113 88 314 t178 352q44 72 91 138.5t105 134.5t99.5 114.5t118 128t116.5 125.5q-174 -73 -365.5 -193t-356 -246.5t-358.5 -294.5t-338 -304t-331 -310.5t-305 -279.5q-63 26 -99 71t-36 99q0 433 756 1366q17 21 84.5 97t95.5 120q-79 -28 -184.5 -81t-224 -128.5t-221 -157 t-176.5 -174.5t-89 -174q-6 -21 -1.5 -40.5t11 -37t11.5 -31t1.5 -21t-18.5 -7.5q-40 0 -70 39.5t-42.5 86t-12.5 85.5z" />
<glyph unicode="O" horiz-adv-x="1705" d="M-96 682q0 92 50 189.5t135 184.5t198.5 171.5t240 155t260 130.5t258 101.5t234 64.5t188.5 23q396 0 396 -377q0 -104 -20 -245t-54 -216q-43 -94 -124 -218.5t-191 -262t-237 -275.5t-268.5 -263t-278.5 -222t-275 -154t-250 -57q-77 0 -130.5 41.5t-76 103 t-22.5 136.5q0 254 174 518q65 100 185 237t275 282.5t314.5 269.5t318.5 204t271 80q47 0 83.5 -47t36.5 -96q0 -9 -4.5 -15t-26.5 -0.5t-59 33.5q-44 0 -129 -29q-216 -78 -470.5 -264.5t-468.5 -416t-326 -435.5q-99 -183 -99 -354v-9q0 -25 1 -36t6.5 -24t18.5 -18 t36 -5q93 0 208 50.5t227 132.5t233 193t226.5 224t208 235t175.5 217t131 177l41 57q40 57 52 75.5t48.5 74t52 87t38 77t31.5 82t9 67.5q0 47 -35.5 82.5t-89 53t-104 26t-92.5 8.5q-101 0 -243.5 -35t-297.5 -95t-310 -146.5t-281 -183t-211 -211.5t-99 -226 q14 -7 28.5 -24t14.5 -31q0 -46 -37 -46q-41 0 -67.5 71.5t-26.5 121.5z" />
<glyph unicode="P" horiz-adv-x="2138" d="M129 674q0 89 54 180.5t142 168.5t203.5 151t236 132t243.5 107t221 81t172 50q278 68 545 68q88 0 161.5 -13t139.5 -43.5t112 -77.5t72.5 -119t26.5 -165q0 -134 -76 -277t-199.5 -266t-282.5 -234.5t-324 -190.5t-325.5 -125t-283.5 -46q-126 0 -183 68l-6 -4 q-1 -2 -21.5 -31t-41 -59t-47.5 -72.5t-47 -78t-32.5 -68t-10.5 -48.5q1 -4 5.5 -18.5t4.5 -22.5q0 -17 -16.5 -45t-30.5 -28q-32 0 -55 34t-31.5 71.5t-8.5 68.5q0 76 38 169.5t99 184.5t135 186t147.5 185.5t134.5 171.5t99 155.5t38 126.5q0 19 -10.5 57t-10.5 58 q0 38 29 53q35 -33 55 -98t19 -123q0 -88 -44.5 -194t-100 -187.5t-127 -187t-103.5 -168.5q10 -1 39.5 -4.5t46.5 -3.5q150 0 335 64.5t354.5 166.5t319.5 225t248 242q56 69 107 153.5t51 137.5q0 57 -54.5 98t-136.5 60.5t-150 27.5t-122 8q-252 0 -537 -66t-556 -195 t-449 -294q-41 -37 -87 -103.5t-46 -106.5q0 -18 10 -48q-4 -21 -31 -36q-57 44 -57 137z" />
<glyph unicode="Q" horiz-adv-x="1472" d="M51 -51q0 166 67 363.5t179.5 387.5t268 369t324.5 314t356.5 216.5t357.5 81.5q227 0 227 -247q0 -36 -7 -72.5t-25 -75.5t-30 -64.5t-41.5 -67t-39 -54.5t-43.5 -55.5t-35 -43.5q-2 -3 -15.5 -59t-33 -131t-33.5 -115q-96 -262 -276 -530t-386 -461 q-23 -21 -87.5 -71.5t-94.5 -82.5q37 11 103 36.5t120 40t111 14.5q59 0 115.5 -17t106 -50.5t80 -90.5t30.5 -129q-1 -1 -8.5 -15t-14 -21t-12.5 -7q-8 0 -37 35t-49 43q-88 37 -180 37q-88 0 -215.5 -42t-246 -102t-224.5 -120t-170 -102l-64 -42q-51 51 -51 96 q0 15 10 34t29.5 39.5t41.5 40.5t53 42.5t56 40t58.5 39t53 33.5t47.5 28.5t34 20.5q-18 -4 -53 -4q-71 0 -132 34.5t-101.5 89.5t-69 124.5t-41.5 138.5t-13 133zM215 -160q0 -151 55 -246q9 -1 18 -1q98 0 216 59q128 65 249 172t240.5 243.5t214 274.5t162 264t90.5 213 l-4 2q-14 -17 -66 -83t-100 -123t-105.5 -120.5t-108.5 -101t-85 -37.5q-21 0 -41 21.5t-31 50t-15 57t7 41.5h2q27 0 171 131q149 135 287 281.5t138 171.5q0 5 -2 8.5t-7 4.5l-7.5 1.5t-9.5 0t-8 -0.5q-91 0 -197.5 -56t-205 -146t-191.5 -206t-162 -234.5t-111.5 -233 t-44.5 -199.5q-31 -5 -49 13t-18 42q0 79 44 195.5t115 240.5t167 248.5t195 222.5t203.5 159t188.5 61q81 0 147 -72q85 99 115 142q65 94 65 145q0 11 -3 20q-34 19 -105 19q-165 0 -341 -79.5t-329 -210.5t-291.5 -303t-237 -353t-156.5 -364.5t-58 -334.5z" />
<glyph unicode="R" horiz-adv-x="2140" d="M14 281q0 83 63.5 179t167.5 185t238 179t273 165.5t275.5 141t243 109.5t177.5 67q282 92 481 92q113 0 207 -38t155.5 -122t61.5 -201q0 -104 -57.5 -213t-153.5 -204.5t-221.5 -188t-260 -168t-271.5 -140t-253.5 -108.5t-207.5 -69q55 -40 109.5 -93t90 -94.5t83 -84 t94 -70.5t116.5 -46t156 -18q94 0 194 28t180 69.5t159 90t136 90t105.5 69.5t73.5 28q19 0 45.5 -34t26.5 -54q0 -8 -7 -18.5t-14 -18t-18.5 -18t-12.5 -11.5q-183 -189 -458 -323q-171 -80 -346 -80q-227 0 -396 143q-51 44 -109 107t-97.5 108t-102.5 94.5t-137 82.5 q-58 27 -58 98q0 7 7 15.5t19.5 17.5t26 16.5t31.5 16t30.5 14.5t27.5 12.5t18 7.5q374 176 563 281q682 380 777 717q-71 68 -138 92t-163 24q-170 0 -369.5 -55.5t-386.5 -140.5q-84 -38 -194 -94t-262 -146.5t-277 -180.5t-220.5 -194.5t-109.5 -189.5q94 -61 150 -115.5 t106 -142.5q292 634 721 973q105 86 151 86q37 0 71 -50q30 -44 31 -77q0 -5 -1 -9q-9 -22 -38.5 -69t-41.5 -47l-19 6l-8 -6q-300 -293 -528.5 -672.5t-327.5 -767.5q-67 9 -110 58.5t-43 107.5q0 65 48 193t48 173t-17.5 82.5t-46 64.5t-62.5 52t-68 49t-62.5 49.5t-46 61 t-17.5 76.5z" />
<glyph unicode="S" horiz-adv-x="1288" d="M96 682q0 108 49.5 216t134.5 201t199 180t243 157.5t266 128.5t268.5 97.5t251 61t212.5 21.5q103 0 168.5 -54.5t65.5 -154.5q0 -63 -72.5 -172t-186 -228.5t-255 -244.5t-276.5 -224t-254.5 -162t-184.5 -63q-54 0 -87.5 51.5t-33.5 108.5q0 27 10.5 52.5t22.5 25.5 q6 0 11 -1.5t8.5 -3t7 -6t5.5 -6.5t4 -9t3 -9.5t3.5 -11t2.5 -10.5q79 2 260 119.5t365.5 272t341.5 309.5t198 230q-45 17 -121 17q-74 0 -178 -20.5t-224 -58t-249.5 -92t-252.5 -119.5t-234 -145t-194 -163t-132 -178.5t-49 -188.5q0 -53 36.5 -105.5t98.5 -98 t123.5 -82.5t131 -77.5t102.5 -64.5q118 92 284.5 186.5t259.5 94.5q45 0 70 -20.5t39 -65.5q-4 -9 -9.5 -13t-10 -4t-19 1t-25.5 1q-83 0 -262 -94.5t-239 -163.5q127 -139 127 -272q0 -83 -57.5 -165t-141.5 -139.5t-180 -93.5t-174 -36q-67 0 -116.5 50t-49.5 118 q0 54 44.5 132.5t112 155.5t129 138.5t111.5 103.5q-26 16 -71.5 43t-72.5 43t-68.5 43t-67.5 46.5t-60 49.5t-54.5 56.5t-43.5 62.5t-35.5 72t-20.5 80.5t-8 93.5zM317 -436l7 -2q55 9 133.5 41.5t156 78.5t131.5 108t54 120q0 18 -8 35t-26 34t-27.5 25t-32.5 25 q-263 -230 -388 -465z" />
<glyph unicode="T" horiz-adv-x="964" d="M-113 760q0 74 62 143q61 68 146 126.5t173.5 101.5t202 81.5t211.5 64t223.5 51t215.5 40.5l210 35t187 33q27 5 151.5 28t171 32t157 32t173.5 41t152.5 44.5t162 57t137.5 64.5q22 -13 27.5 -44t0.5 -58t-15 -52q-23 -53 -164.5 -114t-331 -112.5t-399.5 -98.5 t-372 -76t-247 -39q2 -8 7.5 -29t8 -32t5 -28.5t2.5 -33.5q0 -83 -43 -158q-29 -50 -94 -135q-40 -51 -145 -182.5t-158 -201t-134 -180t-143 -210.5t-115 -203q-37 -68 -53 -116q-15 -42 -15 -82v-9q2 -43 29 -76q1 -1 3 -2t-4 -6q-11 -9 -21 -18q-35 0 -62 33t-41 81.5 t-21 92t-7 75.5q0 98 49.5 218t129 236.5t175.5 236t192.5 226.5t176.5 195.5t130.5 155.5t51.5 96q-34 23 -76 23q-58 0 -218 -44t-331.5 -106.5t-304.5 -139.5t-133 -134q0 -31 -24 -33q-26 10 -39 42.5t-13 66.5z" />
<glyph unicode="U" horiz-adv-x="1976" d="M121 668q0 82 91 205.5t214 230.5t255.5 184.5t209.5 77.5q49 0 88.5 -42t58.5 -96t19 -102q0 -76 -39 -180t-101.5 -215.5t-137.5 -236t-150.5 -256.5t-137.5 -260t-100.5 -263.5t-38.5 -251.5q18 -6 37 -6q76 0 171.5 52t193.5 141t206.5 207.5t212 252t209 275 t199 275t179.5 252.5t153 208.5t118 141.5t76 53q43 -18 43 -84v-14q-14 -34 -52 -90.5t-85.5 -122.5t-64.5 -93q-59 -93 -115 -194t-118 -229q-63 -126 -99 -250q-34 -114 -33 -199v-14h3q48 -1 100 31q54 32 91.5 70.5t85 91.5t66.5 71q30 -8 39.5 -25.5t5.5 -56.5 q-10 -13 -41 -54.5t-52.5 -70t-57 -68t-64.5 -64.5t-64 -43t-65 -18q-44 0 -80.5 30.5t-57 76t-31.5 93t-11 87.5q0 26 4.5 55t11 63t9.5 54l-15 -16q-25 -32 -82.5 -108.5t-112 -149t-131 -168t-146 -176.5t-150.5 -163t-152 -139.5t-143 -93.5t-129 -36q-53 0 -92.5 34.5 t-59.5 88.5t-29.5 106.5t-9.5 101.5q0 122 29 244t79 230t111 213.5t129.5 210.5t130.5 203t118.5 209.5t88.5 213.5h-14q-19 -10 -82 -40.5t-105.5 -51.5t-111.5 -59.5t-117 -70t-103.5 -75.5t-90 -84t-57.5 -88t-23 -94q0 -6 -25 -21q-24 0 -41.5 36t-17.5 63z" />
<glyph unicode="V" horiz-adv-x="1204" d="M-152 963v9v9q0 45 74 99.5t160 89t131 34.5q67 0 123.5 -37.5t91 -96t53.5 -124.5t19 -127q0 -79 -52.5 -225.5t-115.5 -277.5t-115.5 -247.5t-52.5 -142.5h2q164 174 305 313.5t315.5 291t339.5 270.5t360.5 230.5t395.5 191.5q222 90 381 90q92 0 155.5 -51t63.5 -142 q0 -14 -0.5 -23t-2.5 -28.5t-8.5 -28.5t-16.5 -6q-69 45 -220 45q-135 0 -293.5 -46t-312 -124t-313.5 -179t-304.5 -213t-278.5 -223.5t-243.5 -212.5t-190.5 -179t-127 -124t-48 -46q-33 0 -62.5 65.5t-29.5 104.5q0 86 47.5 232.5t104 279t104 275.5t47.5 222 q0 60 -41.5 89.5t-104.5 29.5q-57 0 -156.5 -38t-123.5 -79q-10 2 -18 4t-14 4.5t-10.5 6t-7.5 5.5t-5 7t-3 7t-1.5 8t-0.5 8z" />
<glyph unicode="W" horiz-adv-x="2637" d="M84 184q0 94 78.5 219.5t203.5 249.5t283 247t313.5 216t299.5 151t237 58q129 0 129 -176q0 -43 -41 -120t-107.5 -171.5t-148 -203.5t-165.5 -227t-156 -230.5t-124 -226t-65 -201.5q84 86 242 268t242 268q67 70 222 209t226 215q23 29 37 29q18 0 43 -55t25 -78 q0 -14 -17 -59t-38.5 -96.5t-26.5 -66.5q-72 -215 -109 -387.5t-37 -357.5q0 -79 4 -100q114 56 269 223.5t296.5 370t258.5 396.5t178 326q12 27 37.5 116t47 167.5t25.5 83.5l9 2q38 -18 37 -67q0 -51 -7 -104.5t-25.5 -117t-31 -101t-40.5 -115t-36 -99.5 q-26 -73 -107.5 -230t-194.5 -345.5t-230 -361t-227 -288.5t-171 -116q-63 0 -123 73q-47 55 -67 80.5t-44 64t-32 71t-14 78.5t-6 110q0 92 32 222.5t71 233.5t71 185t32 90q-45 -46 -125.5 -125.5t-146.5 -147.5t-121 -131q-5 -6 -59 -70.5t-102 -119.5t-107 -120 t-102 -103.5t-60 -38.5q-45 0 -92 81t-47 130q0 72 13.5 147t42 151t59.5 144t80 147t87.5 138t99 138.5t98 127t100 125.5t90.5 113v2q-119 -40 -258 -108t-287 -164t-276 -202.5t-228 -232.5t-139 -246q-5 -12 -5 -26t2.5 -25t5 -20.5t0.5 -15t-11 -5.5q-17 0 -31.5 15.5 t-22.5 38t-12 44t-4 37.5z" />
<glyph unicode="X" horiz-adv-x="1660" d="M27 555q0 121 81 259.5t200.5 247t262 181t258.5 72.5q49 0 87 -20t61 -51.5t38.5 -78.5t22 -93t9.5 -102q2 -42 3 -78q0 -12 -1 -22q-1 -44 -2 -94q0 -25 -0.5 -43.5t0.5 -30.5l6 5q11 10 74 68t116 105.5t133.5 118t147.5 124.5t134.5 105t118.5 79t78 28 q29 0 43.5 -31t14.5 -63q1 -25 -8.5 -28t-25.5 2t-36 -11q-447 -289 -792 -674q-43 -47 -43 -258q0 -58 3 -97t13 -76t27.5 -59.5t47 -40t71.5 -25t100 -7.5q77 0 151.5 33t128 80t96.5 94t72 80t39 33q12 0 23.5 -24t17.5 -44q-2 -18 -24 -49q-108 -146 -157 -200 q-166 -181 -341 -181q-90 0 -158.5 34.5t-109.5 88.5t-67 130t-35 149t-9 155l-2 2q-197 -256 -322 -493q-1 -2 -27 -57t-47.5 -94.5t-27.5 -39.5q-30 0 -46.5 31.5t-16.5 64.5q0 69 102.5 239t211 315t183.5 231q22 25 35.5 150t13.5 194q0 14 1 44t0.5 44.5t-3 38.5 t-10 36t-20 25.5t-34 19t-50.5 5.5q-65 0 -145 -26.5t-158.5 -71.5t-154 -107t-132.5 -129t-92 -143t-35 -144q6 -26 15.5 -49.5t15.5 -35t6 -15.5q0 -16 -29 -39q-53 29 -77.5 87t-24.5 126z" />
<glyph unicode="Y" horiz-adv-x="1910" d="M106 338q0 85 54.5 193t142.5 211t200.5 203.5t225.5 175.5t221.5 121t184.5 46q65 0 101 -53t36 -121q0 -39 -37.5 -119.5t-87 -163.5t-128.5 -200t-131 -190.5t-126.5 -176.5t-85.5 -119l-2 -8q71 38 148 89.5t132 92t142.5 115t124 107t134.5 122t120 109.5 q71 66 167 162q20 21 56.5 75t66.5 98.5t75 81t87 36.5q35 0 53.5 -36t18.5 -75q-68 -49 -107.5 -89.5t-70.5 -88.5q-66 -103 -114.5 -233t-72 -236t-59 -245t-72.5 -238q119 3 213 26.5t168 72t107.5 77t93.5 90.5q6 5 9 8t7 7.5t8 8.5q7 -16 7.5 -31t-3.5 -26.5 t-13.5 -24.5t-18 -21t-21 -20.5t-18.5 -19.5q-76 -86 -167 -139t-155.5 -72.5t-212.5 -52.5l-51 -12q-29 -65 -69.5 -125.5t-93.5 -116t-119.5 -89.5t-135.5 -34q-83 0 -161.5 50.5t-100.5 127.5q3 50 30 91.5t72 69.5t96 49t112 34.5t110 22.5t99 16q11 1 16 2 q30 46 131.5 377.5t101.5 365.5l-4 4q-18 -40 -137 -153t-261.5 -230t-278.5 -208t-183 -91q-54 0 -85.5 40t-31.5 96q0 32 126 208.5t272.5 373t173.5 245.5q15 26 53 129q-123 -3 -281 -85.5t-297 -202t-249.5 -262.5t-147.5 -261q-8 -24 -8 -39q8 -24 18 -39 q-13 -41 -32 -41q-15 0 -34 25q-34 45 -48 111q-3 13 -3 22zM864 -313q32 -34 75 -39q11 -2 21 -2q32 0 62 12q40 17 83 48t72.5 60t53.5 58q-239 -43 -367 -137z" />
<glyph unicode="Z" horiz-adv-x="1685" d="M27 -94q0 66 58 118t126 52q57 0 129 -47q183 104 391.5 252t423 305t377.5 258q9 5 28.5 19t35.5 23.5t30 14.5q-30 2 -205 17.5t-268 15.5q-100 0 -215.5 -17.5t-240.5 -56.5t-233.5 -93.5t-195.5 -136.5t-125 -179q-19 -11 -33 21.5t-14 62.5q0 60 51 145 q70 115 188.5 208.5t257 151.5t284.5 88.5t282 30.5q126 0 376.5 -31.5t377.5 -31.5q71 0 193.5 43t189.5 43q76 0 76 -72q0 -55 -41.5 -92t-108.5 -54t-135.5 -26.5t-138 -18t-99.5 -20.5q-104 -41 -266 -153.5t-306 -230t-314 -253.5t-267 -201q-9 -6 -60.5 -41t-98 -65.5 t-50.5 -32.5q26 -17 78 -52.5t74.5 -50t66 -38t76 -32.5t81 -17t102.5 -8q182 0 352 80.5t303 220.5q13 14 49.5 65t66.5 95l31 44q14 14 24 -24q7 -23 7 -41q0 -23 -33.5 -76.5t-60.5 -87.5q-69 -86 -144 -158.5t-166 -137t-195 -101.5t-208 -37q-84 0 -151.5 14 t-128.5 45.5t-104 60.5t-114.5 82t-123.5 87q-116 -60 -169 -73q-34 -9 -63 -9q-54 0 -82 38t-28 95z" />
<glyph unicode="[" horiz-adv-x="614" d="M59 -59q0 38 5.5 77.5t17 95.5t14.5 76q10 54 46 179.5t93.5 289.5t120.5 312.5t133.5 251t124.5 102.5q39 0 87.5 -12t90.5 -42t42 -71q0 -14 -8.5 -27t-20.5 -14q-27 -2 -61 7t-55 17t-44.5 0.5t-40.5 -38.5q-107 -196 -220 -561.5t-179 -667.5q15 -12 35 -25t27 -18.5 t12.5 -17t5.5 -29.5q0 -35 -56 -35q-59 0 -114.5 46.5t-55.5 103.5z" />
<glyph unicode="\" horiz-adv-x="851" d="M-53 1487q9 64 112 76q53 -155 127.5 -403t145.5 -465t147 -398q30 -73 93 -212.5t90 -203.5q69 -142 69 -168q-19 -63 -67 -71q-121 152 -254.5 447.5t-235.5 596.5t-182 600q-48 179 -45 201z" />
<glyph unicode="]" horiz-adv-x="845" d="M-4 -152q0 14 8.5 27t20.5 14q27 2 60.5 -7t54.5 -16.5t44.5 0t40.5 38.5q107 196 220.5 562.5t179.5 666.5q-15 12 -35 25t-27 18.5t-12.5 17t-5.5 29.5q0 15 9.5 23t19 9.5t26.5 1.5q59 0 114.5 -46t55.5 -103q0 -38 -5.5 -77.5t-17 -96.5t-14.5 -76 q-13 -71 -67.5 -246.5t-129 -378.5t-164.5 -356t-157 -153q-39 0 -87 12t-90 41.5t-42 70.5z" />
<glyph unicode="^" d="M147 940q0 26 23 39q31 18 115.5 87t154.5 129t72 60q19 0 34 -41.5t15 -66.5q0 -21 -10.5 -80t-1.5 -94q3 2 12 2t30.5 -48.5t12.5 -66.5q-2 -3 -7.5 -10.5t-9 -12t-10 -8.5t-12.5 -4q-79 0 -108 189q-8 -6 -67.5 -60.5t-104 -84t-78.5 -29.5q-26 0 -43 35t-17 65z" />
<glyph unicode="_" horiz-adv-x="757" d="M37 29q0 40 45 71t108 48.5t140.5 28.5t131.5 14.5t91 3.5q26 0 36 -0.5t28.5 -4t26 -10.5t14 -22t6.5 -37q0 -19 -2 -35.5t-13 -34t-31 -14.5q-102 14 -259.5 -3.5t-280.5 -51.5q-18 -6 -29.5 9.5t-11.5 37.5z" />
<glyph unicode="`" horiz-adv-x="489" d="M109 1059q-10 20 6 48.5t49 55.5q8 7 18.5 13.5t24.5 10.5t18 -7q10 -53 46.5 -108.5t82.5 -96.5q8 -3 -6.5 -28t-25.5 -34q-22 -13 -43 -14t-44.5 14.5t-42 33t-36.5 41.5t-29 41t-18 30z" />
<glyph unicode="a" horiz-adv-x="808" d="M-18 270q0 63 47.5 155.5t120.5 164.5t135 72q58 0 106.5 -34t65.5 -89q1 1 63.5 53t111 89.5t56.5 37.5q19 0 31 -33.5t12 -58.5q0 -29 -63 -101q-74 -77 -121 -161q-7 -11 -16 -34t-13 -30q13 -5 29 -5q25 0 55 12q50 18 99 53t91.5 72t71 64t29.5 27q31 -11 31 -67 q-54 -80 -177 -189.5t-194 -109.5q-56 0 -90.5 60t-34.5 120q0 19 4 47q-5 -4 -34.5 -33.5t-50 -49t-55.5 -52t-62.5 -54.5t-58 -44.5t-55.5 -34t-42 -11.5q-39 0 -65.5 59t-26.5 105zM109 270l2 -2q36 12 157.5 107t124.5 121q-20 10 -49 10q-120 0 -235 -236z" />
<glyph unicode="b" horiz-adv-x="952" d="M-252 -102q0 49 169.5 287.5t356 475t318.5 392.5q28 28 33 28q22 0 37.5 -31.5t15.5 -56.5q0 -23 -78 -121q-92 -116 -143.5 -182t-130.5 -177t-125 -191l-2 -7l6 4q15 11 79.5 65.5t114.5 95t110 76.5t91 36q44 0 76.5 -46.5t32.5 -92.5q0 -17 -5.5 -36t-14 -42 t-11.5 -35q419 184 430 184q13 0 23 -22.5t10 -38.5q-8 -22 -27 -33q-203 -99 -326 -154q-24 -10 -66.5 -28t-77 -33t-64.5 -31q-4 -2 -15 -12q-75 -75 -181 -152t-169 -77q-11 0 -21 1t-18.5 5t-15 6.5t-14.5 9.5t-12 10t-11.5 13t-10.5 13.5t-11 15.5t-11 16 q-105 -141 -215 -262q-14 -19 -27 -19q-34 0 -67 54.5t-33 91.5zM223 176q27 4 58.5 13.5t75 25.5t57.5 21q39 13 51.5 21.5t40.5 41.5q70 83 102 168q-166 -72 -385 -291z" />
<glyph unicode="c" d="M16 266q0 120 76 257t189.5 245t252.5 180t257 72q58 0 88 -37.5t30 -97.5q0 -49 -62.5 -142t-145 -168t-130.5 -75q-31 0 -52 40.5t-21 75.5q0 22 6.5 28t23 1.5t19.5 -4.5q41 0 140 93t118 138q-89 -29 -184.5 -78t-190.5 -119.5t-167 -148.5q-73 -79 -111 -175 q-29 -72 -28 -142q0 -24 3 -47q5 -32 57.5 -47t96.5 -15q249 0 542 324q5 6 30.5 39.5t47.5 62.5t25 29q14 0 30.5 -27.5t18.5 -50.5q-49 -86 -119.5 -174.5t-159 -171.5t-192.5 -135.5t-199 -52.5q-81 0 -148.5 48t-104 122t-36.5 153z" />
<glyph unicode="d" horiz-adv-x="915" d="M-27 160q0 92 63.5 206.5t164 197.5t194.5 83q29 0 51.5 -9t41.5 -29.5t29 -35.5t28 -45q198 250 297 408q180 295 272 409q84 104 123 105q38 0 92.5 -59.5t54.5 -98.5q0 -32 -68.5 -115t-159 -178t-105.5 -114q-43 -54 -66 -90q-69 -99 -192.5 -440t-204.5 -601 q-15 -51 -15 -133q0 -21 7.5 -62.5t7.5 -60.5q0 -12 -29 -12q-43 0 -87 51.5t-44 95.5q0 155 77 428.5t159 475.5q-11 -14 -51.5 -68t-77 -101t-88.5 -112t-98.5 -116.5t-93.5 -99t-86 -73.5t-65 -26q-34 0 -60.5 23.5t-41 59t-22 71t-7.5 65.5zM111 109q53 26 110.5 72.5 t89 79t95 105t81.5 91.5l-2 4q-10 2 -32 2q-66 0 -143.5 -62t-132 -145t-66.5 -147z" />
<glyph unicode="e" horiz-adv-x="518" d="M-39 221q0 58 38 130.5t93.5 133t125.5 102.5t128 42q40 0 74.5 -43.5t34.5 -85.5q0 -48 -48 -102t-112.5 -88t-112.5 -34q-35 0 -63 46q-68 -93 -68 -160q0 -41 78 -41q64 0 142.5 44.5t146.5 108t127.5 127t99 108t47.5 44.5q11 0 19 -30.5t8 -47.5q0 -18 -64 -98.5 t-148 -170t-177 -161.5t-142 -72q-100 0 -163.5 79t-63.5 169zM182 383q98 28 162 104q-81 -27 -162 -104z" />
<glyph unicode="f" horiz-adv-x="520" d="M-262 -299q0 54 139 356q4 10 38 72.5t40 87.5l-78 -43q-11 0 -19 24.5t-8 37.5q0 33 32 62t87.5 58.5t67.5 38.5q7 5 33 41t51.5 75t55 84t34.5 52v2h-4q-22 -15 -65 -41t-64 -41q-7 -4 -16 -14.5t-13 -13.5q-4 -4 -10 -4q-13 0 -21 25t-8 40q0 41 52 92.5t129.5 98 t139 78.5t107.5 51q7 6 53.5 51t88.5 82t53 37q20 0 30.5 -33t10.5 -60q20 1 75 5t85 4q63 0 95 -21t32 -82q0 -39 -24 -64q-16 -16 -26 -5q-3 7 -8.5 12t-10 7.5t-14 3.5t-13.5 1h-15.5h-13.5q-61 0 -192.5 -28t-154.5 -58q-29 -38 -60 -82.5t-67 -99t-57 -84.5l-2 -2 q21 1 82 7.5t90 6.5q25 0 36.5 -1t25 -6.5t18.5 -18.5t6 -35q1 -17 -2 -28t-12.5 -15.5t-13.5 -6t-20 -0.5t-17 1q-41 0 -87.5 -11.5t-114 -35.5t-85.5 -29q-14 -6 -21 -17q-208 -371 -297 -553q-47 -96 -51 -135q0 -11 -10 -18q-1 -3 -2.5 -9t-2.5 -10.5t-4 -8t-7 -3.5 q-29 0 -52.5 45.5t-23.5 77.5z" />
<glyph unicode="g" horiz-adv-x="913" d="M-348 -356q0 43 26 91.5t84 106.5t83.5 80.5t90.5 76.5q10 9 15 13q68 55 142 107t175 118.5t142 94.5q6 4 24.5 87t16.5 95q-15 -9 -104.5 -70t-162 -104t-100.5 -43q-29 0 -63.5 39t-34.5 65q0 60 59 131.5t138.5 119.5t138.5 48q69 0 153 -53q21 8 45.5 37t45.5 57.5 t59.5 52t85.5 23.5q27 0 46 -30.5t19 -59.5q0 -17 -16 -30t-40.5 -24t-31.5 -16q-57 -43 -83.5 -97.5t-47.5 -141.5q365 166 504 166q53 0 53 -72q0 -3 -10 -6.5t-25.5 -7t-30 -6t-28 -5t-14.5 -2.5q-46 -6 -99 -23.5t-87.5 -33t-92.5 -43.5l-29 -14.5t-50.5 -26t-51 -27.5 t-44 -26.5t-17.5 -16.5q-12 -80 -21 -159q-15 -141 -61.5 -279.5t-122.5 -234.5q-75 -94 -170 -133t-223 -39q-43 0 -82.5 6.5t-77 22.5t-65 40t-44 61.5t-16.5 84.5zM-229 -373q13 -1 37 -1q40 0 112 3q69 4 127.5 23.5t101.5 48t79 73.5t60 88.5t45.5 104.5t34 110.5 t27.5 117.5h-4q-193 -124 -360.5 -269.5t-259.5 -298.5zM182 459q167 101 185 112q-7 31 -36 31q-20 0 -48 -13q-57 -28 -96 -77q-19 -24 -19 -38q0 -11 14 -15z" />
<glyph unicode="h" horiz-adv-x="772" d="M-162 -68q0 64 54.5 178t131 231.5t174.5 251t170 224t132 162.5q24 -6 44 -32t17 -42q-11 -43 -110 -200.5t-215.5 -335t-145.5 -230.5l2 -2q5 5 45 45.5t61.5 62t67.5 65.5t77 71t74.5 63t75.5 57.5t66 38.5t59 21q30 -7 55 -29t25 -51q0 -23 -62.5 -140t-62.5 -134 q65 49 179.5 149t146.5 127q19 12 26 -19q4 -20 1 -52q-7 -6 -110 -111.5t-184.5 -176.5t-113.5 -71q-36 0 -61 35t-25 72q0 9 12 33.5t34 61.5t38.5 64.5t41.5 67t28 43.5l-2 2q-89 -53 -183 -135t-162 -155.5t-160 -172t-155 -157.5q-34 9 -60 47t-26 73z" />
<glyph unicode="i" horiz-adv-x="436" d="M-55 94q0 71 28 150q16 41 62 118.5t106 150.5t95 73q23 0 40 -30t23 -60q-1 -14 -98 -167t-111 -192h2q190 121 287 199t221 221q20 27 27 27q10 0 22.5 -23t12.5 -35q0 -22 -21 -43q-136 -155 -168 -190q-65 -70 -228 -201t-212 -131q-35 0 -61.5 47.5t-26.5 85.5z M541 1104q0 20 6 32t10 15.5t25 17.5l5 5t7 4q22 0 34.5 -38t12.5 -65q-2 -3 -9 -14.5t-12.5 -19t-13.5 -14.5t-14 -7q-22 0 -36.5 29.5t-14.5 54.5z" />
<glyph unicode="j" horiz-adv-x="530" d="M-453 -340q0 23 15 53q64 144 213 254q13 10 78 51t88 64q19 19 147.5 301.5t161.5 331.5q25 -1 40 -36t15 -65q0 -24 -18.5 -81.5t-38 -106.5t-49 -119.5t-33.5 -81.5l2 -2q24 18 291 186.5t272 168.5q12 -5 20.5 -24.5t10.5 -37.5q-2 -16 -166 -122.5t-329 -211.5 t-167 -119q-92 -216 -151 -318q-143 -249 -268 -249q-55 0 -94.5 53t-39.5 111zM-358 -328q48 23 119 98.5t81 120.5q-69 -44 -134.5 -115t-65.5 -104zM319 989q0 17 34.5 111t47.5 94q34 0 60 -109q-74 -198 -88 -198q-23 0 -38.5 37.5t-15.5 64.5z" />
<glyph unicode="k" horiz-adv-x="878" d="M-98 -51q109 503 536 1009q9 11 41 48.5t45 52t41.5 46.5t46.5 51t43.5 43t49.5 44q7 7 23.5 18t23.5 11q23 0 37 -42.5t14 -72.5q0 -9 -9.5 -25t-26 -36.5t-30.5 -37t-31.5 -35.5t-21.5 -24q-317 -369 -475 -696q25 20 87.5 85.5t118.5 123.5t122.5 106t109.5 48 q27 0 47.5 -32.5t20.5 -62.5q0 -48 -51 -112t-103 -103q-21 -16 -83 -51.5t-77 -48.5q86 0 187.5 31.5t182.5 74t154 90t109 75t41 32.5q14 -5 23.5 -25t11.5 -38q-76 -83 -148 -145.5t-160 -119.5t-187 -87.5t-203 -30.5q-31 0 -93.5 9t-91.5 9q-17 0 -85.5 -103.5 t-96.5 -154.5q-2 -3 -9 -19.5t-13.5 -29t-10.5 -12.5q-52 0 -81 41.5t-29 95.5zM397 350h3q28 0 79 35q54 37 92 81q29 34 29 51q0 5 -2 9q-44 -28 -201 -176z" />
<glyph unicode="l" horiz-adv-x="614" d="M-197 -129q0 31 21 104q154 481 735 1045q121 121 135 121q20 0 32.5 -33.5t12.5 -58.5q0 -16 -10 -33q-49 -75 -151 -207.5t-142 -190.5q-228 -326 -368 -589q-6 -12 -21 -37.5t-24.5 -42.5t-20 -39.5t-16.5 -40.5l145 113q83 69 305.5 279.5t315.5 293.5q7 7 19 -5 t20 -30t6 -28q-130 -144 -197.5 -217t-182.5 -191.5t-219.5 -210.5t-211.5 -172q-33 -25 -58 -25q-35 0 -65.5 36.5t-45 80.5t-14.5 78z" />
<glyph unicode="m" horiz-adv-x="1265" d="M-96 63q0 46 101.5 223.5t209.5 334.5t125 157q25 -16 40 -60q12 -35 12 -54q0 -5 -1 -9q-3 -12 -49 -85.5t-103 -162t-73 -116.5h2q33 21 68 46t63 45.5t67 51.5t61.5 49t65.5 54.5t59.5 50.5t64 54.5t59.5 51.5q16 11 20 11q18 0 32.5 -34.5t14.5 -54.5 q0 -46 -60.5 -178t-66.5 -151q36 19 157 111.5t225.5 175.5t109.5 83q22 -12 35.5 -37.5t13.5 -52.5q0 -36 -50 -147t-50 -121q16 6 115 66t190 117l92 57q15 0 25 -27t10 -45q0 -20 -101.5 -97t-211.5 -145.5t-132 -68.5q-39 0 -63.5 49t-24.5 92q0 36 25.5 88t28.5 76 q-14 -12 -83.5 -76t-126 -113.5t-120.5 -94t-94 -44.5q-37 0 -58.5 44.5t-21.5 86.5q0 48 32 119.5t37 91.5q-318 -250 -589 -567q-6 -7 -12 -7q-18 0 -42 58q-28 66 -28 104z" />
<glyph unicode="n" horiz-adv-x="794" d="M4 233q0 46 84.5 213.5t114.5 167.5q19 0 34 -36.5t15 -57.5q0 -29 -49 -116.5t-56 -106.5q362 293 428 293q25 0 43.5 -40t18.5 -69q0 -49 -80 -229q64 28 121.5 70.5t126 104.5t106.5 91q37 -29 37 -77v-7q-30 -52 -100 -134t-158.5 -154t-142.5 -72q-32 0 -57 33.5 t-35.5 72.5t-10.5 70q0 46 34 118.5t34 75.5q-31 -17 -136 -100.5t-198 -157t-106 -73.5q-30 0 -49 42t-19 78z" />
<glyph unicode="o" d="M-27 -16q0 126 76 254q1 12 -4.5 38.5t-5.5 38.5q0 82 59 179t150 165t174 68q50 0 87.5 -23t56.5 -59q20 -37 30 -83q9 -42 8 -82v-8q-1 -44 -8 -85q21 13 67 40t74 44t68 45t74 57q32 -23 32 -75q-74 -120 -366 -267q-19 -18 -55.5 -75t-78 -119t-90 -123.5t-106 -101 t-111.5 -39.5q-59 0 -95 72t-36 139zM80 -68q71 14 157 85t136 143q-15 -3 -52.5 -12t-54.5 -12t-57.5 -6.5t-61.5 3.5q-5 -13 -20 -47t-22 -52t-15 -47t-10 -55zM125 358q11 7 81.5 82.5t96.5 75.5q20 0 34 -21.5t19 -44t6 -42.5q-14 -25 -35.5 -50t-52 -56t-43.5 -46 q48 3 139 30.5t115 51.5q54 122 54 194q0 82 -103 82q-50 0 -99 -24t-88.5 -64t-69 -81t-54.5 -87z" />
<glyph unicode="p" horiz-adv-x="796" d="M-322 -657q0 32 15 98q190 767 702 1444q9 14 27.5 32.5t28.5 18.5q21 0 38 -33t19 -57q-1 -3 -78 -139.5t-161.5 -287.5t-98.5 -181l2 -2q54 54 139 110.5t138 56.5q42 0 79 -46.5t37 -88.5q0 -39 -8 -55q74 56 144.5 117t118.5 108t85.5 85.5t56 59.5t19.5 21 q16 0 21.5 -32t3.5 -56q-99 -137 -232 -259.5t-309 -258.5l-14 -14q-80 -85 -204.5 -167.5t-211.5 -82.5q-39 0 -62 26q-12 -8 -55.5 -114.5t-94 -241t-54.5 -143.5q-5 -19 -17 -19q-26 0 -50 36t-24 65zM66 -86l6 4q38 22 89 47.5t82.5 41t70 41t64 53.5t50 72.5 t41.5 102.5q-93 -26 -221.5 -144.5t-179.5 -211.5z" />
<glyph unicode="q" horiz-adv-x="796" d="M-70 238q0 71 54.5 168.5t132.5 181.5t171.5 143.5t164.5 59.5q62 0 102.5 -41t56.5 -105q13 11 38 33t45 40t36 34q8 8 41.5 43.5t64.5 67t68 66.5t67.5 56t47.5 21q23 0 37 -37t14 -66q0 -1 -1 -4t-1 -4q-17 -23 -52.5 -63.5t-39.5 -45.5q-248 -309 -410 -669 q-48 -104 -136.5 -342.5t-88.5 -294.5q0 -7 4 -18.5t4 -18.5q0 -17 -7.5 -35t-20.5 -18q-35 0 -71 49.5t-36 85.5q0 42 21 141q46 219 106 390.5t160 346.5l6 11h-2q-88 -91 -248.5 -226t-214.5 -135q-35 0 -62.5 35t-39 76t-11.5 74zM94 248l2 -2q27 15 56.5 34t51 33 t54.5 39.5t48.5 37t53 42.5t47 39t51.5 43.5t48 40.5q-24 33 -60 33l-1 1q-36 0 -75 -28q-40 -28 -79.5 -65t-80 -88t-67 -88t-49.5 -72z" />
<glyph unicode="r" horiz-adv-x="759" d="M-68 -205q0 48 51.5 129t113.5 152t137 154.5t100 117.5q-9 2 -45.5 8t-68 12t-69 14t-64 16t-36.5 16q-14 11 -31.5 62t-17.5 73q0 69 74 148t143 79q35 0 56.5 -33t21.5 -71q0 -42 -98 -174q7 -1 22 -3q42 -6 63.5 -10t55 -15.5t50 -27.5t29.5 -45.5t13 -70.5 q0 -44 -38.5 -111t-85.5 -124t-104 -125.5t-79 -100.5q111 47 222 132t187 164.5t182 191.5t179 177q33 -6 43 -67q-13 -22 -16 -25q-30 -33 -107 -125t-140 -166t-156 -168.5t-171.5 -158.5t-168.5 -109t-165 -45q-33 0 -57.5 46t-24.5 83zM72 532q36 22 77.5 60.5 t53.5 69.5q-90 -41 -131 -130z" />
<glyph unicode="s" horiz-adv-x="1021" d="M-53 -293q0 47 47 98q28 32 117.5 94t166 109t196.5 119.5t132 79.5q-49 12 -166.5 28.5t-179.5 34.5q-65 20 -98 70.5t-33 122.5t51.5 150.5t132.5 143t175 117t186.5 82t159.5 29.5q63 0 90.5 -31.5t27.5 -95.5q0 -21 -2 -31q-9 -53 -94.5 -132t-185.5 -137t-152 -58 q-29 0 -54.5 29t-29.5 61.5t19 56.5h34q57 0 191 66t174 110q-170 -3 -346 -113t-266 -249q69 -26 173.5 -45t198 -42.5t166.5 -66.5q25 10 123 57.5t181 84t104 35.5q18 0 28.5 -34.5t10.5 -56.5q-1 -8 -66.5 -34.5t-158 -66t-140.5 -71.5q22 -25 30 -69q5 -28 5 -57 q0 -17 -2 -34q-12 -133 -78 -217q-111 -144 -268.5 -232.5t-329.5 -88.5q-49 0 -93 8.5t-86 28t-66.5 57.5t-24.5 90zM118 -318q-11 -22 17 -22q167 0 332.5 86.5t271.5 224.5q0 1 12 17.5t18 25.5t15.5 24.5t14 26.5t4.5 19q0 17 -29 43t-41 20q-49 -23 -256 -168 q-328 -229 -359 -297z" />
<glyph unicode="t" horiz-adv-x="372" d="M-438 848q0 27 13 43t36 17q152 0 446 48q82 13 217.5 37t217.5 37q7 1 125 101t137 100t34 -34.5t15 -57.5q0 -7 -2 -14.5t-3.5 -11.5t-7 -12.5t-6.5 -10.5t-9 -12t-9 -11q92 4 291 26.5t311 22.5q34 0 54 -0.5t60 -3.5t66.5 -8.5t59.5 -17t52.5 -28t33.5 -42t14 -58.5 q0 -36 -18.5 -70t-49.5 -34q-11 3 -13.5 20.5t-8.5 22.5q-27 24 -123 33.5t-176 9.5q-71 0 -148.5 -1.5t-209.5 -7.5t-227.5 -22.5t-119.5 -40.5q-125 -158 -329 -506q-219 -369 -398 -815q-4 -11 -13 -33t-13 -34q35 -30 35 -59q0 -18 -13 -35q-9 -12 -41 -17.5t-43 4.5 q-36 24 -47.5 61.5t-11.5 90.5q0 115 65 304t160.5 379t197 360.5t181.5 273.5q-52 -8 -146.5 -24t-150.5 -24.5t-136.5 -16t-152.5 -7.5q-2 0 -30.5 -0.5t-38.5 0t-35 2.5t-36.5 7.5t-27 13.5t-22 22t-6.5 33z" />
<glyph unicode="u" horiz-adv-x="843" d="M-6 266q0 42 74 171t153.5 240t95.5 111q20 0 41 -45.5t21 -68.5q0 -17 -56.5 -113t-126 -207t-81.5 -133l2 -2q45 7 130 62t148 105t117 97q7 7 16 19q39 55 120.5 145t105.5 90q17 0 39 -39t22 -65q-34 -52 -94.5 -136.5t-105.5 -155.5t-83 -151q53 0 133 49.5 t144.5 108.5t116.5 108.5t57 49.5q18 0 30 -23t17 -45q-28 -60 -114 -151t-191.5 -164.5t-171.5 -73.5q-39 0 -68 19.5t-45 52t-23.5 66.5t-8.5 69q-10 -7 -78 -60t-119 -82.5t-86 -29.5q-54 0 -92.5 62t-38.5 120z" />
<glyph unicode="v" horiz-adv-x="856" d="M-10 84q0 72 33 156q1 3 25 62.5t48 116t53 121t53.5 104.5t37.5 40q24 0 44.5 -42.5t20.5 -68.5q0 -12 -36.5 -117t-82 -231.5t-51.5 -144.5q123 72 201.5 126t155.5 128q8 8 8 14q15 86 33 140.5t59 119.5q46 73 109 134t124 61q30 0 47 -28t17 -60q0 -47 -36.5 -110.5 t-76.5 -109.5t-102 -111.5t-78 -84.5q30 -23 66 -23q48 0 109 33t106 72.5t81 72.5t41 33q23 -10 33 -55l-2 -10q-57 -74 -168 -162t-178 -88q-39 0 -76 22t-59 56q-352 -352 -445 -352q-35 0 -62.5 34.5t-39.5 76t-12 75.5zM629 481q29 24 93 98.5t71 98.5 q-91 -62 -164 -197z" />
<glyph unicode="w" horiz-adv-x="1071" d="M-47 256q0 64 60 152t122 141q19 14 27 14q21 0 42.5 -34t18.5 -56q-14 -34 -64 -96.5t-63 -97.5q35 21 69.5 44.5t74.5 53.5t63.5 48.5t73.5 58.5t69 55q24 -19 33.5 -33t18.5 -41q-6 -63 -32.5 -142.5t-53 -141.5t-46.5 -144q-17 -68 -17 -131q0 -13 1 -25q42 3 102 51 t119.5 118t102.5 126.5t74 102.5l4 18q-4 24 -4 37q0 52 32 139.5t72 87.5q35 0 62.5 -34t27.5 -70q0 -7 -29 -75.5t-36 -80.5q53 11 110.5 38t96.5 52.5t102.5 70t97.5 66.5q25 -22 31 -57q-18 -46 -118 -119t-214 -122q-83 -36 -133 -36q-18 0 -31 5q-21 -14 -75.5 -92.5 t-110 -160t-126.5 -149t-124 -67.5q-33 0 -61 24.5t-44 61.5t-25 74t-9 67q0 150 84 348q-148 -128 -219 -166q-45 -24 -72 -24q-33 0 -58.5 51.5t-25.5 89.5z" />
<glyph unicode="x" horiz-adv-x="770" d="M-10 68q0 25 41.5 70.5t106 101.5t71.5 63q-17 49 -39 85.5t-38.5 51t-28 24.5t-11.5 15q0 15 16.5 54.5t24.5 39.5q18 0 34 -6t28 -14.5t24.5 -24.5t20 -27.5t17 -33t13.5 -32.5t12.5 -33.5t10.5 -28.5q75 63 228.5 169.5t191.5 106.5q13 0 21.5 -24t8.5 -41v-15 q-16 -19 -122 -91q-105 -70 -201 -138q-98 -69 -98 -85q0 -23 45 -59q48 -38 84 -38q26 0 61 14q91 36 158.5 83t128.5 118q34 39 123 157q30 -22 36 -56q1 -8 1 -15q0 -25 -15 -45q-35 -50 -70.5 -96t-94 -111.5t-110.5 -112t-113.5 -80.5t-111.5 -34q-18 0 -34.5 4 t-29 8.5t-26.5 16.5t-22 18.5t-20 24.5t-17 24.5t-15.5 29t-13 27.5t-13 30t-11.5 27h-2q-7 -6 -69.5 -62.5t-102 -90t-45.5 -33.5q-12 0 -22.5 25t-10.5 39z" />
<glyph unicode="y" horiz-adv-x="976" d="M-350 -436q3 31 18.5 64t34.5 60.5t55 60t61.5 54.5t73.5 53.5t71.5 46.5t75 43t64.5 35t58 31q22 12 65.5 33t79 39.5t62.5 36.5q15 10 56 112t85 217.5t59 141.5q-39 -36 -90 -80.5t-128 -109t-141 -106.5t-91 -42q-39 0 -63.5 60t-24.5 106q0 82 65 198t137 197 q41 49 58 49q23 0 41 -40t18 -68q0 -16 -8 -29q-9 -17 -72.5 -122.5t-87.5 -166.5q5 3 19 8q69 29 168 105q151 114 280 225q25 21 79 80.5t97 104.5t56 45q15 0 26 -18.5t16 -45t7 -47t2 -33.5q-59 -76 -103 -153q-10 -17 -39 -66.5t-40 -68.5t-34.5 -60.5t-35.5 -66.5 t-29.5 -62t-31 -71.5t-25.5 -71.5q16 10 274 152.5t271 142.5q18 0 27.5 -28t9.5 -50q-59 -56 -174.5 -122.5t-254 -138t-200.5 -110.5q-6 -4 -24.5 -49t-47.5 -111.5t-68.5 -147t-95 -159.5t-119 -144.5t-148.5 -106t-177 -40.5q-85 0 -151 66t-66 151v17zM-266 -479 q0 -10 8 -10q88 0 176.5 40t160.5 105.5t129 143t93 157.5q-16 -4 -49 -21.5t-70.5 -40t-50.5 -28.5q-52 -28 -85 -46.5t-84 -51.5t-86 -61.5t-70.5 -66.5t-57.5 -77q-14 -23 -14 -43z" />
<glyph unicode="z" horiz-adv-x="843" d="M-1102 -471v11q0 73 53 75q16 2 29 -23q66 -61 212 -86q114 -20 213 -19q28 0 54 1q243 13 466.5 111.5t416.5 288.5t322 454q-62 21 -116 22h-10q-50 0 -112 -8q-68 -10 -113 -10q-23 0 -31 12.5t-8 36.5q0 14 3.5 27t6.5 22t13.5 21t14.5 17.5t19.5 17.5t18.5 14.5 t21.5 15t19.5 13.5q-142 -25 -205 -25q-29 0 -46.5 1t-43 6t-40 15t-25.5 29t-11 47q0 38 13.5 60t46.5 37q29 -22 51 -33t32 -12.5t27 -1.5q89 0 272 45t224 45q9 0 15 -21.5t6 -34.5q0 -27 -15 -52.5t-48 -51t-54 -39.5t-66 -39t-51 -29h59q33 -1 68 1q7 0 14 1 q28 0 54 -5q32 -6 56.5 -16.5t35.5 -34.5t4 -60q-32 -152 -110.5 -296.5t-186 -260t-238 -213.5t-268 -165.5t-274 -107.5t-258.5 -47q-17 -1 -36 -1q-35 0 -76 4q-63 6 -136.5 22.5t-134.5 43t-103 72.5t-45 103z" />
<glyph unicode="{" horiz-adv-x="739" d="M31 336q0 9 4.5 17.5t8.5 12.5l5 5q71 51 134 120t115.5 148.5t95 153t95 165.5t93.5 154q68 102 211 102q29 0 56 -5.5t55.5 -18.5t43.5 -41t10 -68q1 -8 -9.5 -12.5t-28 -4.5t-34 1t-33.5 2.5t-22 1.5q-64 0 -120.5 -22t-81.5 -72q-44 -87 -96 -178.5t-122.5 -208.5 t-103.5 -174q-23 -39 -47 -63t-65 -54l-2 -2l3 -7q3 -6 7.5 -16t9 -21.5t7.5 -26t3 -27.5q0 -30 -13.5 -75t-29.5 -84t-30 -82t-15 -70.5t17 -49.5q19 -8 43 -8q25 0 55 10t50.5 20.5t23.5 10.5q15 0 34 -25.5t25 -44.5v-4q-18 -45 -56 -74.5t-87 -29.5q-85 0 -145 73.5 t-60 159.5q0 56 44 179t44 135l-2 2q-38 0 -64 28.5t-26 67.5z" />
<glyph unicode="|" horiz-adv-x="544" d="M161.5 70q-12.5 331 7 654.5t58.5 635.5q19 181 33 209q18 29 50 34.5t83 -8.5q-7 -131 -48.5 -611.5t-39.5 -743.5q1 -87 7 -248t7 -213q9 -163 -2 -189q-36 -49 -88 -41q-55 190 -67.5 521z" />
<glyph unicode="}" horiz-adv-x="993" d="M6 -176q-1 8 9.5 12.5t28 4.5t34 -1t33.5 -2.5t22 -1.5q65 0 121.5 22t81.5 72q44 88 95 177.5t123.5 211.5t102.5 173q23 38 46.5 61.5t66.5 54.5l2 2l-3 6q-3 7 -8 17t-9.5 22t-7.5 26.5t-3 27.5q0 30 13.5 75t30 83.5t30.5 82t15 70.5t-17 49q-19 8 -43 8 q-25 0 -55 -10.5t-50.5 -20.5t-23.5 -10q-15 0 -34 25.5t-25 44.5v4q18 45 56 74.5t87 29.5q85 0 145 -73.5t60 -159.5q0 -56 -44 -178.5t-44 -134.5l2 -2q38 0 64 -29t26 -68q0 -9 -5 -17.5t-9 -12.5l-5 -4q-71 -51 -134 -120t-115 -149t-94.5 -153.5t-95 -165.5 t-93.5 -154q-68 -102 -211 -102q-29 0 -56.5 5.5t-56 18.5t-43.5 41t-10 68z" />
<glyph unicode="~" horiz-adv-x="1136" d="M164 532q-21 9 3 74.5t54 75.5q6 2 36 15t55.5 21.5t77.5 16.5t112 8q59 0 99 -14t56 -31t39 -32.5t52 -18.5q24 -2 53 1.5t50 8t39 7t27 -2t7 -18.5q-3 -22 -19.5 -52t-31.5 -49l-15 -20q-64 -16 -102.5 -13t-75 21t-61 38t-59.5 38t-71 21q-59 6 -136 -19.5t-130 -52 t-59 -23.5z" />
<glyph unicode="&#xa8;" horiz-adv-x="509" d="M131 1604q0 26 16 47.5t41 21.5q28 0 46 -30.5t22 -61.5q0 -26 -18.5 -53t-40.5 -27q-27 0 -46.5 36.5t-19.5 66.5zM297 1610q0 31 14.5 48t24.5 19t20 2q43 0 70 -90q7 -27 -31 -65q-16 -19 -33 -19q-25 0 -45 34.5t-20 70.5z" />
<glyph unicode="&#xad;" horiz-adv-x="788" d="M131 260q0 49 59 83t148.5 48.5t155 19.5t118.5 5q26 0 36 -0.5t28.5 -4t26 -10.5t14 -22t6.5 -37q0 -20 -2 -36t-12.5 -33.5t-30.5 -14.5q-111 14 -249 1t-257 -46q-18 -6 -29.5 9.5t-11.5 37.5z" />
<glyph unicode="&#xb4;" horiz-adv-x="444" d="M102 1384q46 41 82.5 96.5t46.5 108.5q4 11 18 7t25 -10t19 -13q33 -27 49 -56t6 -49q-9 -17 -23 -38t-38 -50t-47.5 -45.5t-52 -24.5t-52.5 13q-11 9 -26 33.5t-7 27.5z" />
<glyph unicode="&#xb8;" horiz-adv-x="335" d="M47 -127q0 15 22.5 23t61.5 13.5t51 8.5q-3 6 -12 26.5t-13 30t-8 26t-4 30.5q0 27 20.5 65.5t35.5 38.5q13 0 31 -28t18 -41q0 -11 -12.5 -34.5t-12.5 -27.5q0 -6 19 -16q47 -30 57 -101q0 -42 -53.5 -74t-108.5 -32q-92 0 -92 92z" />
<glyph unicode="&#xc0;" horiz-adv-x="1939" d="M125 -84q0 20 17.5 30.5t35.5 10.5q2 0 10 4q99 62 195 127q92 63 251.5 190t211.5 166q-140 8 -210 6.5t-209 -9.5t-210 -9q-13 -5 -26.5 23t-21 59t-7.5 45q0 24 6 40t13.5 24.5t25 12.5t29.5 4.5t38 0.5q108 0 279.5 -16.5t308 -34t142.5 -17.5l14 7q72 54 160 124 t132.5 107t163 137.5t138.5 116.5q68 58 137 110.5t166 118.5t189 106t157 40q21 0 47.5 -15.5t38.5 -17.5q23 -4 38 -44t15 -69q0 -18 -19 -39.5t-48.5 -44.5t-34.5 -28q-72 -75 -162 -191q-226 -288 -410 -682q-2 -7 0 -10q64 -94 64 -221q0 -147 -88.5 -304.5 t-212.5 -240.5q-35 -25 -57 -25q-37 0 -77 71.5t-40 117.5q0 79 75 287t128 309q-83 30 -225.5 70t-192.5 40q-14 0 -41 -18q-36 -28 -154.5 -144.5t-232 -226.5t-230.5 -200.5t-168 -89.5q-46 1 -97.5 77t-51.5 115zM1239 530q198 -46 334 -112q17 25 33 57t34.5 74.5 t26.5 60.5q154 322 387 570q26 26 31 32q-135 -62 -330 -233q-344 -294 -512 -444zM1464 -336q87 58 171.5 192t84.5 230q0 55 -49 111q-148 -330 -207 -533zM2314 1794q-10 20 6 48.5t50 55.5q8 7 18.5 13.5t24.5 10.5t18 -7q10 -53 46.5 -108.5t82.5 -96.5q8 -3 -7 -27.5 t-26 -33.5q-24 -21 -52.5 -13t-52 24.5t-47.5 45.5t-38 50t-23 38z" />
<glyph unicode="&#xc1;" horiz-adv-x="1939" d="M125 -84q0 20 17.5 30.5t35.5 10.5q2 0 10 4q99 62 195 127q92 63 251.5 190t211.5 166q-140 8 -210 6.5t-209 -9.5t-210 -9q-13 -5 -26.5 23t-21 59t-7.5 45q0 24 6 40t13.5 24.5t25 12.5t29.5 4.5t38 0.5q108 0 279.5 -16.5t308 -34t142.5 -17.5l14 7q72 54 160 124 t132.5 107t163 137.5t138.5 116.5q68 58 137 110.5t166 118.5t189 106t157 40q21 0 47.5 -15.5t38.5 -17.5q23 -4 38 -44t15 -69q0 -18 -19 -39.5t-48.5 -44.5t-34.5 -28q-72 -75 -162 -191q-226 -288 -410 -682q-2 -7 0 -10q64 -94 64 -221q0 -147 -88.5 -304.5 t-212.5 -240.5q-35 -25 -57 -25q-37 0 -77 71.5t-40 117.5q0 79 75 287t128 309q-83 30 -225.5 70t-192.5 40q-14 0 -41 -18q-36 -28 -154.5 -144.5t-232 -226.5t-230.5 -200.5t-168 -89.5q-46 1 -97.5 77t-51.5 115zM1239 530q198 -46 334 -112q17 25 33 57t34.5 74.5 t26.5 60.5q154 322 387 570q26 26 31 32q-135 -62 -330 -233q-344 -294 -512 -444zM1464 -336q87 58 171.5 192t84.5 230q0 55 -49 111q-148 -330 -207 -533zM2321 1720q-1 18 6 17q63 20 121 58t87 85q22 15 58 -43q21 -39 25 -73t-13 -50q-23 -17 -53 -35t-74.5 -37.5 t-83.5 -15.5t-59 37q-12 21 -14 57z" />
<glyph unicode="&#xc2;" horiz-adv-x="1939" d="M125 -84q0 20 17.5 30.5t35.5 10.5q2 0 10 4q99 62 195 127q92 63 251.5 190t211.5 166q-140 8 -210 6.5t-209 -9.5t-210 -9q-13 -5 -26.5 23t-21 59t-7.5 45q0 24 6 40t13.5 24.5t25 12.5t29.5 4.5t38 0.5q108 0 279.5 -16.5t308 -34t142.5 -17.5l14 7q72 54 160 124 t132.5 107t163 137.5t138.5 116.5q68 58 137 110.5t166 118.5t189 106t157 40q21 0 47.5 -15.5t38.5 -17.5q23 -4 38 -44t15 -69q0 -18 -19 -39.5t-48.5 -44.5t-34.5 -28q-72 -75 -162 -191q-226 -288 -410 -682q-2 -7 0 -10q64 -94 64 -221q0 -147 -88.5 -304.5 t-212.5 -240.5q-35 -25 -57 -25q-37 0 -77 71.5t-40 117.5q0 79 75 287t128 309q-83 30 -225.5 70t-192.5 40q-14 0 -41 -18q-36 -28 -154.5 -144.5t-232 -226.5t-230.5 -200.5t-168 -89.5q-46 1 -97.5 77t-51.5 115zM1239 530q198 -46 334 -112q17 25 33 57t34.5 74.5 t26.5 60.5q154 322 387 570q26 26 31 32q-135 -62 -330 -233q-344 -294 -512 -444zM1464 -336q87 58 171.5 192t84.5 230q0 55 -49 111q-148 -330 -207 -533zM2046 1778q0 26 22 39q42 23 89.5 59t73 58.5t82.5 76t69 64.5q16 16 26 16q19 0 35.5 -37t16.5 -69 q0 -19 -10.5 -58t-10.5 -59q0 -42 8 -58q10 5 13 5q22 0 34.5 -34.5t12.5 -64.5q0 -18 -16.5 -36.5t-28.5 -18.5q-78 0 -107 190q-176 -176 -250 -176q-22 0 -40.5 32.5t-18.5 70.5z" />
<glyph unicode="&#xc3;" horiz-adv-x="1939" d="M125 -84q0 -39 51.5 -115t97.5 -77q51 -1 168 89.5t230.5 200.5t232 226.5t154.5 144.5q27 18 41 18q50 0 192.5 -40t225.5 -70q-53 -101 -128 -309t-75 -287q0 -46 40 -117.5t77 -71.5q22 0 57 25q124 83 212.5 240.5t88.5 304.5q0 127 -64 221q-2 3 0 10 q184 394 410 682q90 116 162 191q5 5 34.5 28t48.5 44.5t19 39.5q0 29 -15 69t-38 44q-12 2 -38.5 17.5t-47.5 15.5q-65 0 -157 -40t-189 -106t-166 -118.5t-137 -110.5q-20 -16 -138.5 -116.5t-163 -137.5t-132.5 -107t-160 -124l-14 -7q-6 0 -142.5 17.5t-308 34 t-279.5 16.5q-26 0 -38 -0.5t-29.5 -4.5t-25 -12.5t-13.5 -24.5t-6 -40q0 -14 7.5 -45t21 -59t26.5 -23q71 1 210 9t209 9.5t210 -6.5q-52 -39 -211.5 -166t-251.5 -190q-96 -65 -195 -127q-8 -4 -10 -4q-18 0 -35.5 -10.5t-17.5 -30.5zM1239 530l4 5q168 150 512 444 q195 171 330 233q-5 -6 -31 -32q-233 -248 -387 -570q-8 -18 -26.5 -60.5t-34.5 -74.5t-33 -57q-136 66 -334 112zM1464 -336q59 203 207 533q49 -56 49 -111q0 -96 -84.5 -230t-171.5 -192zM2107 1675q-15 8 2.5 67t38.5 68q6 2 27.5 13.5t40.5 19.5t57 15.5t82 7.5 q36 0 61.5 -8.5t39.5 -20.5t25 -24t24.5 -21.5t31.5 -11.5t40 1t37.5 7t29 6.5t20 -1.5t5.5 -17q-3 -20 -15.5 -47.5t-23.5 -45.5l-11 -18q-47 -14 -75.5 -11.5t-55 19t-44.5 34.5t-44 34.5t-53 19.5q-44 5 -101 -18.5t-95.5 -47t-43.5 -20.5z" />
<glyph unicode="&#xc4;" horiz-adv-x="1939" d="M125 -84q0 20 17.5 30.5t35.5 10.5q2 0 10 4q99 62 195 127q92 63 251.5 190t211.5 166q-140 8 -210 6.5t-209 -9.5t-210 -9q-13 -5 -26.5 23t-21 59t-7.5 45q0 24 6 40t13.5 24.5t25 12.5t29.5 4.5t38 0.5q108 0 279.5 -16.5t308 -34t142.5 -17.5l14 7q72 54 160 124 t132.5 107t163 137.5t138.5 116.5q68 58 137 110.5t166 118.5t189 106t157 40q21 0 47.5 -15.5t38.5 -17.5q23 -4 38 -44t15 -69q0 -18 -19 -39.5t-48.5 -44.5t-34.5 -28q-72 -75 -162 -191q-226 -288 -410 -682q-2 -7 0 -10q64 -94 64 -221q0 -147 -88.5 -304.5 t-212.5 -240.5q-35 -25 -57 -25q-37 0 -77 71.5t-40 117.5q0 79 75 287t128 309q-83 30 -225.5 70t-192.5 40q-14 0 -41 -18q-36 -28 -154.5 -144.5t-232 -226.5t-230.5 -200.5t-168 -89.5q-46 1 -97.5 77t-51.5 115zM1239 530q198 -46 334 -112q17 25 33 57t34.5 74.5 t26.5 60.5q154 322 387 570q26 26 31 32q-135 -62 -330 -233q-344 -294 -512 -444zM1464 -336q87 58 171.5 192t84.5 230q0 55 -49 111q-148 -330 -207 -533zM2243 1739q0 26 16 47.5t41 21.5q28 0 45.5 -30t21.5 -62q0 -26 -18.5 -53t-40.5 -27q-27 0 -46 36.5t-19 66.5z M2408 1745q0 31 14.5 48t25 19.5t20.5 2.5q42 0 69 -91q7 -28 -30 -65q-16 -19 -33 -19q-25 0 -45.5 34.5t-20.5 70.5z" />
<glyph unicode="&#xc5;" horiz-adv-x="1939" d="M125 -84q0 20 17.5 30.5t35.5 10.5q2 0 10 4q99 62 195 127q92 63 251.5 190t211.5 166q-140 8 -210 6.5t-209 -9.5t-210 -9q-13 -5 -26.5 23t-21 59t-7.5 45q0 24 6 40t13.5 24.5t25 12.5t29.5 4.5t38 0.5q108 0 279.5 -16.5t308 -34t142.5 -17.5l14 7q72 54 160 124 t132.5 107t163 137.5t138.5 116.5q68 58 137 110.5t166 118.5t189 106t157 40q21 0 47.5 -15.5t38.5 -17.5q23 -4 38 -44t15 -69q0 -18 -19 -39.5t-48.5 -44.5t-34.5 -28q-72 -75 -162 -191q-226 -288 -410 -682q-2 -7 0 -10q64 -94 64 -221q0 -147 -88.5 -304.5 t-212.5 -240.5q-35 -25 -57 -25q-37 0 -77 71.5t-40 117.5q0 79 75 287t128 309q-83 30 -225.5 70t-192.5 40q-14 0 -41 -18q-36 -28 -154.5 -144.5t-232 -226.5t-230.5 -200.5t-168 -89.5q-46 1 -97.5 77t-51.5 115zM1239 530q198 -46 334 -112q17 25 33 57t34.5 74.5 t26.5 60.5q154 322 387 570q26 26 31 32q-135 -62 -330 -233q-344 -294 -512 -444zM1464 -336q87 58 171.5 192t84.5 230q0 55 -49 111q-148 -330 -207 -533zM2324 1694q0 54 38.5 121t74.5 67q58 0 107 -46t49 -114q-5 -63 -48 -121.5t-106 -58.5q-41 0 -78 46t-37 106z M2408 1651q50 0 85.5 50t41.5 83q-3 0 -7.5 1t-6.5 1q-40 0 -70 -44.5t-43 -90.5z" />
<glyph unicode="&#xc6;" horiz-adv-x="3469" d="M125 -84q0 20 17.5 30.5t35.5 10.5q2 0 10 4q99 62 195 127q92 63 251.5 190t211.5 166q-140 8 -210 6.5t-209 -9.5t-210 -9q-13 -5 -26.5 23t-21 59t-7.5 45q0 24 6 40t13.5 24.5t25 12.5t29.5 4.5t38 0.5q108 0 279.5 -16.5t308 -34t142.5 -17.5l14 7q72 54 160 124 t132.5 107t163 137.5t138.5 116.5q68 58 137 110.5t166 118.5t189 106t157 40q21 0 47.5 -15.5t38.5 -17.5q23 -4 38 -44t15 -69q0 -18 -19 -39.5t-48.5 -44.5t-34.5 -28q-72 -75 -162 -191q-226 -288 -410 -682q-2 -7 0 -10q64 -94 64 -221q0 -116 -64 -254q99 188 416 395 q11 7 90 50t97 61q-88 10 -158 70t-70 141q0 99 50 189t133.5 158.5t192 126.5t224.5 98t233.5 68t217 41t174.5 13q49 0 101.5 -8.5t106.5 -26.5t88 -54.5t34 -84.5q0 -71 -67.5 -146.5t-171.5 -136t-222.5 -110t-227 -76.5t-178.5 -27q-46 0 -71 47t-25 97q0 25 10.5 59.5 t26.5 34.5q16 -4 25.5 -29.5t25.5 -25.5q79 0 253 49t343 121.5t221 128.5q-41 21 -119.5 32t-142.5 11q-194 0 -394 -52.5t-385 -163t-296 -260.5q-17 -24 -35 -60.5t-18 -57.5q0 -27 57.5 -46.5t91.5 -19.5q97 0 219 35q10 3 30 9.5t32 10t28.5 6.5t30.5 3q19 0 29 -18 t9 -38.5t-5 -34.5q-9 -10 -60 -40t-117 -66t-75 -41q-58 -33 -86.5 -50t-98 -61t-111 -75t-99 -80t-90 -90t-56.5 -90.5t-24 -94.5q0 -8 36 -16t50 -8q145 0 322 56t339 140t333.5 196.5t300.5 211.5t245 199q4 3 37 35t61.5 57.5t32.5 25.5q11 0 20 -23.5t9 -37.5 q0 -18 -5.5 -28.5t-19.5 -26.5q-289 -305 -664 -559.5t-747 -399.5q-228 -90 -375 -90q-95 0 -148.5 63t-53.5 160q0 76 36 144q-43 -87 -104 -160.5t-129 -120.5q-35 -25 -57 -25q-37 0 -77 71.5t-40 117.5q0 79 75 287t128 309q-83 30 -225.5 70t-192.5 40q-14 0 -41 -18 q-36 -28 -154.5 -144.5t-232 -226.5t-230.5 -200.5t-168 -89.5q-46 1 -97.5 77t-51.5 115zM1239 530q198 -46 334 -112q17 25 33 57t34.5 74.5t26.5 60.5q154 322 387 570l31 32q-135 -62 -330 -233q-344 -294 -512 -444zM1464 -336q87 58 171.5 192t84.5 230q0 55 -49 111 q-148 -330 -207 -533z" />
<glyph unicode="&#xc7;" horiz-adv-x="1566" d="M-20 -33q0 337 354 707q352 366 825 565q158 66 402.5 128.5t388.5 62.5q51 0 99 -50.5t74.5 -117.5t26.5 -123q0 -37 -114 -127.5t-255.5 -184t-280 -197.5t-175.5 -161q-11 -17 -13.5 -55.5t-9.5 -63.5t-30 -22q-31 0 -50.5 49t-19.5 86q0 76 33.5 146.5t90.5 128 t127 111t147.5 104t147 97t130.5 100.5t94 105h-37q-113 0 -333 -67q-263 -76 -472 -178q-116 -57 -245.5 -143t-265.5 -204t-244.5 -243.5t-178 -270.5t-69.5 -276q0 -279 313 -279q173 0 355 105q457 267 868 809q1 1 14 19.5t24 31t15 12.5q14 0 32 -28.5t15 -42.5 q-64 -110 -190 -259t-271 -290.5t-302 -261.5t-273 -170q-112 -48 -229 -60v-2q0 -11 -12.5 -34t-12.5 -27q0 -8 19 -17q47 -30 57 -100q0 -42 -53.5 -74t-108.5 -32q-92 0 -92 92q0 15 22.5 23t61.5 13.5t51 8.5q-3 7 -12 26.5t-13 29t-8 26t-4 30.5q0 20 8 39 q-126 13 -223.5 88t-147.5 184.5t-50 233.5z" />
<glyph unicode="&#xc8;" horiz-adv-x="1529" d="M-254 -330q0 64 32.5 132.5t79.5 125.5t112.5 115.5t119.5 98t113 77.5q10 6 89 49.5t97 61.5q-88 10 -157.5 70t-69.5 141q0 99 50 189t133 158.5t191.5 126.5t225 98t233.5 68t216.5 41t174.5 13q49 0 101.5 -8.5t106.5 -26.5t88 -54.5t34 -84.5q0 -71 -67.5 -146.5 t-171.5 -136t-222 -110t-226.5 -76.5t-178.5 -27q-46 0 -71 47t-25 97q0 25 10.5 59.5t26.5 34.5q16 -4 25.5 -29.5t25.5 -25.5q79 0 253 49t343 121.5t221 128.5q-41 21 -119.5 32t-142.5 11q-194 0 -394 -52.5t-385 -163t-296 -260.5q-18 -24 -36 -60.5t-18 -57.5 q0 -27 57.5 -46.5t92.5 -19.5q96 0 219 35q10 3 30 9.5t32 10t28.5 6.5t30.5 3q19 0 29 -18t9 -38.5t-5 -34.5q-9 -10 -60 -40t-117 -66t-75 -41q-234 -135 -351 -228q-215 -173 -215 -313q0 -8 36 -16t50 -8q145 0 322 56t339 140t333.5 196.5t300.5 211.5t245 199 q3 3 36.5 35t62.5 57.5t33 25.5q11 0 19.5 -23.5t8.5 -37.5q0 -28 -24 -55q-289 -305 -664 -559.5t-747 -399.5q-228 -90 -375 -90q-95 0 -149 63t-54 160zM643 1468q-10 20 6 49t49 56q8 7 19 13t25 10t18 -7q10 -53 46.5 -108.5t82.5 -96.5q8 -3 -7 -27.5t-26 -33.5 q-24 -21 -52.5 -13t-52 24.5t-47.5 45.5t-38 50t-23 38z" />
<glyph unicode="&#xc9;" horiz-adv-x="1529" d="M-254 -330q0 64 32.5 132.5t79.5 125.5t112.5 115.5t119.5 98t113 77.5q10 6 89 49.5t97 61.5q-88 10 -157.5 70t-69.5 141q0 99 50 189t133 158.5t191.5 126.5t225 98t233.5 68t216.5 41t174.5 13q49 0 101.5 -8.5t106.5 -26.5t88 -54.5t34 -84.5q0 -71 -67.5 -146.5 t-171.5 -136t-222 -110t-226.5 -76.5t-178.5 -27q-46 0 -71 47t-25 97q0 25 10.5 59.5t26.5 34.5q16 -4 25.5 -29.5t25.5 -25.5q79 0 253 49t343 121.5t221 128.5q-41 21 -119.5 32t-142.5 11q-194 0 -394 -52.5t-385 -163t-296 -260.5q-18 -24 -36 -60.5t-18 -57.5 q0 -27 57.5 -46.5t92.5 -19.5q96 0 219 35q10 3 30 9.5t32 10t28.5 6.5t30.5 3q19 0 29 -18t9 -38.5t-5 -34.5q-9 -10 -60 -40t-117 -66t-75 -41q-234 -135 -351 -228q-215 -173 -215 -313q0 -8 36 -16t50 -8q145 0 322 56t339 140t333.5 196.5t300.5 211.5t245 199 q3 3 36.5 35t62.5 57.5t33 25.5q11 0 19.5 -23.5t8.5 -37.5q0 -28 -24 -55q-289 -305 -664 -559.5t-747 -399.5q-228 -90 -375 -90q-95 0 -149 63t-54 160zM784 1481q46 41 82.5 96.5t46.5 108.5q4 11 18 7t25 -10.5t19 -13.5q33 -27 49 -55.5t6 -48.5q-7 -13 -18 -30 t-29 -41t-36.5 -41.5t-42 -33t-44.5 -14.5t-43 14q-11 9 -26 34t-7 28z" />
<glyph unicode="&#xca;" horiz-adv-x="1529" d="M-254 -330q0 64 32.5 132.5t79.5 125.5t112.5 115.5t119.5 98t113 77.5q10 6 89 49.5t97 61.5q-88 10 -157.5 70t-69.5 141q0 99 50 189t133 158.5t191.5 126.5t225 98t233.5 68t216.5 41t174.5 13q49 0 101.5 -8.5t106.5 -26.5t88 -54.5t34 -84.5q0 -71 -67.5 -146.5 t-171.5 -136t-222 -110t-226.5 -76.5t-178.5 -27q-46 0 -71 47t-25 97q0 25 10.5 59.5t26.5 34.5q16 -4 25.5 -29.5t25.5 -25.5q79 0 253 49t343 121.5t221 128.5q-41 21 -119.5 32t-142.5 11q-194 0 -394 -52.5t-385 -163t-296 -260.5q-18 -24 -36 -60.5t-18 -57.5 q0 -27 57.5 -46.5t92.5 -19.5q96 0 219 35q10 3 30 9.5t32 10t28.5 6.5t30.5 3q19 0 29 -18t9 -38.5t-5 -34.5q-9 -10 -60 -40t-117 -66t-75 -41q-234 -135 -351 -228q-215 -173 -215 -313q0 -8 36 -16t50 -8q145 0 322 56t339 140t333.5 196.5t300.5 211.5t245 199 q3 3 36.5 35t62.5 57.5t33 25.5q11 0 19.5 -23.5t8.5 -37.5q0 -28 -24 -55q-289 -305 -664 -559.5t-747 -399.5q-228 -90 -375 -90q-95 0 -149 63t-54 160zM809 1528q0 26 22 39q42 23 89.5 59t73 58.5t82.5 76t69 64.5q16 16 26 16q19 0 35.5 -37t16.5 -69q0 -19 -10.5 -58 t-10.5 -59q0 -41 8 -57q8 4 13 4q22 0 34.5 -34.5t12.5 -64.5q0 -18 -16.5 -36.5t-28.5 -18.5q-78 0 -107 191q-177 -177 -250 -177q-22 0 -40.5 32.5t-18.5 70.5z" />
<glyph unicode="&#xcb;" horiz-adv-x="1529" d="M-254 -330q0 64 32.5 132.5t79.5 125.5t112.5 115.5t119.5 98t113 77.5q10 6 89 49.5t97 61.5q-88 10 -157.5 70t-69.5 141q0 99 50 189t133 158.5t191.5 126.5t225 98t233.5 68t216.5 41t174.5 13q49 0 101.5 -8.5t106.5 -26.5t88 -54.5t34 -84.5q0 -71 -67.5 -146.5 t-171.5 -136t-222 -110t-226.5 -76.5t-178.5 -27q-46 0 -71 47t-25 97q0 25 10.5 59.5t26.5 34.5q16 -4 25.5 -29.5t25.5 -25.5q79 0 253 49t343 121.5t221 128.5q-41 21 -119.5 32t-142.5 11q-194 0 -394 -52.5t-385 -163t-296 -260.5q-18 -24 -36 -60.5t-18 -57.5 q0 -27 57.5 -46.5t92.5 -19.5q96 0 219 35q10 3 30 9.5t32 10t28.5 6.5t30.5 3q19 0 29 -18t9 -38.5t-5 -34.5q-9 -10 -60 -40t-117 -66t-75 -41q-234 -135 -351 -228q-215 -173 -215 -313q0 -8 36 -16t50 -8q145 0 322 56t339 140t333.5 196.5t300.5 211.5t245 199 q3 3 36.5 35t62.5 57.5t33 25.5q11 0 19.5 -23.5t8.5 -37.5q0 -28 -24 -55q-289 -305 -664 -559.5t-747 -399.5q-228 -90 -375 -90q-95 0 -149 63t-54 160zM850 1505q0 27 16 48.5t41 21.5q28 0 46 -30.5t22 -61.5q0 -26 -19 -53t-41 -27q-27 0 -46 36t-19 66zM1016 1511 q0 24 7.5 39.5t19.5 21.5t19 7.5t13 1.5q43 0 70 -90q7 -28 -31 -66q-15 -18 -33 -18q-25 0 -45 34t-20 70z" />
<glyph unicode="&#xcc;" horiz-adv-x="1077" d="M-82 -233q1 25 10.5 35.5t32.5 21.5q83 -53 113 -53q54 0 112 20.5t110.5 53.5t110 85.5t105 104t102.5 122t95.5 128t89.5 133t79.5 125t72 117t59.5 96.5q17 27 54.5 81.5t66.5 100.5t45 84q-53 -15 -107 -12q-65 3 -118 59q-45 47 -34 81q9 26 54 26q72 0 217 41.5 t207 78.5q21 13 75.5 58t103 76.5t83.5 31.5q47 0 47 -71q0 -42 -29 -74q-65 -74 -159.5 -142t-124.5 -98q-21 -21 -43.5 -53t-37.5 -56t-38.5 -65.5t-32.5 -56.5q-28 -47 -78.5 -141t-100 -187t-116.5 -209.5t-131 -218t-141 -201t-149.5 -170t-153 -114t-154.5 -43.5 q-52 0 -120.5 27t-122.5 76t-54 102zM1081 1694q-10 20 6 48.5t50 55.5q8 7 18.5 13.5t24.5 10.5t18 -7q10 -53 46.5 -108.5t82.5 -96.5q8 -3 -7 -28t-26 -34q-22 -13 -43 -14t-44.5 14.5t-42 33t-36.5 41.5t-29 41t-18 30z" />
<glyph unicode="&#xcd;" horiz-adv-x="1077" d="M-82 -233q1 25 10.5 35.5t32.5 21.5q83 -53 113 -53q54 0 112 20.5t110.5 53.5t110 85.5t105 104t102.5 122t95.5 128t89.5 133t79.5 125t72 117t59.5 96.5q17 27 54.5 81.5t66.5 100.5t45 84q-53 -15 -107 -12q-65 3 -118 59q-45 47 -34 81q9 26 54 26q72 0 217 41.5 t207 78.5q21 13 75.5 58t103 76.5t83.5 31.5q47 0 47 -71q0 -42 -29 -74q-65 -74 -159.5 -142t-124.5 -98q-21 -21 -43.5 -53t-37.5 -56t-38.5 -65.5t-32.5 -56.5q-28 -47 -78.5 -141t-100 -187t-116.5 -209.5t-131 -218t-141 -201t-149.5 -170t-153 -114t-154.5 -43.5 q-52 0 -120.5 27t-122.5 76t-54 102zM1079 1585q46 41 82.5 96.5t46.5 108.5q4 11 18 7t25 -10t19 -13q33 -27 49 -56t6 -49q-9 -17 -23 -38t-38 -50t-47.5 -45.5t-52 -24.5t-52.5 13q-11 9 -26 33.5t-7 27.5z" />
<glyph unicode="&#xce;" horiz-adv-x="1077" d="M-82 -233q1 25 10.5 35.5t32.5 21.5q83 -53 113 -53q54 0 112 20.5t110.5 53.5t110 85.5t105 104t102.5 122t95.5 128t89.5 133t79.5 125t72 117t59.5 96.5q17 27 54.5 81.5t66.5 100.5t45 84q-53 -15 -107 -12q-65 3 -118 59q-45 47 -34 81q9 26 54 26q72 0 217 41.5 t207 78.5q21 13 75.5 58t103 76.5t83.5 31.5q47 0 47 -71q0 -42 -29 -74q-65 -74 -159.5 -142t-124.5 -98q-21 -21 -43.5 -53t-37.5 -56t-38.5 -65.5t-32.5 -56.5q-28 -47 -78.5 -141t-100 -187t-116.5 -209.5t-131 -218t-141 -201t-149.5 -170t-153 -114t-154.5 -43.5 q-52 0 -120.5 27t-122.5 76t-54 102zM975 1681q0 26 22 39q42 23 89.5 59t73 58.5t82.5 76t69 64.5q17 17 26 17q19 0 35.5 -37.5t16.5 -69.5q0 -20 -10.5 -58t-10.5 -58q0 -42 8 -58q8 4 13 4q22 0 34.5 -34.5t12.5 -63.5q0 -18 -16.5 -36.5t-28.5 -18.5q-78 0 -107 190 q-176 -176 -250 -176q-22 0 -40.5 32t-18.5 70z" />
<glyph unicode="&#xcf;" horiz-adv-x="1077" d="M-82 -233q1 25 10.5 35.5t32.5 21.5q83 -53 113 -53q54 0 112 20.5t110.5 53.5t110 85.5t105 104t102.5 122t95.5 128t89.5 133t79.5 125t72 117t59.5 96.5q17 27 54.5 81.5t66.5 100.5t45 84q-53 -15 -107 -12q-65 3 -118 59q-45 47 -34 81q9 26 54 26q72 0 217 41.5 t207 78.5q21 13 75.5 58t103 76.5t83.5 31.5q47 0 47 -71q0 -42 -29 -74q-65 -74 -159.5 -142t-124.5 -98q-21 -21 -43.5 -53t-37.5 -56t-38.5 -65.5t-32.5 -56.5q-28 -47 -78.5 -141t-100 -187t-116.5 -209.5t-131 -218t-141 -201t-149.5 -170t-153 -114t-154.5 -43.5 q-52 0 -120.5 27t-122.5 76t-54 102zM1092 1591q0 27 16 48.5t41 21.5q28 0 46 -30.5t22 -61.5q0 -26 -19 -53t-41 -27q-27 0 -46 36t-19 66zM1257 1597q0 31 14.5 48t25 19.5t20.5 2.5q42 0 69 -90q7 -29 -30 -66q-15 -18 -33 -18q-25 0 -45.5 34.5t-20.5 69.5z" />
<glyph unicode="&#xd0;" horiz-adv-x="1910" d="M59 553q15 87 122.5 190.5t269.5 200.5t369 188.5t416.5 159t416.5 107.5t364 39q65 -1 110.5 -9.5t85 -31t59.5 -66t20 -108.5q0 -109 -59.5 -233t-156 -239.5t-226 -235.5t-261 -220.5t-271 -195t-246.5 -159t-195 -112.5q-153 -81 -342 -154q-125 -47 -127 -47 q-13 0 -20 23.5t-7 40.5q0 36 14 53q11 6 23 29q4 8 9 15.5t9 12.5t11 11.5t10.5 10t12.5 11t13 10.5q169 142 191 162q11 10 21.5 21.5t25.5 30t20 24.5l148 170q-105 -15 -189 -39q-18 -6 -29.5 9.5t-11.5 37.5q0 37 34.5 65.5t92.5 45.5t114 26.5t120 14.5 q150 190 215 342q58 130 70 192q3 14 23 -23q43 -78 61 -165q6 -28 6 -47q0 -87 -168 -310q24 -15 24 -59q0 -20 -2 -36t-12.5 -33.5t-30.5 -14.5q-41 6 -88 6q-188 -221 -289 -307l2 -2q119 55 212 110t217 140q69 47 171.5 125.5t235 191.5t243.5 221t188 215.5t77 174.5 q0 29 -22.5 50t-58.5 30t-65.5 12.5t-56.5 3.5q-202 0 -407.5 -39t-391 -106t-376 -166t-358 -209.5t-341.5 -245.5q-21 6 -31.5 35.5t-7.5 54.5z" />
<glyph unicode="&#xd1;" horiz-adv-x="2144" d="M86 672q0 -39 12.5 -85.5t42.5 -86t70 -39.5q15 0 18.5 7.5t-1.5 21t-11.5 31t-11 37t1.5 40.5q15 81 89 174t176.5 174.5t221 157t224 128.5t184.5 81q-28 -44 -95.5 -120t-84.5 -97q-756 -933 -756 -1366q0 -54 36 -99t99 -71q118 105 305 279.5t331 310.5t338 304 t358.5 294.5t356 246.5t365.5 193q-40 -44 -116.5 -125.5t-118 -128t-99.5 -114.5t-105 -134.5t-91 -138.5q-90 -151 -178 -352t-88 -314q0 -219 118 -219q11 0 10.5 10.5t-5 32t5.5 55.5q52 172 158 384.5t238.5 416t291.5 380t303 267.5q16 -16 22 -16q12 0 26.5 30 t14.5 46q-11 50 -63 99.5t-103 49.5q-76 0 -187.5 -42.5t-225.5 -107t-254.5 -160t-254 -180.5t-246.5 -191.5t-208 -170t-162 -137.5q-192 -163 -598 -551l-12 -10l6 20q55 128 123 258t152.5 265t156 243t178.5 252.5t172 229.5t181 235q30 42 30 62q0 68 -25.5 103.5 t-90.5 35.5q-97 0 -227 -35.5t-265.5 -96.5t-267.5 -148t-235 -184t-166.5 -211.5t-63.5 -223.5zM1778 1675q-15 8 2.5 67t38.5 68q6 2 27 13.5t40 19.5t57 15.5t82 7.5t73.5 -12.5t41.5 -28t29.5 -29.5t38.5 -16q18 -2 39.5 1t37 7t29 6.5t20 -1.5t5.5 -17 q-3 -20 -15 -47.5t-23 -45.5l-11 -18q-47 -14 -75.5 -11.5t-55.5 19t-45 34.5t-44 34.5t-53 19.5q-44 5 -100.5 -18.5t-95 -47t-43.5 -20.5z" />
<glyph unicode="&#xd2;" horiz-adv-x="1705" d="M-96 682q0 92 50 189.5t135 184.5t198.5 171.5t240 155t260 130.5t258 101.5t234 64.5t188.5 23q396 0 396 -377q0 -104 -20 -245t-54 -216q-43 -94 -124 -218.5t-191 -262t-237 -275.5t-268.5 -263t-278.5 -222t-275 -154t-250 -57q-77 0 -130.5 41.5t-76 103 t-22.5 136.5q0 254 174 518q65 100 185 237t275 282.5t314.5 269.5t318.5 204t271 80q47 0 83.5 -47t36.5 -96q0 -9 -4.5 -15t-26.5 -0.5t-59 33.5q-44 0 -129 -29q-216 -78 -470.5 -264.5t-468.5 -416t-326 -435.5q-99 -183 -99 -354v-9q0 -25 1 -36t6.5 -24t18.5 -18 t36 -5q93 0 208 50.5t227 132.5t233 193t226.5 224t208 235t175.5 217t131 177l41 57q40 57 52 75.5t48.5 74t52 87t38 77t31.5 82t9 67.5q0 47 -35.5 82.5t-89 53t-104 26t-92.5 8.5q-101 0 -243.5 -35t-297.5 -95t-310 -146.5t-281 -183t-211 -211.5t-99 -226 q14 -7 28.5 -24t14.5 -31q0 -46 -37 -46q-41 0 -67.5 71.5t-26.5 121.5zM1438 2109q-10 20 6 49t49 56q8 7 19 13t24.5 10t17.5 -7q10 -53 46.5 -108.5t82.5 -96.5q8 -3 -6.5 -27.5t-25.5 -33.5q-24 -21 -52.5 -13t-52 24.5t-47.5 45.5t-38 50t-23 38z" />
<glyph unicode="&#xd3;" horiz-adv-x="1705" d="M-96 682q0 92 50 189.5t135 184.5t198.5 171.5t240 155t260 130.5t258 101.5t234 64.5t188.5 23q396 0 396 -377q0 -104 -20 -245t-54 -216q-43 -94 -124 -218.5t-191 -262t-237 -275.5t-268.5 -263t-278.5 -222t-275 -154t-250 -57q-77 0 -130.5 41.5t-76 103 t-22.5 136.5q0 254 174 518q65 100 185 237t275 282.5t314.5 269.5t318.5 204t271 80q47 0 83.5 -47t36.5 -96q0 -9 -4.5 -15t-26.5 -0.5t-59 33.5q-44 0 -129 -29q-216 -78 -470.5 -264.5t-468.5 -416t-326 -435.5q-99 -183 -99 -354v-9q0 -25 1 -36t6.5 -24t18.5 -18 t36 -5q93 0 208 50.5t227 132.5t233 193t226.5 224t208 235t175.5 217t131 177l41 57q40 57 52 75.5t48.5 74t52 87t38 77t31.5 82t9 67.5q0 47 -35.5 82.5t-89 53t-104 26t-92.5 8.5q-101 0 -243.5 -35t-297.5 -95t-310 -146.5t-281 -183t-211 -211.5t-99 -226 q14 -7 28.5 -24t14.5 -31q0 -46 -37 -46q-41 0 -67.5 71.5t-26.5 121.5zM1395 2030q46 41 82.5 96.5t46.5 107.5q4 11 17.5 7t24.5 -10t19 -13q33 -27 49 -55.5t6 -48.5q-7 -13 -18 -30t-29 -41t-36.5 -41.5t-42 -33t-44.5 -14.5t-43 14q-11 9 -25.5 34t-6.5 28z" />
<glyph unicode="&#xd4;" horiz-adv-x="1705" d="M-96 682q0 92 50 189.5t135 184.5t198.5 171.5t240 155t260 130.5t258 101.5t234 64.5t188.5 23q396 0 396 -377q0 -104 -20 -245t-54 -216q-43 -94 -124 -218.5t-191 -262t-237 -275.5t-268.5 -263t-278.5 -222t-275 -154t-250 -57q-77 0 -130.5 41.5t-76 103 t-22.5 136.5q0 254 174 518q65 100 185 237t275 282.5t314.5 269.5t318.5 204t271 80q47 0 83.5 -47t36.5 -96q0 -9 -4.5 -15t-26.5 -0.5t-59 33.5q-44 0 -129 -29q-216 -78 -470.5 -264.5t-468.5 -416t-326 -435.5q-99 -183 -99 -354v-9q0 -25 1 -36t6.5 -24t18.5 -18 t36 -5q93 0 208 50.5t227 132.5t233 193t226.5 224t208 235t175.5 217t131 177l41 57q40 57 52 75.5t48.5 74t52 87t38 77t31.5 82t9 67.5q0 47 -35.5 82.5t-89 53t-104 26t-92.5 8.5q-101 0 -243.5 -35t-297.5 -95t-310 -146.5t-281 -183t-211 -211.5t-99 -226 q14 -7 28.5 -24t14.5 -31q0 -46 -37 -46q-41 0 -67.5 71.5t-26.5 121.5zM1497 1956q0 26 23 39q42 23 88.5 58.5t73.5 59t81.5 75t69.5 65.5q16 16 27 16q19 0 35 -37t16 -69q0 -19 -10.5 -58t-10.5 -59q0 -41 8 -57q8 4 13 4q22 0 34.5 -34.5t12.5 -64.5q0 -18 -16.5 -36.5 t-28.5 -18.5q-78 0 -107 191q-177 -177 -250 -177q-22 0 -40.5 32.5t-18.5 70.5z" />
<glyph unicode="&#xd5;" horiz-adv-x="1705" d="M-96 682q0 -50 26.5 -121.5t67.5 -71.5q37 0 37 46q0 14 -14.5 31t-28.5 24q14 111 99 226t211 211.5t281 183t310 146.5t297.5 95t243.5 35q42 0 92.5 -8.5t104 -26t89 -53t35.5 -82.5q0 -31 -9 -67.5t-31.5 -82t-38 -77t-52 -87t-48.5 -74t-52 -75.5l-41 -57 q-58 -82 -131 -177t-175.5 -217t-208 -235t-226.5 -224t-233 -193t-227 -132.5t-208 -50.5q-23 0 -36 5t-18.5 18t-6.5 24t-1 36v9q0 171 99 354q112 206 326 435.5t468.5 416t470.5 264.5q85 29 129 29q37 -28 59 -33.5t26.5 0.5t4.5 15q0 49 -36.5 96t-83.5 47 q-112 0 -271 -80t-318.5 -204t-314.5 -269.5t-275 -282.5t-185 -237q-174 -264 -174 -518q0 -75 22.5 -136.5t76 -103t130.5 -41.5q112 0 250 57t275 154t278.5 222t268.5 263t237 275.5t191 262t124 218.5q34 75 54 216t20 245q0 377 -396 377q-79 0 -188.5 -23t-234 -64.5 t-258 -101.5t-260 -130.5t-240 -155t-198.5 -171.5t-135 -184.5t-50 -189.5zM1507 1884q-15 8 2.5 67t38.5 68q6 2 27.5 13.5t40.5 19.5t57 15.5t82 7.5q36 0 61.5 -8.5t39.5 -20.5t25 -24t24.5 -21.5t31.5 -11.5t39.5 1t37 7t29 6.5t20 -1.5t5.5 -17q-3 -20 -15 -47.5 t-23 -45.5l-11 -18q-47 -14 -75.5 -11.5t-55 19t-44.5 34.5t-44 34.5t-53 19.5q-44 5 -101 -18.5t-95.5 -47t-43.5 -20.5z" />
<glyph unicode="&#xd6;" horiz-adv-x="1705" d="M-96 682q0 92 50 189.5t135 184.5t198.5 171.5t240 155t260 130.5t258 101.5t234 64.5t188.5 23q396 0 396 -377q0 -104 -20 -245t-54 -216q-43 -94 -124 -218.5t-191 -262t-237 -275.5t-268.5 -263t-278.5 -222t-275 -154t-250 -57q-77 0 -130.5 41.5t-76 103 t-22.5 136.5q0 254 174 518q65 100 185 237t275 282.5t314.5 269.5t318.5 204t271 80q47 0 83.5 -47t36.5 -96q0 -9 -4.5 -15t-26.5 -0.5t-59 33.5q-44 0 -129 -29q-216 -78 -470.5 -264.5t-468.5 -416t-326 -435.5q-99 -183 -99 -354v-9q0 -25 1 -36t6.5 -24t18.5 -18 t36 -5q93 0 208 50.5t227 132.5t233 193t226.5 224t208 235t175.5 217t131 177l41 57q40 57 52 75.5t48.5 74t52 87t38 77t31.5 82t9 67.5q0 47 -35.5 82.5t-89 53t-104 26t-92.5 8.5q-101 0 -243.5 -35t-297.5 -95t-310 -146.5t-281 -183t-211 -211.5t-99 -226 q14 -7 28.5 -24t14.5 -31q0 -46 -37 -46q-41 0 -67.5 71.5t-26.5 121.5zM1577 1987q0 26 16 47.5t41 21.5q28 0 46 -30.5t22 -61.5q0 -26 -19 -53t-41 -27q-27 0 -46 36.5t-19 66.5zM1743 1993q0 31 14.5 48t24.5 19t20 2q43 0 70 -90q7 -27 -31 -65q-16 -19 -33 -19 q-25 0 -45 34.5t-20 70.5z" />
<glyph unicode="&#xd8;" horiz-adv-x="1705" d="M-96 682q0 96 54 197.5t146 191.5t212 177t255 158.5t272 130t265 97.5t233 56q137 202 250 321q34 -14 54.5 -49.5t25.5 -77.5q-4 -35 -96 -190q289 -49 289 -369q0 -104 -20 -245t-54 -216q-62 -135 -197.5 -323.5t-307.5 -381t-380 -369.5t-391 -273 q-42 -101 -168 -377q-73 22 -107 55t-34 86q0 22 39 137q-40 -6 -78 -6q-77 0 -130.5 41.5t-76 103t-22.5 136.5q0 254 174 518q113 173 363.5 426.5t498.5 427.5q115 215 217 387q-142 -35 -297.5 -96t-310 -146.5t-281 -182.5t-211 -212t-98.5 -225q14 -7 28.5 -24 t14.5 -31q0 -46 -37 -46q-41 0 -67.5 71.5t-26.5 121.5zM12 -340v-9q0 -25 1 -36t6.5 -24t18.5 -18t36 -5q108 0 256 74q238 610 522 1183q-233 -179 -434 -398t-307 -413q-99 -183 -99 -354zM668 -123q224 193 443.5 450t371.5 470l41 57q40 57 52 75.5t48.5 74t52 87 t38 77t31.5 82t9 67.5q0 43 -31 77t-80 52.5t-96 28t-92 12.5l-131 -232q85 29 150 29q47 0 83.5 -47t36.5 -96q0 -9 -4.5 -15t-26.5 -0.5t-59 33.5q-44 0 -129 -29q-66 -23 -159 -69l-19 -37q-95 -172 -197.5 -390t-161 -353.5t-171.5 -403.5z" />
<glyph unicode="&#xd9;" horiz-adv-x="1976" d="M121 668q0 82 91 205.5t214 230.5t255.5 184.5t209.5 77.5q49 0 88.5 -42t58.5 -96t19 -102q0 -76 -39 -180t-101.5 -215.5t-137.5 -236t-150.5 -256.5t-137.5 -260t-100.5 -263.5t-38.5 -251.5q18 -6 37 -6q76 0 171.5 52t193.5 141t206.5 207.5t212 252t209 275 t199 275t179.5 252.5t153 208.5t118 141.5t76 53q43 -18 43 -84v-14q-14 -34 -52 -90.5t-85.5 -122.5t-64.5 -93q-59 -93 -115 -194t-118 -228.5t-98.5 -251t-33.5 -212.5q49 -1 103.5 31.5t91.5 70.5t84.5 91t66.5 71q30 -8 39.5 -25.5t5.5 -56.5q-10 -13 -41 -54.5 t-52.5 -70t-57 -68t-64.5 -64.5t-64 -43t-65 -18q-44 0 -80.5 30.5t-57 76t-31.5 93t-11 87.5q0 26 4.5 55t11 63t9.5 54l-15 -16q-25 -32 -82.5 -108.5t-112 -149t-131 -168t-146 -176.5t-150.5 -163t-152 -139.5t-143 -93.5t-129 -36q-53 0 -92.5 34.5t-59.5 88.5 t-29.5 106.5t-9.5 101.5q0 122 29 244t79 230t111 213.5t129.5 210.5t130.5 203t118.5 209.5t88.5 213.5h-14q-19 -10 -82 -40.5t-105.5 -51.5t-111.5 -59.5t-117 -70t-103.5 -75.5t-90 -84t-57.5 -88t-23 -94q0 -6 -25 -21q-24 0 -41.5 36t-17.5 63zM1364 1509q-10 20 6 49 t49 56q8 7 19 13t25 10t18 -7q10 -53 46.5 -108.5t82.5 -96.5q8 -3 -7 -27.5t-26 -33.5q-24 -21 -52.5 -13t-52 24.5t-47.5 45.5t-38 50t-23 38z" />
<glyph unicode="&#xda;" horiz-adv-x="1976" d="M121 668q0 82 91 205.5t214 230.5t255.5 184.5t209.5 77.5q49 0 88.5 -42t58.5 -96t19 -102q0 -76 -39 -180t-101.5 -215.5t-137.5 -236t-150.5 -256.5t-137.5 -260t-100.5 -263.5t-38.5 -251.5q18 -6 37 -6q76 0 171.5 52t193.5 141t206.5 207.5t212 252t209 275 t199 275t179.5 252.5t153 208.5t118 141.5t76 53q43 -18 43 -84v-14q-14 -34 -52 -90.5t-85.5 -122.5t-64.5 -93q-59 -93 -115 -194t-118 -228.5t-98.5 -251t-33.5 -212.5q49 -1 103.5 31.5t91.5 70.5t84.5 91t66.5 71q30 -8 39.5 -25.5t5.5 -56.5q-10 -13 -41 -54.5 t-52.5 -70t-57 -68t-64.5 -64.5t-64 -43t-65 -18q-44 0 -80.5 30.5t-57 76t-31.5 93t-11 87.5q0 26 4.5 55t11 63t9.5 54l-15 -16q-25 -32 -82.5 -108.5t-112 -149t-131 -168t-146 -176.5t-150.5 -163t-152 -139.5t-143 -93.5t-129 -36q-53 0 -92.5 34.5t-59.5 88.5 t-29.5 106.5t-9.5 101.5q0 122 29 244t79 230t111 213.5t129.5 210.5t130.5 203t118.5 209.5t88.5 213.5h-14q-19 -10 -82 -40.5t-105.5 -51.5t-111.5 -59.5t-117 -70t-103.5 -75.5t-90 -84t-57.5 -88t-23 -94q0 -6 -25 -21q-24 0 -41.5 36t-17.5 63zM1321 1573 q46 41 82.5 96.5t46.5 108.5q4 11 18 7t24.5 -10.5t18.5 -13.5q34 -27 50 -55.5t6 -48.5q-7 -13 -18 -30t-29 -41t-36.5 -41.5t-42 -33t-44.5 -14.5t-43 14q-11 9 -26 34t-7 28z" />
<glyph unicode="&#xdb;" horiz-adv-x="1976" d="M121 668q0 82 91 205.5t214 230.5t255.5 184.5t209.5 77.5q49 0 88.5 -42t58.5 -96t19 -102q0 -76 -39 -180t-101.5 -215.5t-137.5 -236t-150.5 -256.5t-137.5 -260t-100.5 -263.5t-38.5 -251.5q18 -6 37 -6q76 0 171.5 52t193.5 141t206.5 207.5t212 252t209 275 t199 275t179.5 252.5t153 208.5t118 141.5t76 53q43 -18 43 -84v-14q-14 -34 -52 -90.5t-85.5 -122.5t-64.5 -93q-59 -93 -115 -194t-118 -228.5t-98.5 -251t-33.5 -212.5q49 -1 103.5 31.5t91.5 70.5t84.5 91t66.5 71q30 -8 39.5 -25.5t5.5 -56.5q-10 -13 -41 -54.5 t-52.5 -70t-57 -68t-64.5 -64.5t-64 -43t-65 -18q-44 0 -80.5 30.5t-57 76t-31.5 93t-11 87.5q0 26 4.5 55t11 63t9.5 54l-15 -16q-25 -32 -82.5 -108.5t-112 -149t-131 -168t-146 -176.5t-150.5 -163t-152 -139.5t-143 -93.5t-129 -36q-53 0 -92.5 34.5t-59.5 88.5 t-29.5 106.5t-9.5 101.5q0 122 29 244t79 230t111 213.5t129.5 210.5t130.5 203t118.5 209.5t88.5 213.5h-14q-19 -10 -82 -40.5t-105.5 -51.5t-111.5 -59.5t-117 -70t-103.5 -75.5t-90 -84t-57.5 -88t-23 -94q0 -6 -25 -21q-24 0 -41.5 36t-17.5 63zM1137 1618q0 26 22 39 q42 23 89.5 59t73 58.5t82.5 76t69 64.5q16 16 26 16q19 0 35 -37t16 -69q0 -19 -10 -58t-10 -59q0 -41 8 -57q8 4 12 4q22 0 34.5 -34.5t12.5 -64.5q0 -18 -16.5 -36.5t-28.5 -18.5q-77 0 -106 191q-176 -176 -250 -176q-22 0 -40.5 32t-18.5 70z" />
<glyph unicode="&#xdc;" horiz-adv-x="1976" d="M121 668q0 82 91 205.5t214 230.5t255.5 184.5t209.5 77.5q49 0 88.5 -42t58.5 -96t19 -102q0 -76 -39 -180t-101.5 -215.5t-137.5 -236t-150.5 -256.5t-137.5 -260t-100.5 -263.5t-38.5 -251.5q18 -6 37 -6q76 0 171.5 52t193.5 141t206.5 207.5t212 252t209 275 t199 275t179.5 252.5t153 208.5t118 141.5t76 53q43 -18 43 -84v-14q-14 -34 -52 -90.5t-85.5 -122.5t-64.5 -93q-59 -93 -115 -194t-118 -228.5t-98.5 -251t-33.5 -212.5q49 -1 103.5 31.5t91.5 70.5t84.5 91t66.5 71q30 -8 39.5 -25.5t5.5 -56.5q-10 -13 -41 -54.5 t-52.5 -70t-57 -68t-64.5 -64.5t-64 -43t-65 -18q-44 0 -80.5 30.5t-57 76t-31.5 93t-11 87.5q0 26 4.5 55t11 63t9.5 54l-15 -16q-25 -32 -82.5 -108.5t-112 -149t-131 -168t-146 -176.5t-150.5 -163t-152 -139.5t-143 -93.5t-129 -36q-53 0 -92.5 34.5t-59.5 88.5 t-29.5 106.5t-9.5 101.5q0 122 29 244t79 230t111 213.5t129.5 210.5t130.5 203t118.5 209.5t88.5 213.5h-14q-19 -10 -82 -40.5t-105.5 -51.5t-111.5 -59.5t-117 -70t-103.5 -75.5t-90 -84t-57.5 -88t-23 -94q0 -6 -25 -21q-24 0 -41.5 36t-17.5 63zM1278 1688 q0 31 19.5 56t48.5 25q32 0 52.5 -35.5t24.5 -72.5q0 -31 -21.5 -62.5t-47.5 -31.5q-31 0 -53.5 43t-22.5 78zM1473 1696q0 27 9 45t22.5 24.5t22 8.5t15.5 2q31 0 50.5 -34t29.5 -71q9 -34 -35 -78q-17 -20 -39 -20q-29 0 -52 40.5t-23 82.5z" />
<glyph unicode="&#xdd;" horiz-adv-x="1910" d="M106 338q0 85 54.5 193t142.5 211t200.5 203.5t225.5 175.5t221.5 121t184.5 46q65 0 101 -53t36 -121q0 -39 -37.5 -119.5t-87 -163.5t-128.5 -200t-131 -190.5t-126.5 -176.5t-85.5 -119l-2 -8q71 38 148 89.5t132 92t142.5 115t124 107t134.5 122t120 109.5 q71 66 167 162q20 21 56.5 75t66.5 98.5t75 81t87 36.5q35 0 53.5 -36t18.5 -75q-68 -49 -107.5 -89.5t-70.5 -88.5q-66 -103 -114.5 -233t-72 -236t-59 -245t-72.5 -238q119 3 213 26.5t168 72t107.5 77t93.5 90.5q6 5 9 8t7 7.5t8 8.5q7 -16 7.5 -31t-3.5 -26.5 t-13.5 -24.5t-18 -21t-21 -20.5t-18.5 -19.5q-76 -86 -167 -139t-155.5 -72.5t-212.5 -52.5l-51 -12q-29 -65 -69.5 -125.5t-93.5 -116t-119.5 -89.5t-135.5 -34q-83 0 -161.5 50.5t-100.5 127.5q3 50 30 91.5t72 69.5t96 49t112 34.5t110 22.5t99 16q11 1 16 2 q30 46 131.5 377.5t101.5 365.5l-4 4q-18 -40 -137 -153t-261.5 -230t-278.5 -208t-183 -91q-54 0 -85.5 40t-31.5 96q0 32 126 208.5t272.5 373t173.5 245.5q15 26 53 129q-123 -3 -281 -85.5t-297 -202t-249.5 -262.5t-147.5 -261q-8 -24 -8 -39q8 -24 18 -39 q-23 -73 -66 -16q-34 45 -48 111q-3 13 -3 22zM864 -313q32 -34 75 -39.5t83 11t83 47.5t72.5 60t53.5 58q-239 -43 -367 -137zM1380 1534q46 41 82.5 96.5t46.5 108.5q4 11 18 7t25 -10.5t19 -13.5q33 -27 49 -55.5t6 -48.5q-9 -17 -23 -38t-38 -50t-47.5 -45.5t-52 -24.5 t-52.5 13q-11 9 -26 33.5t-7 27.5z" />
<glyph unicode="&#xe0;" horiz-adv-x="808" d="M-18 270q0 63 47.5 155.5t120.5 164.5t135 72q58 0 106.5 -34t65.5 -89q1 1 63.5 53t111 89.5t56.5 37.5q19 0 31 -33.5t12 -58.5q0 -29 -63 -101q-74 -77 -121 -161q-7 -11 -16 -34t-13 -30q34 -12 84.5 6.5t99 53.5t91 72t71 64t29.5 27q31 -11 31 -67 q-54 -80 -177 -189.5t-194 -109.5q-56 0 -90.5 60t-34.5 120q0 19 4 47q-5 -4 -34.5 -33.5t-50 -49t-55.5 -52t-62.5 -54.5t-58 -44.5t-55.5 -34t-42 -11.5q-39 0 -65.5 59t-26.5 105zM109 270l2 -2q36 12 157.5 107t124.5 121q-20 10 -49 10q-120 0 -235 -236zM305 954 q-10 20 6 49t49 56q8 7 19 13t25 10t18 -7q10 -53 46.5 -108.5t82.5 -96.5q8 -3 -7 -27.5t-26 -33.5q-24 -21 -52.5 -13t-52 24.5t-47.5 45.5t-38 50t-23 38z" />
<glyph unicode="&#xe1;" horiz-adv-x="808" d="M-18 270q0 63 47.5 155.5t120.5 164.5t135 72q58 0 106.5 -34t65.5 -89q1 1 63.5 53t111 89.5t56.5 37.5q19 0 31 -33.5t12 -58.5q0 -29 -63 -101q-74 -77 -121 -161q-7 -11 -16 -34t-13 -30q34 -12 84.5 6.5t99 53.5t91 72t71 64t29.5 27q31 -11 31 -67 q-54 -80 -177 -189.5t-194 -109.5q-56 0 -90.5 60t-34.5 120q0 19 4 47q-5 -4 -34.5 -33.5t-50 -49t-55.5 -52t-62.5 -54.5t-58 -44.5t-55.5 -34t-42 -11.5q-39 0 -65.5 59t-26.5 105zM109 270l2 -2q36 12 157.5 107t124.5 121q-20 10 -49 10q-120 0 -235 -236zM293 889 q46 41 82.5 96.5t46.5 108.5q4 11 18 7t24.5 -10.5t18.5 -13.5q34 -27 50 -55.5t6 -48.5q-7 -13 -18 -30t-29 -41t-36.5 -41.5t-42 -33t-44.5 -14.5t-43 14q-11 9 -26 34t-7 28z" />
<glyph unicode="&#xe2;" horiz-adv-x="808" d="M-18 270q0 63 47.5 155.5t120.5 164.5t135 72q58 0 106.5 -34t65.5 -89q1 1 63.5 53t111 89.5t56.5 37.5q19 0 31 -33.5t12 -58.5q0 -29 -63 -101q-74 -77 -121 -161q-7 -11 -16 -34t-13 -30q34 -12 84.5 6.5t99 53.5t91 72t71 64t29.5 27q31 -11 31 -67 q-54 -80 -177 -189.5t-194 -109.5q-56 0 -90.5 60t-34.5 120q0 19 4 47q-5 -4 -34.5 -33.5t-50 -49t-55.5 -52t-62.5 -54.5t-58 -44.5t-55.5 -34t-42 -11.5q-39 0 -65.5 59t-26.5 105zM109 270l2 -2q36 12 157.5 107t124.5 121q-20 10 -49 10q-120 0 -235 -236zM123 920 q0 25 22 38q42 23 89 59t73.5 59.5t81.5 75t70 65.5q16 16 26 16q19 0 35.5 -37.5t16.5 -69.5q0 -20 -10.5 -58t-10.5 -58q0 -42 8 -58q8 4 13 4q22 0 34.5 -34.5t12.5 -63.5q0 -18 -16.5 -36.5t-28.5 -18.5q-78 0 -107 190q-176 -176 -250 -176q-22 0 -40.5 32.5 t-18.5 70.5z" />
<glyph unicode="&#xe3;" horiz-adv-x="808" d="M-18 270q0 -46 26.5 -105t65.5 -59q17 0 42 11.5t55.5 34t58 44.5t62.5 54.5t55.5 52t50 49t34.5 33.5q-4 -28 -4 -47q0 -60 34.5 -120t90.5 -60q71 0 194 109.5t177 189.5q0 56 -31 67q-1 0 -29.5 -27t-71 -64t-91 -72t-99 -53.5t-84.5 -6.5q4 7 13 30t16 34 q47 84 121 161q63 72 63 101q0 25 -12 58.5t-31 33.5q-8 0 -56.5 -37.5t-111 -89.5t-63.5 -53q-17 55 -65.5 89t-106.5 34q-62 0 -135 -72t-120.5 -164.5t-47.5 -155.5zM78 885q-15 8 2.5 67t38.5 68q6 2 27.5 13t40.5 19t57 15.5t82 7.5q36 0 61.5 -8.5t39.5 -20.5t25 -24 t24.5 -21.5t31.5 -11.5t39.5 1t37 7t29 6.5t20 -1.5t5.5 -17q-3 -20 -15 -47.5t-23 -45.5l-11 -18q-49 -21 -90.5 -9t-63.5 33t-54.5 45t-64.5 28q-44 5 -100.5 -18.5t-95 -47t-43.5 -20.5zM109 270q115 236 235 236q29 0 49 -10q-3 -26 -124.5 -121t-157.5 -107z" />
<glyph unicode="&#xe4;" horiz-adv-x="808" d="M-18 270q0 63 47.5 155.5t120.5 164.5t135 72q58 0 106.5 -34t65.5 -89q1 1 63.5 53t111 89.5t56.5 37.5q19 0 31 -33.5t12 -58.5q0 -29 -63 -101q-74 -77 -121 -161q-7 -11 -16 -34t-13 -30q34 -12 84.5 6.5t99 53.5t91 72t71 64t29.5 27q31 -11 31 -67 q-54 -80 -177 -189.5t-194 -109.5q-56 0 -90.5 60t-34.5 120q0 19 4 47q-5 -4 -34.5 -33.5t-50 -49t-55.5 -52t-62.5 -54.5t-58 -44.5t-55.5 -34t-42 -11.5q-39 0 -65.5 59t-26.5 105zM109 270l2 -2q36 12 157.5 107t124.5 121q-20 10 -49 10q-120 0 -235 -236zM254 965 q0 26 16 47.5t41 21.5q28 0 46 -30.5t22 -61.5q0 -26 -19 -53t-41 -27q-27 0 -46 36.5t-19 66.5zM420 971q0 31 14.5 48t24.5 19t20 2q43 0 70 -90q7 -27 -31 -65q-16 -19 -33 -19q-25 0 -45 34.5t-20 70.5z" />
<glyph unicode="&#xe5;" horiz-adv-x="808" d="M-18 270q0 63 47.5 155.5t120.5 164.5t135 72q58 0 106.5 -34t65.5 -89q1 1 63.5 53t111 89.5t56.5 37.5q19 0 31 -33.5t12 -58.5q0 -29 -63 -101q-74 -77 -121 -161q-7 -11 -16 -34t-13 -30q34 -12 84.5 6.5t99 53.5t91 72t71 64t29.5 27q31 -11 31 -67 q-54 -80 -177 -189.5t-194 -109.5q-56 0 -90.5 60t-34.5 120q0 19 4 47q-5 -4 -34.5 -33.5t-50 -49t-55.5 -52t-62.5 -54.5t-58 -44.5t-55.5 -34t-42 -11.5q-39 0 -65.5 59t-26.5 105zM109 270l2 -2q36 12 157.5 107t124.5 121q-20 10 -49 10q-120 0 -235 -236zM246 924 q0 54 38 121t74 67q58 0 107 -46t49 -114q-5 -63 -48 -121.5t-106 -58.5q-41 0 -77.5 46t-36.5 106zM330 881q50 0 85.5 50t41.5 83q-3 0 -8 1t-7 1q-40 0 -69.5 -44t-42.5 -91z" />
<glyph unicode="&#xe6;" horiz-adv-x="1286" d="M-18 270q0 63 47.5 155.5t120.5 164.5t135 72q58 0 106.5 -34t65.5 -89q1 1 63.5 53t111 89.5t56.5 37.5q19 0 31 -33.5t12 -58.5q0 -29 -63 -101q-74 -77 -121 -161q-7 -11 -16 -34t-13 -30q34 -12 84.5 6.5t99 53.5t91 72t71 64t29.5 27l4 -4q121 109 217 109 q40 0 74.5 -43.5t34.5 -85.5q0 -48 -48 -102t-112.5 -88t-112.5 -34q-35 0 -63 46q-68 -93 -68 -160q0 -41 78 -41q64 0 142.5 44.5t146.5 108t127.5 127t99 108t47.5 44.5q11 0 19 -30.5t8 -47.5q0 -18 -64 -98.5t-148 -170t-177 -161.5t-142 -72q-100 0 -163.5 79 t-63.5 169q0 21 2 33q-110 -96 -178 -96q-56 0 -90.5 60t-34.5 120q0 19 4 47q-5 -4 -34.5 -33.5t-50 -49t-55.5 -52t-62.5 -54.5t-58 -44.5t-55.5 -34t-42 -11.5q-39 0 -65.5 59t-26.5 105zM109 270l2 -2q36 12 157.5 107t124.5 121q-20 10 -49 10q-120 0 -235 -236z M950 383q98 28 162 104q-81 -27 -162 -104z" />
<glyph unicode="&#xe7;" d="M16 266q0 120 76 257t189.5 245t252.5 180t257 72q58 0 88 -37.5t30 -97.5q0 -49 -62.5 -142t-145 -168t-130.5 -75q-31 0 -52 40.5t-21 75.5q0 22 6.5 28t23 1.5t19.5 -4.5q41 0 140 93t118 138q-89 -29 -184.5 -78t-190.5 -119.5t-167 -149t-110.5 -174.5t-25.5 -189 q5 -32 57.5 -47t96.5 -15q249 0 542 324q5 6 30.5 39.5t47.5 62.5t25 29q14 0 30.5 -27.5t18.5 -50.5q-46 -80 -111.5 -163.5t-147.5 -163.5t-179 -135.5t-187 -67.5l-8.5 -17t-8.5 -17.5t-3 -10.5q0 -8 18 -17q48 -31 58 -100q0 -42 -53.5 -74.5t-108.5 -32.5q-92 0 -92 93 q0 15 22.5 23t61.5 13.5t51 8.5q-3 7 -12 26.5t-13 29t-8 26t-4 30.5q0 15 2 21q-102 23 -169 116t-67 201z" />
<glyph unicode="&#xe8;" horiz-adv-x="518" d="M-39 221q0 58 38 130.5t93.5 133t125.5 102.5t128 42q40 0 74.5 -43.5t34.5 -85.5q0 -48 -48 -102t-112.5 -88t-112.5 -34q-35 0 -63 46q-68 -93 -68 -160q0 -41 78 -41q64 0 142.5 44.5t146.5 108t127.5 127t99 108t47.5 44.5q11 0 19 -30.5t8 -47.5q0 -18 -64 -98.5 t-148 -170t-177 -161.5t-142 -72q-100 0 -163.5 79t-63.5 169zM182 383q98 28 162 104q-81 -27 -162 -104zM186 926q-10 20 6 48.5t50 55.5q8 7 18.5 13.5t24.5 10.5t18 -7q10 -53 46.5 -108.5t82.5 -96.5q8 -3 -7 -28t-26 -34q-22 -13 -43 -14t-44.5 14.5t-42 33 t-36.5 41.5t-29 41t-18 30z" />
<glyph unicode="&#xe9;" horiz-adv-x="518" d="M-39 221q0 58 38 130.5t93.5 133t125.5 102.5t128 42q40 0 74.5 -43.5t34.5 -85.5q0 -48 -48 -102t-112.5 -88t-112.5 -34q-35 0 -63 46q-68 -93 -68 -160q0 -41 78 -41q64 0 142.5 44.5t146.5 108t127.5 127t99 108t47.5 44.5q11 0 19 -30.5t8 -47.5q0 -18 -64 -98.5 t-148 -170t-177 -161.5t-142 -72q-100 0 -163.5 79t-63.5 169zM174 877q46 41 82.5 96.5t46.5 107.5q4 11 18 7t25 -10t19 -13q33 -27 49 -55.5t6 -48.5q-7 -13 -18 -30t-29 -41t-36.5 -41.5t-42 -33t-44.5 -14.5t-43 14q-11 9 -26 34t-7 28zM182 383q98 28 162 104 q-81 -27 -162 -104z" />
<glyph unicode="&#xea;" horiz-adv-x="518" d="M-39 221q0 58 38 130.5t93.5 133t125.5 102.5t128 42q40 0 74.5 -43.5t34.5 -85.5q0 -48 -48 -102t-112.5 -88t-112.5 -34q-35 0 -63 46q-68 -93 -68 -160q0 -41 78 -41q64 0 142.5 44.5t146.5 108t127.5 127t99 108t47.5 44.5q11 0 19 -30.5t8 -47.5q0 -18 -64 -98.5 t-148 -170t-177 -161.5t-142 -72q-100 0 -163.5 79t-63.5 169zM102 856q0 22 19 31q34 19 71.5 47.5t59 47.5t65 60.5t56.5 53.5q15 12 22 12q16 0 28.5 -29.5t12.5 -56.5q0 -15 -8 -46t-8 -48q0 -33 6 -47q8 4 10 4q18 0 28.5 -27.5t10.5 -52.5q0 -13 -14 -29t-23 -16 q-64 0 -86 155q-143 -143 -202 -143q-18 0 -33 26t-15 58zM182 383q98 28 162 104q-81 -27 -162 -104z" />
<glyph unicode="&#xeb;" horiz-adv-x="518" d="M-39 221q0 58 38 130.5t93.5 133t125.5 102.5t128 42q40 0 74.5 -43.5t34.5 -85.5q0 -48 -48 -102t-112.5 -88t-112.5 -34q-35 0 -63 46q-68 -93 -68 -160q0 -41 78 -41q64 0 142.5 44.5t146.5 108t127.5 127t99 108t47.5 44.5q11 0 19 -30.5t8 -47.5q0 -18 -64 -98.5 t-148 -170t-177 -161.5t-142 -72q-100 0 -163.5 79t-63.5 169zM158 946q0 27 16 48.5t41 21.5q28 0 46 -30.5t22 -61.5q0 -26 -19 -53t-41 -27q-27 0 -46 36t-19 66zM182 383q98 28 162 104q-81 -27 -162 -104zM324 952q0 24 7.5 39.5t19.5 21.5t19 7.5t13 1.5q43 0 70 -90 q7 -28 -31 -66q-15 -18 -33 -18q-25 0 -45 34t-20 70z" />
<glyph unicode="&#xec;" horiz-adv-x="436" d="M-55 94q0 71 28 150q16 41 62 118.5t106 150.5t95 73q23 0 40 -30t23 -60q-1 -14 -98 -167t-111 -192h2q190 121 287 199t221 221q20 27 27 27q10 0 22.5 -23t12.5 -35q0 -22 -21 -43q-136 -155 -168 -190q-65 -70 -228 -201t-212 -131q-35 0 -61.5 47.5t-26.5 85.5z M170 963q-10 20 6 48.5t49 55.5q8 7 19 13t25 10t18 -7q10 -52 46.5 -107.5t82.5 -96.5q8 -3 -7 -28t-26 -34q-22 -13 -43 -14t-44.5 14.5t-42 33t-36.5 41.5t-29 41t-18 30z" />
<glyph unicode="&#xed;" horiz-adv-x="436" d="M-55 94q0 71 28 150q16 41 62 118.5t106 150.5t95 73q23 0 40 -30t23 -60q-1 -14 -98 -167t-111 -192h2q190 121 287 199t221 221q20 27 27 27q10 0 22.5 -23t12.5 -35q0 -22 -21 -43q-136 -155 -168 -190q-65 -70 -228 -201t-212 -131q-35 0 -61.5 47.5t-26.5 85.5z M182 958q46 41 82.5 96.5t46.5 108.5q4 11 18 7t25 -10t19 -13q33 -27 49 -56t6 -49q-9 -17 -23 -38t-38 -50t-47.5 -45.5t-52 -24.5t-52.5 13q-11 9 -26 33.5t-7 27.5z" />
<glyph unicode="&#xee;" horiz-adv-x="436" d="M-55 94q0 71 28 150q16 41 62 118.5t106 150.5t95 73q23 0 40 -30t23 -60q-1 -14 -98 -167t-111 -192h2q190 121 287 199t221 221q20 27 27 27q10 0 22.5 -23t12.5 -35q0 -22 -21 -43q-136 -155 -168 -190q-65 -70 -228 -201t-212 -131q-35 0 -61.5 47.5t-26.5 85.5z M104 887q0 19 19 28q32 18 68 45.5t57.5 47t62 57.5t54.5 51q12 12 20 12q14 0 27.5 -28t13.5 -53q0 -15 -8 -45t-8 -46q0 -33 6 -45q4 4 10 4q17 0 26 -27t9 -50q0 -13 -13 -28t-22 -15q-61 0 -82 149q-132 -137 -192 -137q-18 0 -33 25t-15 55z" />
<glyph unicode="&#xef;" horiz-adv-x="436" d="M-55 94q0 71 28 150q16 41 62 118.5t106 150.5t95 73q23 0 40 -30t23 -60q-1 -14 -98 -167t-111 -192h2q190 121 287 199t221 221q20 27 27 27q10 0 22.5 -23t12.5 -35q0 -22 -21 -43q-136 -155 -168 -190q-65 -70 -228 -201t-212 -131q-35 0 -61.5 47.5t-26.5 85.5z M133 1053q0 26 16 47.5t41 21.5q28 0 46 -30.5t22 -61.5q0 -26 -18.5 -53t-40.5 -27q-27 0 -46.5 36.5t-19.5 66.5zM299 1059q0 31 14.5 48t24.5 19t20 2q43 0 70 -90q7 -27 -31 -65q-16 -19 -32 -19q-25 0 -45.5 34.5t-20.5 70.5z" />
<glyph unicode="&#xf1;" horiz-adv-x="794" d="M4 233q0 -36 19 -78t49 -42q13 0 106 73.5t198 157t136 100.5q0 -3 -34 -75.5t-34 -118.5q0 -31 10.5 -70t35.5 -72.5t57 -33.5q54 0 142.5 72t158.5 154t100 134q3 53 -37 84q-38 -29 -106.5 -91t-126 -104.5t-121.5 -70.5q80 180 80 229q0 29 -18.5 69t-43.5 40 q-66 0 -428 -293q7 19 56 106.5t49 116.5q0 21 -15 57.5t-34 36.5q-30 0 -114.5 -167.5t-84.5 -213.5zM164 870q-15 8 2.5 67.5t38.5 68.5q6 2 27.5 13t40.5 19t57 15.5t82 7.5q36 0 61.5 -8.5t39.5 -20.5t25 -24t24.5 -21.5t31.5 -11.5t39.5 1t37 7t29 6.5t20 -1.5t5.5 -17 q-3 -20 -15 -47.5t-23 -45.5l-11 -18q-47 -14 -75.5 -11.5t-55.5 19t-45 34.5t-44 34.5t-53 19.5q-44 5 -100.5 -18.5t-95 -47t-43.5 -20.5z" />
<glyph unicode="&#xf2;" d="M-27 -16q0 126 76 254q1 12 -4.5 38.5t-5.5 38.5q0 82 59 179t150 165t174 68q50 0 87.5 -23t57 -59t29 -82.5t8.5 -90.5t-8 -85q21 13 67 40t74 44t68 45t74 57q32 -23 32 -75q-74 -120 -366 -267q-19 -18 -55.5 -75t-78 -119t-90 -123.5t-106 -101t-111.5 -39.5 q-59 0 -95 72t-36 139zM80 -68q71 14 157 85t136 143q-15 -3 -52.5 -12t-54.5 -12t-57.5 -6.5t-61.5 3.5q-5 -13 -20 -47t-22 -52t-15 -47t-10 -55zM125 358q11 7 81.5 82.5t96.5 75.5q20 0 34 -21.5t19 -44t6 -42.5q-14 -25 -35.5 -50t-52 -56t-43.5 -46q48 3 139 30.5 t115 51.5q54 122 54 194q0 82 -103 82q-50 0 -99 -24t-88.5 -64t-69 -81t-54.5 -87zM240 1059q-10 20 6 48.5t49 55.5q8 7 18.5 13.5t24.5 10.5t18 -7q10 -53 46.5 -108.5t82.5 -96.5q8 -3 -6.5 -28t-25.5 -34q-22 -13 -43 -14t-44.5 14.5t-42 33t-36.5 41.5t-29 41t-18 30z " />
<glyph unicode="&#xf3;" d="M-27 -16q0 126 76 254q1 12 -4.5 38.5t-5.5 38.5q0 82 59 179t150 165t174 68q50 0 87.5 -23t57 -59t29 -82.5t8.5 -90.5t-8 -85q21 13 67 40t74 44t68 45t74 57q32 -23 32 -75q-74 -120 -366 -267q-19 -18 -55.5 -75t-78 -119t-90 -123.5t-106 -101t-111.5 -39.5 q-59 0 -95 72t-36 139zM80 -68q71 14 157 85t136 143q-15 -3 -52.5 -12t-54.5 -12t-57.5 -6.5t-61.5 3.5q-5 -13 -20 -47t-22 -52t-15 -47t-10 -55zM125 358q11 7 81.5 82.5t96.5 75.5q20 0 34 -21.5t19 -44t6 -42.5q-14 -25 -35.5 -50t-52 -56t-43.5 -46q48 3 139 30.5 t115 51.5q54 122 54 194q0 82 -103 82q-50 0 -99 -24t-88.5 -64t-69 -81t-54.5 -87zM227 975q46 41 82.5 96.5t46.5 108.5q4 11 18 7t25 -10.5t19 -13.5q33 -27 49 -55.5t6 -48.5q-7 -13 -18 -30t-29 -41t-36.5 -41.5t-42 -33t-44.5 -14.5t-43 14q-11 9 -26 34t-7 28z" />
<glyph unicode="&#xf4;" d="M-27 -16q0 126 76 254q1 12 -4.5 38.5t-5.5 38.5q0 82 59 179t150 165t174 68q50 0 87.5 -23t57 -59t29 -82.5t8.5 -90.5t-8 -85q21 13 67 40t74 44t68 45t74 57q32 -23 32 -75q-74 -120 -366 -267q-19 -18 -55.5 -75t-78 -119t-90 -123.5t-106 -101t-111.5 -39.5 q-59 0 -95 72t-36 139zM80 -68q71 14 157 85t136 143q-15 -3 -52.5 -12t-54.5 -12t-57.5 -6.5t-61.5 3.5q-5 -13 -20 -47t-22 -52t-15 -47t-10 -55zM125 358q11 7 81.5 82.5t96.5 75.5q20 0 34 -21.5t19 -44t6 -42.5q-14 -25 -35.5 -50t-52 -56t-43.5 -46q48 3 139 30.5 t115 51.5q54 122 54 194q0 82 -103 82q-50 0 -99 -24t-88.5 -64t-69 -81t-54.5 -87zM150 981q0 26 22 39q42 23 88.5 58.5t73.5 59t81.5 75t69.5 65.5q16 16 27 16q19 0 35 -37t16 -69q0 -20 -10 -59t-10 -58q0 -41 8 -57q8 4 12 4q22 0 34.5 -34.5t12.5 -63.5 q0 -18 -17 -37t-28 -19q-77 0 -106 191q-176 -176 -250 -176q-22 0 -40.5 32t-18.5 70z" />
<glyph unicode="&#xf5;" d="M-27 -16q0 -67 36 -139t95 -72q54 0 111.5 39.5t106 101t90 123.5t78 119t55.5 75q292 147 366 267q0 52 -32 75q-34 -29 -74 -57t-68 -45t-74 -44t-67 -40q7 41 8 85t-8.5 90.5t-29 82.5t-57 59t-87.5 23q-83 0 -174 -68t-150 -165t-59 -179q0 -12 5.5 -38.5t4.5 -38.5 q-76 -128 -76 -254zM80 -68q2 26 10 55t15 47t22 52t20 47q21 -7 61.5 -3.5t57.5 6.5t54.5 12t52.5 12q-50 -72 -136 -143t-157 -85zM125 358q25 46 54.5 87t69 81t88.5 64t99 24q103 0 103 -82q0 -72 -54 -194q-24 -24 -115 -51.5t-139 -30.5q13 15 43.5 46t52 56t35.5 50 q-1 20 -6 42.5t-19 44t-34 21.5q-26 0 -96.5 -75.5t-81.5 -82.5zM150 948q-15 8 2 67t38 68q6 2 27.5 13.5t40.5 19.5t57 15.5t82 7.5t73.5 -12.5t41.5 -28t29.5 -29.5t38.5 -16q18 -2 39.5 1t37 7t29 6.5t20 -1.5t5.5 -17q-3 -20 -15 -47.5t-23 -45.5l-11 -18 q-47 -14 -75.5 -11.5t-55.5 19t-45 34.5t-44 34.5t-53 19.5q-44 5 -100.5 -18.5t-95 -47t-43.5 -20.5z" />
<glyph unicode="&#xf6;" d="M-27 -16q0 126 76 254q1 12 -4.5 38.5t-5.5 38.5q0 82 59 179t150 165t174 68q50 0 87.5 -23t57 -59t29 -82.5t8.5 -90.5t-8 -85q21 13 67 40t74 44t68 45t74 57q32 -23 32 -75q-74 -120 -366 -267q-19 -18 -55.5 -75t-78 -119t-90 -123.5t-106 -101t-111.5 -39.5 q-59 0 -95 72t-36 139zM80 -68q71 14 157 85t136 143q-15 -3 -52.5 -12t-54.5 -12t-57.5 -6.5t-61.5 3.5q-5 -13 -20 -47t-22 -52t-15 -47t-10 -55zM125 358q11 7 81.5 82.5t96.5 75.5q20 0 34 -21.5t19 -44t6 -42.5q-14 -25 -35.5 -50t-52 -56t-43.5 -46q48 3 139 30.5 t115 51.5q54 122 54 194q0 82 -103 82q-50 0 -99 -24t-88.5 -64t-69 -81t-54.5 -87zM250 987q0 27 16 48.5t41 21.5q28 0 46 -30.5t22 -61.5q0 -26 -19 -53t-41 -27q-27 0 -46 36t-19 66zM416 993q0 24 7.5 39.5t19.5 21.5t19 7.5t13 1.5q43 0 70 -90q7 -28 -31 -66 q-15 -18 -33 -18q-25 0 -45 34t-20 70z" />
<glyph unicode="&#xf8;" d="M-88 -401q0 10 12.5 40.5t30 68t20.5 44.5l39 84q-19 32 -30 74t-11 74q0 126 76 254q1 12 -4.5 38.5t-5.5 38.5q0 82 59 179t150 165t174 68q50 0 92 -27q127 178 240 279q41 -11 49 -64q-4 -21 -80 -127l-135 -198q26 -96 8 -203q21 13 67 40t74 44t68 45t74 57 q32 -23 32 -75q-74 -120 -366 -267q-21 -20 -70.5 -95.5t-97 -147t-116 -136t-130.5 -75.5q-43 -84 -133 -252q-44 12 -65 29.5t-21 44.5zM90 -12q13 27 39 76.5t35 66.5q-11 0 -17 2q-6 -14 -20 -45t-23 -54.5t-14 -45.5zM125 358q11 7 81.5 82.5t96.5 75.5q33 0 49 -57 q53 84 101 155h-17q-50 0 -99 -24t-88.5 -64t-69 -81t-54.5 -87zM231 256h2q0 1 1 2t2 2.5t2 3.5zM266 41q60 54 107 119l-54 -13zM403 297q61 20 82 41q50 109 54 178l-25 -37q-50 -75 -111 -182z" />
<glyph unicode="&#xf9;" horiz-adv-x="843" d="M-6 266q0 42 74 171t153.5 240t95.5 111q20 0 41 -45.5t21 -68.5q0 -17 -56.5 -113t-126 -207t-81.5 -133l2 -2q45 7 130 62t148 105t117 97q7 7 16 19q39 55 120.5 145t105.5 90q17 0 39 -39t22 -65q-34 -52 -94.5 -136.5t-105.5 -155.5t-83 -151q53 0 133 49.5 t144.5 108.5t116.5 108.5t57 49.5q18 0 30 -23t17 -45q-28 -60 -114 -151t-191.5 -164.5t-171.5 -73.5q-39 0 -68 19.5t-45 52t-23.5 66.5t-8.5 69q-10 -7 -78 -60t-119 -82.5t-86 -29.5q-54 0 -92.5 62t-38.5 120zM426 1069q-10 20 6 49t49 56q8 7 19 13t25 10t18 -7 q10 -53 46.5 -108.5t82.5 -96.5q8 -3 -7 -27.5t-26 -33.5q-24 -21 -52.5 -13t-52 24.5t-47.5 45.5t-38 50t-23 38z" />
<glyph unicode="&#xfa;" horiz-adv-x="843" d="M-6 266q0 42 74 171t153.5 240t95.5 111q20 0 41 -45.5t21 -68.5q0 -17 -56.5 -113t-126 -207t-81.5 -133l2 -2q45 7 130 62t148 105t117 97q7 7 16 19q39 55 120.5 145t105.5 90q17 0 39 -39t22 -65q-34 -52 -94.5 -136.5t-105.5 -155.5t-83 -151q53 0 133 49.5 t144.5 108.5t116.5 108.5t57 49.5q18 0 30 -23t17 -45q-28 -60 -114 -151t-191.5 -164.5t-171.5 -73.5q-39 0 -68 19.5t-45 52t-23.5 66.5t-8.5 69q-10 -7 -78 -60t-119 -82.5t-86 -29.5q-54 0 -92.5 62t-38.5 120zM389 1214q46 41 82.5 96.5t46.5 108.5q4 11 18 7t25 -10 t19 -13q33 -27 49 -56t6 -49q-9 -17 -23 -38t-38 -50t-47.5 -45.5t-52 -24.5t-52.5 13q-11 9 -26 33.5t-7 27.5z" />
<glyph unicode="&#xfb;" horiz-adv-x="843" d="M-6 266q0 42 74 171t153.5 240t95.5 111q20 0 41 -45.5t21 -68.5q0 -17 -56.5 -113t-126 -207t-81.5 -133l2 -2q45 7 130 62t148 105t117 97q7 7 16 19q39 55 120.5 145t105.5 90q17 0 39 -39t22 -65q-34 -52 -94.5 -136.5t-105.5 -155.5t-83 -151q53 0 133 49.5 t144.5 108.5t116.5 108.5t57 49.5q18 0 30 -23t17 -45q-28 -60 -114 -151t-191.5 -164.5t-171.5 -73.5q-39 0 -68 19.5t-45 52t-23.5 66.5t-8.5 69q-10 -7 -78 -60t-119 -82.5t-86 -29.5q-54 0 -92.5 62t-38.5 120zM295 1038q0 26 22 39q42 23 89.5 59t73 58.5t82.5 76 t69 64.5q17 17 26 17q19 0 35.5 -37.5t16.5 -69.5q0 -19 -10.5 -58t-10.5 -59q0 -41 8 -57q8 4 13 4q22 0 34.5 -34.5t12.5 -63.5q0 -18 -16.5 -36.5t-28.5 -18.5q-78 0 -107 190q-176 -176 -250 -176q-22 0 -40.5 32t-18.5 70z" />
<glyph unicode="&#xfc;" horiz-adv-x="843" d="M-6 266q0 42 74 171t153.5 240t95.5 111q20 0 41 -45.5t21 -68.5q0 -17 -56.5 -113t-126 -207t-81.5 -133l2 -2q45 7 130 62t148 105t117 97q7 7 16 19q39 55 120.5 145t105.5 90q17 0 39 -39t22 -65q-34 -52 -94.5 -136.5t-105.5 -155.5t-83 -151q53 0 133 49.5 t144.5 108.5t116.5 108.5t57 49.5q18 0 30 -23t17 -45q-28 -60 -114 -151t-191.5 -164.5t-171.5 -73.5q-39 0 -68 19.5t-45 52t-23.5 66.5t-8.5 69q-10 -7 -78 -60t-119 -82.5t-86 -29.5q-54 0 -92.5 62t-38.5 120zM457 1114q0 27 16 48.5t41 21.5q28 0 46 -30.5t22 -61.5 q0 -26 -19 -53t-41 -27q-27 0 -46 36t-19 66zM623 1120q0 24 7.5 39.5t19.5 21.5t19 7.5t13 1.5q43 0 70 -90q7 -28 -31 -66q-15 -18 -33 -18q-25 0 -45 34t-20 70z" />
<glyph unicode="&#xfd;" horiz-adv-x="976" d="M-350 -436q3 31 18.5 64t34.5 60.5t55 60t61.5 54.5t73.5 53.5t71.5 46.5t75 43t64.5 35t58 31q22 12 65.5 33t79 39.5t62.5 36.5q15 10 56 112t85 217.5t59 141.5q-39 -36 -90 -80.5t-128 -109t-141 -106.5t-91 -42q-39 0 -63.5 60t-24.5 106q0 82 65 198t137 197 q41 49 58 49q23 0 41 -40t18 -68q0 -16 -8 -29q-9 -17 -72.5 -122.5t-87.5 -166.5q5 3 19 8q69 29 168 105q151 114 280 225q25 21 79 80.5t97 104.5t56 45q15 0 26 -18.5t16 -45t7 -47t2 -33.5q-59 -76 -103 -153q-10 -17 -39 -66.5t-40 -68.5t-34.5 -60.5t-35.5 -66.5 t-29.5 -62t-31 -71.5t-25.5 -71.5q16 10 274 152.5t271 142.5q18 0 27.5 -28t9.5 -50q-59 -56 -174.5 -122.5t-254 -138t-200.5 -110.5q-6 -4 -24.5 -49t-47.5 -111.5t-68.5 -147t-95 -159.5t-119 -144.5t-148.5 -106t-177 -40.5q-85 0 -151 66t-66 151v17zM-266 -479 q0 -10 8 -10q88 0 176.5 40t160.5 105.5t129 143t93 157.5q-16 -4 -49 -21.5t-70.5 -40t-50.5 -28.5q-52 -28 -85 -46.5t-84 -51.5t-86 -61.5t-70.5 -66.5t-57.5 -77q-14 -23 -14 -43zM416 1253q46 41 82.5 96.5t46.5 108.5q4 11 17.5 7t24.5 -10t19 -13q34 -27 50 -56 t6 -49q-9 -17 -23 -38t-38 -50t-47.5 -45.5t-52 -24.5t-52.5 13q-11 9 -26 33.5t-7 27.5z" />
<glyph unicode="&#xff;" horiz-adv-x="976" d="M-350 -436q3 31 18.5 64t34.5 60.5t55 60t61.5 54.5t73.5 53.5t71.5 46.5t75 43t64.5 35t58 31q22 12 65.5 33t79 39.5t62.5 36.5q15 10 56 112t85 217.5t59 141.5q-39 -36 -90 -80.5t-128 -109t-141 -106.5t-91 -42q-39 0 -63.5 60t-24.5 106q0 82 65 198t137 197 q41 49 58 49q23 0 41 -40t18 -68q0 -16 -8 -29q-9 -17 -72.5 -122.5t-87.5 -166.5q5 3 19 8q69 29 168 105q151 114 280 225q25 21 79 80.5t97 104.5t56 45q15 0 26 -18.5t16 -45t7 -47t2 -33.5q-59 -76 -103 -153q-10 -17 -39 -66.5t-40 -68.5t-34.5 -60.5t-35.5 -66.5 t-29.5 -62t-31 -71.5t-25.5 -71.5q16 10 274 152.5t271 142.5q18 0 27.5 -28t9.5 -50q-59 -56 -174.5 -122.5t-254 -138t-200.5 -110.5q-6 -4 -24.5 -49t-47.5 -111.5t-68.5 -147t-95 -159.5t-119 -144.5t-148.5 -106t-177 -40.5q-85 0 -151 66t-66 151v17zM-266 -479 q0 -10 8 -10q88 0 176.5 40t160.5 105.5t129 143t93 157.5q-16 -4 -49 -21.5t-70.5 -40t-50.5 -28.5q-52 -28 -85 -46.5t-84 -51.5t-86 -61.5t-70.5 -66.5t-57.5 -77q-14 -23 -14 -43zM416 1456q0 27 16 48.5t41 21.5q28 0 46 -30.5t22 -61.5q0 -26 -19 -53t-41 -27 q-27 0 -46 36t-19 66zM582 1462q0 24 7.5 39.5t19.5 21.5t19 7.5t13 1.5q43 0 70 -90q7 -28 -31 -66q-15 -18 -33 -18q-25 0 -45 34t-20 70z" />
<glyph unicode="&#x2c6;" horiz-adv-x="743" d="M141 1403q0 26 23 39q42 23 88.5 58.5t73.5 59t81.5 75t69.5 65.5q16 16 27 16q19 0 35 -37t16 -69q0 -20 -10 -59t-10 -58q0 -41 8 -57q8 4 12 4q22 0 34.5 -34.5t12.5 -64.5q0 -18 -16.5 -36.5t-28.5 -18.5q-77 0 -106 191q-177 -177 -250 -177q-22 0 -41 32.5 t-19 70.5z" />
<glyph unicode="&#x2dc;" horiz-adv-x="755" d="M104 1487q-15 8 2.5 67t38.5 68q6 2 27.5 13t40.5 19t57 15.5t82 7.5t73.5 -12.5t41.5 -28t29.5 -29.5t38.5 -16q18 -2 39.5 1t37 7t29 6.5t20 -1.5t5.5 -17q-3 -20 -15.5 -47.5t-23.5 -45.5l-11 -17q-47 -14 -75.5 -11.5t-55 19t-44.5 34.5t-44 34.5t-53 19.5 q-44 5 -101 -18.5t-95.5 -47t-43.5 -20.5z" />
<glyph unicode="&#x2000;" horiz-adv-x="1134" />
<glyph unicode="&#x2001;" horiz-adv-x="2269" />
<glyph unicode="&#x2002;" horiz-adv-x="1134" />
<glyph unicode="&#x2003;" horiz-adv-x="2269" />
<glyph unicode="&#x2004;" horiz-adv-x="756" />
<glyph unicode="&#x2005;" horiz-adv-x="567" />
<glyph unicode="&#x2006;" horiz-adv-x="378" />
<glyph unicode="&#x2007;" horiz-adv-x="378" />
<glyph unicode="&#x2008;" horiz-adv-x="283" />
<glyph unicode="&#x2009;" horiz-adv-x="453" />
<glyph unicode="&#x200a;" horiz-adv-x="126" />
<glyph unicode="&#x2010;" horiz-adv-x="788" d="M131 260q0 49 59 83t148.5 48.5t155 19.5t118.5 5q26 0 36 -0.5t28.5 -4t26 -10.5t14 -22t6.5 -37q0 -20 -2 -36t-12.5 -33.5t-30.5 -14.5q-111 14 -249 1t-257 -46q-18 -6 -29.5 9.5t-11.5 37.5z" />
<glyph unicode="&#x2011;" horiz-adv-x="788" d="M131 260q0 49 59 83t148.5 48.5t155 19.5t118.5 5q26 0 36 -0.5t28.5 -4t26 -10.5t14 -22t6.5 -37q0 -20 -2 -36t-12.5 -33.5t-30.5 -14.5q-111 14 -249 1t-257 -46q-18 -6 -29.5 9.5t-11.5 37.5z" />
<glyph unicode="&#x2012;" horiz-adv-x="788" d="M131 260q0 49 59 83t148.5 48.5t155 19.5t118.5 5q26 0 36 -0.5t28.5 -4t26 -10.5t14 -22t6.5 -37q0 -20 -2 -36t-12.5 -33.5t-30.5 -14.5q-111 14 -249 1t-257 -46q-18 -6 -29.5 9.5t-11.5 37.5z" />
<glyph unicode="&#x2013;" horiz-adv-x="1220" d="M131 260q0 49 102 83t257 48.5t268 19.5t205 5q45 0 62.5 -0.5t49.5 -4t45 -10.5t24 -22t11 -37q0 -20 -3.5 -36t-21.5 -33.5t-53 -14.5q-192 14 -430.5 1t-444.5 -46q-31 -6 -51 9.5t-20 37.5z" />
<glyph unicode="&#x2014;" horiz-adv-x="2244" d="M131 260q0 49 204 83t513.5 48.5t536.5 19.5t410 5q90 0 124.5 -0.5t98.5 -4t90 -10.5t48.5 -22t22.5 -37q0 -20 -7 -36t-43 -33.5t-106 -14.5q-384 14 -861 1t-889 -46q-62 -6 -102 9.5t-40 37.5z" />
<glyph unicode="&#x202f;" horiz-adv-x="453" />
<glyph unicode="&#x205f;" horiz-adv-x="567" />
<glyph unicode="&#x25fc;" horiz-adv-x="645" d="M0 0v645h645v-645h-645z" />
</font>
</defs>
</svg>
